<?xml version="1.0" encoding="UTF-8" standalone="no"?>
<!-- Created with Inkscape (http://www.inkscape.org/) -->

<svg
   xmlns:dc="http://purl.org/dc/elements/1.1/"
   xmlns:cc="http://creativecommons.org/ns#"
   xmlns:rdf="http://www.w3.org/1999/02/22-rdf-syntax-ns#"
   xmlns:svg="http://www.w3.org/2000/svg"
   xmlns="http://www.w3.org/2000/svg"
   xmlns:sodipodi="http://sodipodi.sourceforge.net/DTD/sodipodi-0.dtd"
   xmlns:inkscape="http://www.inkscape.org/namespaces/inkscape"
   id="svg2"
   version="1.1"
   inkscape:version="0.91 r13725"
   xml:space="preserve"
   width="266.68243"
   height="30.612312"
   viewBox="0 0 266.68243 30.612312"
   sodipodi:docname="graphic.svg"><metadata
     id="metadata8"><rdf:RDF><cc:Work
         rdf:about=""><dc:format>image/svg+xml</dc:format><dc:type
           rdf:resource="http://purl.org/dc/dcmitype/StillImage" /><dc:title></dc:title></cc:Work></rdf:RDF></metadata><defs
     id="defs6" /><sodipodi:namedview
     pagecolor="#ffffff"
     bordercolor="#666666"
     borderopacity="1"
     objecttolerance="10"
     gridtolerance="10"
     guidetolerance="10"
     inkscape:pageopacity="0"
     inkscape:pageshadow="2"
     inkscape:window-width="1500"
     inkscape:window-height="937"
     id="namedview4"
     showgrid="false"
     inkscape:zoom="1.353405"
     inkscape:cx="35.569071"
     inkscape:cy="-88.434489"
     inkscape:window-x="-8"
     inkscape:window-y="1192"
     inkscape:window-maximized="1"
     inkscape:current-layer="g10" /><g
     id="g10"
     inkscape:groupmode="layer"
     inkscape:label="ink_ext_XXXXXX"
     transform="matrix(1.25,0,0,-1.25,-16.763671,327.73731)"><path
       inkscape:connector-curvature="0"
       id="path26"
       style="fill:none;stroke:#000000;stroke-width:0.69999999;stroke-linecap:butt;stroke-linejoin:miter;stroke-miterlimit:4;stroke-dasharray:none;stroke-opacity:1"
       d="m 131.25,249.5 -34.6,0" /><path
       inkscape:connector-curvature="0"
       id="path28"
       style="fill:#000000;fill-opacity:1;fill-rule:nonzero;stroke:none"
       d="m 143,249.5 -13.5,3.45 c 0,0 1.7,-1.95 1.7,-3.45 0,-1.5 -1.7,-3.4 -1.7,-3.4 l 13.5,3.4 0,0" /><path
       inkscape:connector-curvature="0"
       id="path4557"
       style="font-variant:normal;font-weight:normal;font-size:medium;font-family:Helvetica;-inkscape-font-specification:Helvetica;writing-mode:lr-tb;fill:#000000;fill-opacity:1;fill-rule:nonzero;stroke:none"
       d="m 13.410937,245.75 0,8.58984 1.136719,0 0,-3.52734 4.464844,0 0,3.52734 1.136719,0 0,-8.58984 -1.136719,0 0,4.04883 -4.464844,0 0,-4.04883 -1.136719,0 z" /><path
       inkscape:connector-curvature="0"
       id="path4554"
       style="font-variant:normal;font-weight:normal;font-size:medium;font-family:Helvetica;-inkscape-font-specification:Helvetica;writing-mode:lr-tb;fill:#000000;fill-opacity:1;fill-rule:nonzero;stroke:none"
       d="m 21.491989,245.20068 0.791016,0.10547 q 0.13623,-0.67236 0.461426,-0.97119 0.329589,-0.29443 0.799804,-0.29443 0.558106,0 0.94043,0.38672 0.386719,0.38671 0.386719,0.958 0,0.54493 -0.355957,0.89649 -0.355957,0.35596 -0.905274,0.35596 -0.224121,0 -0.558105,-0.0879 l 0.08789,0.69434 q 0.0791,-0.009 0.127442,-0.009 0.505371,0 0.909668,0.26367 0.404297,0.26368 0.404297,0.81299 0,0.43506 -0.294434,0.7207 -0.294434,0.28565 -0.760254,0.28565 -0.461426,0 -0.769043,-0.29004 -0.307617,-0.29004 -0.395508,-0.87012 l -0.791015,0.14063 q 0.145019,0.79541 0.659179,1.23047 0.514161,0.43945 1.278809,0.43945 0.527344,0 0.971191,-0.22852 0.443848,-0.22412 0.676758,-0.61523 0.237305,-0.39111 0.237305,-0.83057 0,-0.41748 -0.224121,-0.76025 -0.224121,-0.34277 -0.663574,-0.54492 0.571289,-0.13184 0.887695,-0.54932 0.316406,-0.41308 0.316406,-1.03711 0,-0.84375 -0.615234,-1.43262 -0.615235,-0.58447 -1.555664,-0.58447 -0.848145,0 -1.410645,0.50537 -0.558105,0.50537 -0.637207,1.30957 z" /><path
       inkscape:connector-curvature="0"
       id="path4547"
       style="font-variant:normal;font-weight:normal;font-size:medium;font-family:Helvetica;-inkscape-font-specification:Helvetica;writing-mode:lr-tb;fill:#000000;fill-opacity:1;fill-rule:nonzero;stroke:none"
       d="m 33.172657,248.76172 1.136719,-0.28711 q -0.357422,-1.40039 -1.289063,-2.13867 -0.925781,-0.73242 -2.267578,-0.73242 -1.388672,0 -2.261719,0.5625 -0.867187,0.56835 -1.324218,1.64062 -0.451172,1.07227 -0.451172,2.30273 0,1.3418 0.509765,2.3379 0.515625,1.00195 1.458985,1.51757 0.949219,0.52149 2.085937,0.52149 1.289063,0 2.167969,-0.65625 0.878906,-0.65625 1.224609,-1.84571 l -1.11914,-0.26367 q -0.298828,0.9375 -0.867188,1.36524 -0.568359,0.42773 -1.429687,0.42773 -0.990235,0 -1.658203,-0.47461 -0.66211,-0.47461 -0.931641,-1.27734 -0.269531,-0.79688 -0.269531,-1.64649 0,-1.0957 0.316406,-1.91601 0.322266,-0.81445 0.996094,-1.21875 0.673828,-0.4043 1.458984,-0.4043 0.955078,0 1.617188,0.55078 0.662109,0.55078 0.896484,1.63477 z" /><path
       inkscape:connector-curvature="0"
       id="path4549"
       style="font-variant:normal;font-weight:normal;font-size:medium;font-family:Helvetica;-inkscape-font-specification:Helvetica;writing-mode:lr-tb;fill:#000000;fill-opacity:1;fill-rule:nonzero;stroke:none"
       d="m 41.836658,248.76172 1.136719,-0.28711 q -0.357422,-1.40039 -1.289062,-2.13867 -0.925782,-0.73242 -2.267578,-0.73242 -1.388672,0 -2.261719,0.5625 -0.867188,0.56835 -1.324219,1.64062 -0.451172,1.07227 -0.451172,2.30273 0,1.3418 0.509766,2.3379 0.515625,1.00195 1.458984,1.51757 0.949219,0.52149 2.085938,0.52149 1.289062,0 2.167968,-0.65625 0.878907,-0.65625 1.22461,-1.84571 l -1.119141,-0.26367 q -0.298828,0.9375 -0.867187,1.36524 -0.56836,0.42773 -1.429688,0.42773 -0.990234,0 -1.658203,-0.47461 -0.662109,-0.47461 -0.931641,-1.27734 -0.269531,-0.79688 -0.269531,-1.64649 0,-1.0957 0.316406,-1.91601 0.322266,-0.81445 0.996094,-1.21875 0.673828,-0.4043 1.458985,-0.4043 0.955078,0 1.617187,0.55078 0.662109,0.55078 0.896484,1.63477 z" /><path
       inkscape:connector-curvature="0"
       id="path4551"
       style="font-variant:normal;font-weight:normal;font-size:medium;font-family:Helvetica;-inkscape-font-specification:Helvetica;writing-mode:lr-tb;fill:#000000;fill-opacity:1;fill-rule:nonzero;stroke:none"
       d="m 44.406906,245.75 0,8.58984 1.136719,0 0,-3.52734 4.464844,0 0,3.52734 1.136718,0 0,-8.58984 -1.136718,0 0,4.04883 -4.464844,0 0,-4.04883 -1.136719,0 z" /><path
       inkscape:connector-curvature="0"
       id="path4544"
       style="font-variant:normal;font-weight:normal;font-size:medium;font-family:Helvetica;-inkscape-font-specification:Helvetica;writing-mode:lr-tb;fill:#000000;fill-opacity:1;fill-rule:nonzero;stroke:none"
       d="m 56.64093,244.26025 0,-0.76025 -4.258301,0 q -0.0088,0.28564 0.09229,0.54932 0.162597,0.43505 0.518554,0.85693 0.360352,0.42187 1.03711,0.97559 1.050293,0.86132 1.419433,1.3623 0.369141,0.50537 0.369141,0.95361 0,0.47022 -0.338379,0.79102 -0.333984,0.32519 -0.874512,0.32519 -0.571289,0 -0.914062,-0.34277 -0.342774,-0.34277 -0.347168,-0.94922 l -0.812989,0.0835 q 0.0835,0.90967 0.628418,1.38428 0.544922,0.479 1.463379,0.479 0.927246,0 1.467774,-0.51416 0.540527,-0.51416 0.540527,-1.27441 0,-0.38672 -0.158203,-0.76026 -0.158203,-0.37353 -0.527344,-0.78662 -0.364746,-0.41309 -1.217285,-1.13379 -0.711914,-0.59765 -0.914062,-0.81299 -0.202149,-0.21093 -0.333985,-0.42627 l 3.159668,0 z" /><path
       inkscape:connector-curvature="0"
       id="path4539"
       style="font-variant:normal;font-weight:normal;font-size:medium;font-family:Helvetica;-inkscape-font-specification:Helvetica;writing-mode:lr-tb;fill:#000000;fill-opacity:1;fill-rule:nonzero;stroke:none"
       d="m 64.168766,248.76172 1.136719,-0.28711 q -0.357422,-1.40039 -1.289063,-2.13867 -0.925781,-0.73242 -2.267578,-0.73242 -1.388672,0 -2.261719,0.5625 -0.867187,0.56835 -1.324218,1.64062 -0.451172,1.07227 -0.451172,2.30273 0,1.3418 0.509765,2.3379 0.515625,1.00195 1.458985,1.51757 0.949219,0.52149 2.085937,0.52149 1.289063,0 2.167969,-0.65625 0.878906,-0.65625 1.224609,-1.84571 l -1.11914,-0.26367 q -0.298828,0.9375 -0.867188,1.36524 -0.568359,0.42773 -1.429687,0.42773 -0.990235,0 -1.658203,-0.47461 -0.66211,-0.47461 -0.931641,-1.27734 -0.269531,-0.79688 -0.269531,-1.64649 0,-1.0957 0.316406,-1.91601 0.322266,-0.81445 0.996094,-1.21875 0.673828,-0.4043 1.458984,-0.4043 0.955078,0 1.617188,0.55078 0.662109,0.55078 0.896484,1.63477 z" /><path
       inkscape:connector-curvature="0"
       id="path4541"
       style="font-variant:normal;font-weight:normal;font-size:medium;font-family:Helvetica;-inkscape-font-specification:Helvetica;writing-mode:lr-tb;fill:#000000;fill-opacity:1;fill-rule:nonzero;stroke:none"
       d="m 66.739014,245.75 0,8.58984 1.136718,0 0,-3.52734 4.464844,0 0,3.52734 1.136719,0 0,-8.58984 -1.136719,0 0,4.04883 -4.464844,0 0,-4.04883 -1.136718,0 z" /><path
       inkscape:connector-curvature="0"
       id="path4536"
       style="font-variant:normal;font-weight:normal;font-size:medium;font-family:Helvetica;-inkscape-font-specification:Helvetica;writing-mode:lr-tb;fill:#000000;fill-opacity:1;fill-rule:nonzero;stroke:none"
       d="m 78.972939,244.26025 0,-0.76025 -4.258301,0 q -0.0088,0.28564 0.09229,0.54932 0.162598,0.43505 0.518555,0.85693 0.360351,0.42187 1.037109,0.97559 1.050293,0.86132 1.419434,1.3623 0.36914,0.50537 0.36914,0.95361 0,0.47022 -0.338379,0.79102 -0.333984,0.32519 -0.874511,0.32519 -0.571289,0 -0.914063,-0.34277 -0.342773,-0.34277 -0.347168,-0.94922 l -0.812988,0.0835 q 0.0835,0.90967 0.628418,1.38428 0.544922,0.479 1.463379,0.479 0.927246,0 1.467773,-0.51416 0.540527,-0.51416 0.540527,-1.27441 0,-0.38672 -0.158203,-0.76026 -0.158203,-0.37353 -0.527343,-0.78662 -0.364746,-0.41309 -1.217286,-1.13379 -0.711914,-0.59765 -0.914062,-0.81299 -0.202148,-0.21093 -0.333984,-0.42627 l 3.159668,0 z" /><path
       inkscape:connector-curvature="0"
       id="path4529"
       style="font-variant:normal;font-weight:normal;font-size:medium;font-family:Helvetica;-inkscape-font-specification:Helvetica;writing-mode:lr-tb;fill:#000000;fill-opacity:1;fill-rule:nonzero;stroke:none"
       d="m 80.324997,245.75 0,8.58984 3.222656,0 q 0.984375,0 1.576172,-0.26367 0.597656,-0.25781 0.931641,-0.80273 0.339843,-0.53907 0.339843,-1.13086 0,-0.55078 -0.298828,-1.03711 -0.298828,-0.48633 -0.902343,-0.78516 0.779296,-0.22851 1.195312,-0.77929 0.421875,-0.55079 0.421875,-1.30079 0,-0.60351 -0.257812,-1.125 -0.251954,-0.51562 -0.626954,-0.79687 -0.375,-0.28125 -0.943359,-0.42774 Q 84.4207,245.75 83.600388,245.75 l -3.275391,0 z m 1.136719,4.98047 1.857422,0 q 0.755859,0 1.083984,0.0996 0.433594,0.1289 0.650391,0.42773 0.222656,0.29883 0.222656,0.75 0,0.42774 -0.205078,0.75 -0.205078,0.32813 -0.585938,0.44531 -0.380859,0.12305 -1.30664,0.12305 l -1.716797,0 0,-2.5957 z m 0,-3.9668 2.138672,0 q 0.550781,0 0.773437,0.041 0.392578,0.0703 0.65625,0.23437 0.263672,0.16406 0.433594,0.47461 0.169922,0.31641 0.169922,0.72656 0,0.48047 -0.246094,0.83204 -0.246094,0.35742 -0.685547,0.49804 -0.433594,0.14649 -1.253906,0.14649 l -1.986328,0 0,-2.95313 z" /><path
       inkscape:connector-curvature="0"
       id="path4531"
       style="font-variant:normal;font-weight:normal;font-size:medium;font-family:Helvetica;-inkscape-font-specification:Helvetica;writing-mode:lr-tb;fill:#000000;fill-opacity:1;fill-rule:nonzero;stroke:none"
       d="m 88.229385,245.75 0,6.22266 0.949219,0 0,-0.94336 q 0.363281,0.66211 0.667969,0.87304 0.310547,0.21094 0.679687,0.21094 0.533204,0 1.083985,-0.33984 l -0.363281,-0.97852 q -0.386719,0.22852 -0.773438,0.22852 -0.345703,0 -0.621094,-0.21094 -0.27539,-0.20508 -0.392578,-0.57422 -0.175781,-0.5625 -0.175781,-1.23047 l 0,-3.25781 -1.054688,0 z" /><path
       inkscape:connector-curvature="0"
       id="path4533"
       style="font-variant:normal;font-weight:normal;font-size:medium;font-family:Helvetica;-inkscape-font-specification:Helvetica;writing-mode:lr-tb;fill:#000000;fill-opacity:1;fill-rule:nonzero;stroke:none"
       d="m 147.46098,245.75 0,8.58984 1.13672,0 0,-3.52734 4.46485,0 0,3.52734 1.13671,0 0,-8.58984 -1.13671,0 0,4.04883 -4.46485,0 0,-4.04883 -1.13672,0 z" /><path
       inkscape:connector-curvature="0"
       id="path4526"
       style="font-variant:normal;font-weight:normal;font-size:medium;font-family:Helvetica;-inkscape-font-specification:Helvetica;writing-mode:lr-tb;fill:#000000;fill-opacity:1;fill-rule:nonzero;stroke:none"
       d="m 155.54202,245.20068 0.79102,0.10547 q 0.13623,-0.67236 0.46142,-0.97119 0.32959,-0.29443 0.79981,-0.29443 0.5581,0 0.94043,0.38672 0.38672,0.38671 0.38672,0.958 0,0.54493 -0.35596,0.89649 -0.35596,0.35596 -0.90527,0.35596 -0.22412,0 -0.55811,-0.0879 l 0.0879,0.69434 q 0.0791,-0.009 0.12744,-0.009 0.50537,0 0.90967,0.26367 0.4043,0.26368 0.4043,0.81299 0,0.43506 -0.29444,0.7207 -0.29443,0.28565 -0.76025,0.28565 -0.46143,0 -0.76904,-0.29004 -0.30762,-0.29004 -0.39551,-0.87012 l -0.79102,0.14063 q 0.14502,0.79541 0.65918,1.23047 0.51416,0.43945 1.27881,0.43945 0.52735,0 0.97119,-0.22852 0.44385,-0.22412 0.67676,-0.61523 0.23731,-0.39111 0.23731,-0.83057 0,-0.41748 -0.22412,-0.76025 -0.22413,-0.34277 -0.66358,-0.54492 0.57129,-0.13184 0.8877,-0.54932 0.3164,-0.41308 0.3164,-1.03711 0,-0.84375 -0.61523,-1.43262 -0.61524,-0.58447 -1.55567,-0.58447 -0.84814,0 -1.41064,0.50537 -0.55811,0.50537 -0.63721,1.30957 z" /><path
       inkscape:connector-curvature="0"
       id="path4519"
       style="font-variant:normal;font-weight:normal;font-size:medium;font-family:Helvetica;-inkscape-font-specification:Helvetica;writing-mode:lr-tb;fill:#000000;fill-opacity:1;fill-rule:nonzero;stroke:none"
       d="m 167.22269,248.76172 1.13672,-0.28711 q -0.35743,-1.40039 -1.28907,-2.13867 -0.92578,-0.73242 -2.26758,-0.73242 -1.38867,0 -2.26171,0.5625 -0.86719,0.56835 -1.32422,1.64062 -0.45117,1.07227 -0.45117,2.30273 0,1.3418 0.50976,2.3379 0.51563,1.00195 1.45899,1.51757 0.94921,0.52149 2.08593,0.52149 1.28907,0 2.16797,-0.65625 0.87891,-0.65625 1.22461,-1.84571 l -1.11914,-0.26367 q -0.29883,0.9375 -0.86719,1.36524 -0.56836,0.42773 -1.42968,0.42773 -0.99024,0 -1.65821,-0.47461 -0.66211,-0.47461 -0.93164,-1.27734 -0.26953,-0.79688 -0.26953,-1.64649 0,-1.0957 0.31641,-1.91601 0.32226,-0.81445 0.99609,-1.21875 0.67383,-0.4043 1.45898,-0.4043 0.95508,0 1.61719,0.55078 0.66211,0.55078 0.89649,1.63477 z" /><path
       inkscape:connector-curvature="0"
       id="path4521"
       style="font-variant:normal;font-weight:normal;font-size:medium;font-family:Helvetica;-inkscape-font-specification:Helvetica;writing-mode:lr-tb;fill:#000000;fill-opacity:1;fill-rule:nonzero;stroke:none"
       d="m 175.88669,248.76172 1.13672,-0.28711 q -0.35742,-1.40039 -1.28907,-2.13867 -0.92578,-0.73242 -2.26757,-0.73242 -1.38868,0 -2.26172,0.5625 -0.86719,0.56835 -1.32422,1.64062 -0.45117,1.07227 -0.45117,2.30273 0,1.3418 0.50976,2.3379 0.51563,1.00195 1.45899,1.51757 0.94922,0.52149 2.08593,0.52149 1.28907,0 2.16797,-0.65625 0.87891,-0.65625 1.22461,-1.84571 l -1.11914,-0.26367 q -0.29883,0.9375 -0.86719,1.36524 -0.56835,0.42773 -1.42968,0.42773 -0.99024,0 -1.65821,-0.47461 -0.66211,-0.47461 -0.93164,-1.27734 -0.26953,-0.79688 -0.26953,-1.64649 0,-1.0957 0.31641,-1.91601 0.32226,-0.81445 0.99609,-1.21875 0.67383,-0.4043 1.45899,-0.4043 0.95507,0 1.61718,0.55078 0.66211,0.55078 0.89649,1.63477 z" /><path
       inkscape:connector-curvature="0"
       id="path4523"
       style="font-variant:normal;font-weight:normal;font-size:medium;font-family:Helvetica;-inkscape-font-specification:Helvetica;writing-mode:lr-tb;fill:#000000;fill-opacity:1;fill-rule:nonzero;stroke:none"
       d="m 178.45694,245.75 0,8.58984 1.13672,0 0,-3.52734 4.46484,0 0,3.52734 1.13672,0 0,-8.58984 -1.13672,0 0,4.04883 -4.46484,0 0,-4.04883 -1.13672,0 z" /><path
       inkscape:connector-curvature="0"
       id="path4516"
       style="font-variant:normal;font-weight:normal;font-size:medium;font-family:Helvetica;-inkscape-font-specification:Helvetica;writing-mode:lr-tb;fill:#000000;fill-opacity:1;fill-rule:nonzero;stroke:none"
       d="m 190.69096,244.26025 0,-0.76025 -4.2583,0 q -0.009,0.28564 0.0923,0.54932 0.1626,0.43505 0.51855,0.85693 0.36035,0.42187 1.03711,0.97559 1.0503,0.86132 1.41944,1.3623 0.36914,0.50537 0.36914,0.95361 0,0.47022 -0.33838,0.79102 -0.33399,0.32519 -0.87451,0.32519 -0.57129,0 -0.91407,-0.34277 -0.34277,-0.34277 -0.34716,-0.94922 l -0.81299,0.0835 q 0.0835,0.90967 0.62841,1.38428 0.54493,0.479 1.46338,0.479 0.92725,0 1.46778,-0.51416 0.54052,-0.51416 0.54052,-1.27441 0,-0.38672 -0.1582,-0.76026 -0.1582,-0.37353 -0.52734,-0.78662 -0.36475,-0.41309 -1.21729,-1.13379 -0.71191,-0.59765 -0.91406,-0.81299 -0.20215,-0.21093 -0.33398,-0.42627 l 3.15966,0 z" /><path
       inkscape:connector-curvature="0"
       id="path4511"
       style="font-variant:normal;font-weight:normal;font-size:medium;font-family:Helvetica;-inkscape-font-specification:Helvetica;writing-mode:lr-tb;fill:#000000;fill-opacity:1;fill-rule:nonzero;stroke:none"
       d="m 198.2188,248.76172 1.13671,-0.28711 q -0.35742,-1.40039 -1.28906,-2.13867 -0.92578,-0.73242 -2.26758,-0.73242 -1.38867,0 -2.26171,0.5625 -0.86719,0.56835 -1.32422,1.64062 -0.45118,1.07227 -0.45118,2.30273 0,1.3418 0.50977,2.3379 0.51563,1.00195 1.45898,1.51757 0.94922,0.52149 2.08594,0.52149 1.28906,0 2.16797,-0.65625 0.87891,-0.65625 1.22461,-1.84571 l -1.11914,-0.26367 q -0.29883,0.9375 -0.86719,1.36524 -0.56836,0.42773 -1.42969,0.42773 -0.99023,0 -1.6582,-0.47461 -0.66211,-0.47461 -0.93164,-1.27734 -0.26953,-0.79688 -0.26953,-1.64649 0,-1.0957 0.31641,-1.91601 0.32226,-0.81445 0.99609,-1.21875 0.67383,-0.4043 1.45898,-0.4043 0.95508,0 1.61719,0.55078 0.66211,0.55078 0.89649,1.63477 z" /><path
       inkscape:connector-curvature="0"
       id="path4513"
       style="font-variant:normal;font-weight:normal;font-size:medium;font-family:Helvetica;-inkscape-font-specification:Helvetica;writing-mode:lr-tb;fill:#000000;fill-opacity:1;fill-rule:nonzero;stroke:none"
       d="m 200.78905,245.75 0,8.58984 1.13672,0 0,-3.52734 4.46484,0 0,3.52734 1.13672,0 0,-8.58984 -1.13672,0 0,4.04883 -4.46484,0 0,-4.04883 -1.13672,0 z" /><path
       inkscape:connector-curvature="0"
       id="path4508"
       style="font-variant:normal;font-weight:normal;font-size:medium;font-family:Helvetica;-inkscape-font-specification:Helvetica;writing-mode:lr-tb;fill:#000000;fill-opacity:1;fill-rule:nonzero;stroke:none"
       d="m 213.02296,244.26025 0,-0.76025 -4.2583,0 q -0.009,0.28564 0.0923,0.54932 0.1626,0.43505 0.51855,0.85693 0.36036,0.42187 1.03711,0.97559 1.0503,0.86132 1.41944,1.3623 0.36914,0.50537 0.36914,0.95361 0,0.47022 -0.33838,0.79102 -0.33399,0.32519 -0.87451,0.32519 -0.57129,0 -0.91407,-0.34277 -0.34277,-0.34277 -0.34716,-0.94922 l -0.81299,0.0835 q 0.0835,0.90967 0.62842,1.38428 0.54492,0.479 1.46337,0.479 0.92725,0 1.46778,-0.51416 0.54053,-0.51416 0.54053,-1.27441 0,-0.38672 -0.15821,-0.76026 -0.1582,-0.37353 -0.52734,-0.78662 -0.36475,-0.41309 -1.21729,-1.13379 -0.71191,-0.59765 -0.91406,-0.81299 -0.20215,-0.21093 -0.33398,-0.42627 l 3.15966,0 z" /><path
       inkscape:connector-curvature="0"
       id="path4505"
       style="font-variant:normal;font-weight:normal;font-size:medium;font-family:Helvetica;-inkscape-font-specification:Helvetica;writing-mode:lr-tb;fill:#000000;fill-opacity:1;fill-rule:nonzero;stroke:none"
       d="m 214.41019,245.75 0,8.58984 1.16601,0 4.51172,-6.74414 0,6.74414 1.08984,0 0,-8.58984 -1.16601,0 -4.51172,6.75 0,-6.75 -1.08984,0 z" /><path
       inkscape:connector-curvature="0"
       id="path4502"
       style="font-variant:normal;font-weight:normal;font-size:medium;font-family:Helvetica;-inkscape-font-specification:Helvetica;writing-mode:lr-tb;fill:#000000;fill-opacity:1;fill-rule:nonzero;stroke:none"
       d="m 222.53812,245.20068 0.79101,0.10547 q 0.13623,-0.67236 0.46143,-0.97119 0.32959,-0.29443 0.7998,-0.29443 0.55811,0 0.94043,0.38672 0.38672,0.38671 0.38672,0.958 0,0.54493 -0.35596,0.89649 -0.35595,0.35596 -0.90527,0.35596 -0.22412,0 -0.5581,-0.0879 l 0.0879,0.69434 q 0.0791,-0.009 0.12744,-0.009 0.50537,0 0.90967,0.26367 0.40429,0.26368 0.40429,0.81299 0,0.43506 -0.29443,0.7207 -0.29444,0.28565 -0.76026,0.28565 -0.46142,0 -0.76904,-0.29004 -0.30762,-0.29004 -0.39551,-0.87012 l -0.79101,0.14063 q 0.14502,0.79541 0.65918,1.23047 0.51416,0.43945 1.27881,0.43945 0.52734,0 0.97119,-0.22852 0.44385,-0.22412 0.67676,-0.61523 0.2373,-0.39111 0.2373,-0.83057 0,-0.41748 -0.22412,-0.76025 -0.22412,-0.34277 -0.66358,-0.54492 0.57129,-0.13184 0.8877,-0.54932 0.31641,-0.41308 0.31641,-1.03711 0,-0.84375 -0.61524,-1.43262 -0.61523,-0.58447 -1.55566,-0.58447 -0.84815,0 -1.41065,0.50537 -0.5581,0.50537 -0.6372,1.30957 z" /><path
       inkscape:connector-curvature="0"
       id="path4495"
       style="font-variant:normal;font-weight:normal;font-size:medium;font-family:Helvetica;-inkscape-font-specification:Helvetica;writing-mode:lr-tb;fill:#000000;fill-opacity:1;fill-rule:nonzero;stroke:none"
       d="m 99.464241,253.60001 0,8.58984 1.166019,0 4.51172,-6.74414 0,6.74414 1.08984,0 0,-8.58984 -1.16602,0 -4.51172,6.75 0,-6.75 -1.089839,0 z" /><path
       inkscape:connector-curvature="0"
       id="path4497"
       style="font-variant:normal;font-weight:normal;font-size:medium;font-family:Helvetica;-inkscape-font-specification:Helvetica;writing-mode:lr-tb;fill:#000000;fill-opacity:1;fill-rule:nonzero;stroke:none"
       d="m 112.06574,254.36758 q -0.58594,-0.49804 -1.13086,-0.70312 -0.53906,-0.20508 -1.16015,-0.20508 -1.02539,0 -1.57618,0.49805 -0.55078,0.5039 -0.55078,1.2832 0,0.45703 0.20508,0.83203 0.21094,0.38086 0.54492,0.60938 0.33985,0.22851 0.76172,0.3457 0.31055,0.082 0.9375,0.1582 1.27735,0.15235 1.88086,0.36328 0.006,0.2168 0.006,0.2754 0,0.64453 -0.29883,0.9082 -0.40429,0.35742 -1.20117,0.35742 -0.74414,0 -1.10156,-0.26367 -0.35156,-0.25781 -0.52149,-0.91992 l -1.03125,0.14062 q 0.14063,0.66211 0.46289,1.06641 0.32227,0.41015 0.93165,0.62695 0.60937,0.22266 1.4121,0.22266 0.79688,0 1.29493,-0.1875 0.49804,-0.1875 0.73242,-0.47461 0.23437,-0.28125 0.32812,-0.71485 0.0527,-0.26953 0.0527,-0.97265 l 0,-1.40625 q 0,-1.47071 0.0645,-1.86328 0.0703,-0.38672 0.26953,-0.74414 l -1.10156,0 q -0.16406,0.32812 -0.21094,0.76757 z m -0.0879,2.35547 q -0.57422,-0.23437 -1.72265,-0.39843 -0.6504,-0.0937 -0.91993,-0.21094 -0.26953,-0.11719 -0.41601,-0.34571 -0.14649,-0.22265 -0.14649,-0.49804 0,-0.42188 0.31641,-0.70313 0.32227,-0.28125 0.9375,-0.28125 0.60937,0 1.08398,0.26367 0.47461,0.26954 0.69727,0.73243 0.16992,0.35742 0.16992,1.05468 l 0,0.38672 z" /><path
       inkscape:connector-curvature="0"
       id="path4499"
       style="font-variant:normal;font-weight:normal;font-size:medium;font-family:Helvetica;-inkscape-font-specification:Helvetica;writing-mode:lr-tb;fill:#000000;fill-opacity:1;fill-rule:nonzero;stroke:none"
       d="m 114.80024,253.60001 0,8.58984 1.16602,0 4.51171,-6.74414 0,6.74414 1.08985,0 0,-8.58984 -1.16602,0 -4.51172,6.75 0,-6.75 -1.08984,0 z" /><path
       inkscape:connector-curvature="0"
       id="path4492"
       style="font-variant:normal;font-weight:normal;font-size:medium;font-family:Helvetica;-inkscape-font-specification:Helvetica;writing-mode:lr-tb;fill:#000000;fill-opacity:1;fill-rule:nonzero;stroke:none"
       d="m 122.92811,253.05069 0.79101,0.10547 q 0.13623,-0.67236 0.46143,-0.97119 0.32959,-0.29444 0.7998,-0.29444 0.55811,0 0.94043,0.38672 0.38672,0.38672 0.38672,0.95801 0,0.54492 -0.35595,0.89648 -0.35596,0.35596 -0.90528,0.35596 -0.22412,0 -0.5581,-0.0879 l 0.0879,0.69434 q 0.0791,-0.009 0.12744,-0.009 0.50537,0 0.90967,0.26367 0.40429,0.26367 0.40429,0.81299 0,0.43506 -0.29443,0.7207 -0.29443,0.28565 -0.76025,0.28565 -0.46143,0 -0.76905,-0.29004 -0.30761,-0.29004 -0.3955,-0.87012 l -0.79102,0.14062 q 0.14502,0.79541 0.65918,1.23047 0.51416,0.43946 1.27881,0.43946 0.52734,0 0.97119,-0.22852 0.44385,-0.22412 0.67676,-0.61523 0.2373,-0.39112 0.2373,-0.83057 0,-0.41748 -0.22412,-0.76025 -0.22412,-0.34278 -0.66357,-0.54493 0.57129,-0.13183 0.88769,-0.54931 0.31641,-0.41309 0.31641,-1.03711 0,-0.84375 -0.61524,-1.43262 -0.61523,-0.58447 -1.55566,-0.58447 -0.84814,0 -1.41064,0.50537 -0.55811,0.50537 -0.63721,1.30957 z" /><path
       inkscape:connector-curvature="0"
       id="path4485"
       style="font-variant:normal;font-weight:normal;font-size:medium;font-family:Helvetica;-inkscape-font-specification:Helvetica;writing-mode:lr-tb;fill:#000000;fill-opacity:1;fill-rule:nonzero;stroke:none"
       d="m 103.91151,237.7 0,7.57617 -2.83008,0 0,1.01367 6.80859,0 0,-1.01367 -2.84179,0 0,-7.57617 -1.13672,0 z" /><path
       inkscape:connector-curvature="0"
       id="path4487"
       style="font-variant:normal;font-weight:normal;font-size:medium;font-family:Helvetica;-inkscape-font-specification:Helvetica;writing-mode:lr-tb;fill:#000000;fill-opacity:1;fill-rule:nonzero;stroke:none"
       d="m 109.09312,237.7 0,8.58984 1.13672,0 0,-3.52734 4.46484,0 0,3.52734 1.13672,0 0,-8.58984 -1.13672,0 0,4.04883 -4.46484,0 0,-4.04883 -1.13672,0 z" /><path
       inkscape:connector-curvature="0"
       id="path4489"
       style="font-variant:normal;font-weight:normal;font-size:medium;font-family:Helvetica;-inkscape-font-specification:Helvetica;writing-mode:lr-tb;fill:#000000;fill-opacity:1;fill-rule:nonzero;stroke:none"
       d="m 117.78056,237.7 0,8.58984 5.79492,0 0,-1.01367 -4.65821,0 0,-2.66016 4.03125,0 0,-1.01367 -4.03125,0 0,-3.90234 -1.13671,0 z" /></g></svg>