<?xml version="1.0" encoding="UTF-8" standalone="no"?>
<svg
   xmlns:dc="http://purl.org/dc/elements/1.1/"
   xmlns:cc="http://creativecommons.org/ns#"
   xmlns:rdf="http://www.w3.org/1999/02/22-rdf-syntax-ns#"
   xmlns:svg="http://www.w3.org/2000/svg"
   xmlns="http://www.w3.org/2000/svg"
   xmlns:sodipodi="http://sodipodi.sourceforge.net/DTD/sodipodi-0.dtd"
   xmlns:inkscape="http://www.inkscape.org/namespaces/inkscape"
   version="1.1"
   id="svg2"
   viewBox="0 0 62.498028 62.498014"
   height="17.638329mm"
   width="17.638332mm"
   inkscape:version="0.91 r13725"
   sodipodi:docname="jklogo_bare.svg">
  <g
     transform="translate(-136.57598,-41.133839)"
     id="layer1">
    <path
       clip-path="none"
       d="m 176.25777,78.011752 -1.48438,1.66016 0,6.48437 -5.52734,0 0,-21.155691 5.52734,0 0,7.37835 0.6836,-1.027339 3.82812,-6.328129 6.58203,0 -6.13281,8.710939 6.71875,12.42187 -6.32813,0 z"
       style="font-style:normal;font-variant:normal;font-weight:bold;font-stretch:normal;font-size:medium;line-height:125%;font-family:'Roboto Condensed';-inkscape-font-specification:'Roboto Condensed,  Bold';letter-spacing:0px;word-spacing:0px;fill:#000000;fill-opacity:1;stroke:none;stroke-width:1px;stroke-linecap:butt;stroke-linejoin:miter;stroke-opacity:1"
       id="littleK" />
    <path
       d="m 159.43911,57.718782 5.74219,0 0,19.6875 q 0,4.14063 -2.30469,6.64063 -2.30469,2.5 -5.9375,2.5 -3.90625,0 -6.07422,-2.32422 -2.16797,-2.32422 -2.16797,-6.46484 l 5.76172,0 q 0,4.02343 2.48047,4.02343 2.5,0 2.5,-4.64843 l 0,-19.41407 z"
       style="font-style:normal;font-variant:normal;font-weight:bold;font-stretch:normal;font-size:medium;line-height:125%;font-family:'Roboto Condensed';-inkscape-font-specification:'Roboto Condensed,  Bold';letter-spacing:0px;word-spacing:0px;fill:#000000;fill-opacity:1;stroke:none;stroke-width:1px;stroke-linecap:butt;stroke-linejoin:miter;stroke-opacity:1"
       id="bigJ" />
    <path
       style="color:#000000;font-style:normal;font-variant:normal;font-weight:normal;font-stretch:normal;font-size:medium;line-height:normal;font-family:sans-serif;text-indent:0;text-align:start;text-decoration:none;text-decoration-line:none;text-decoration-style:solid;text-decoration-color:#000000;letter-spacing:normal;word-spacing:normal;text-transform:none;direction:ltr;block-progression:tb;writing-mode:lr-tb;baseline-shift:baseline;text-anchor:start;white-space:normal;clip-rule:nonzero;display:inline;overflow:visible;visibility:visible;opacity:0.95200004;isolation:auto;mix-blend-mode:normal;color-interpolation:sRGB;color-interpolation-filters:linearRGB;solid-color:#000000;solid-opacity:1;fill:#000000;fill-opacity:1;fill-rule:evenodd;stroke:none;stroke-width:4;stroke-linecap:square;stroke-linejoin:miter;stroke-miterlimit:4;stroke-dasharray:none;stroke-dashoffset:0;stroke-opacity:1;color-rendering:auto;image-rendering:auto;shape-rendering:auto;text-rendering:auto;enable-background:accumulate"
       d="m 135.46289,40.019531 0,2 0,62.726559 64.72461,0 0,-64.726559 -64.72461,0 z m 4,4 56.72461,0 0,56.726559 -56.72461,0 0,-56.726559 z"
       id="surroundingBox"
       inkscape:connector-curvature="0" />
  </g>
</svg>
