<?xml version="1.0" encoding="UTF-8" standalone="no"?>
<!-- Created with Inkscape (http://www.inkscape.org/) -->

<svg
   xmlns:dc="http://purl.org/dc/elements/1.1/"
   xmlns:cc="http://creativecommons.org/ns#"
   xmlns:rdf="http://www.w3.org/1999/02/22-rdf-syntax-ns#"
   xmlns:svg="http://www.w3.org/2000/svg"
   xmlns="http://www.w3.org/2000/svg"
   xmlns:sodipodi="http://sodipodi.sourceforge.net/DTD/sodipodi-0.dtd"
   xmlns:inkscape="http://www.inkscape.org/namespaces/inkscape"
   id="svg2"
   version="1.1"
   inkscape:version="0.91 r13725"
   xml:space="preserve"
   width="122.93102"
   height="122.79609"
   viewBox="0 0 122.93102 122.79609"
   sodipodi:docname="2.svg"><metadata
     id="metadata8"><rdf:RDF><cc:Work
         rdf:about=""><dc:format>image/svg+xml</dc:format><dc:type
           rdf:resource="http://purl.org/dc/dcmitype/StillImage" /><dc:title></dc:title></cc:Work></rdf:RDF></metadata><defs
     id="defs6" /><sodipodi:namedview
     pagecolor="#ffffff"
     bordercolor="#666666"
     borderopacity="1"
     objecttolerance="10"
     gridtolerance="10"
     guidetolerance="10"
     inkscape:pageopacity="0"
     inkscape:pageshadow="2"
     inkscape:window-width="1500"
     inkscape:window-height="937"
     id="namedview4"
     showgrid="false"
     inkscape:zoom="1.9140037"
     inkscape:cx="-116.35795"
     inkscape:cy="-0.38395986"
     inkscape:window-x="-8"
     inkscape:window-y="1192"
     inkscape:window-maximized="1"
     inkscape:current-layer="g10" /><g
     id="g10"
     inkscape:groupmode="layer"
     inkscape:label="ink_ext_XXXXXX"
     transform="matrix(1.25,0,0,-1.25,-165.56896,264.93749)"><path
       inkscape:connector-curvature="0"
       id="path124"
       style="fill:none;stroke:#000000;stroke-width:0.89997995;stroke-linecap:butt;stroke-linejoin:miter;stroke-miterlimit:4;stroke-dasharray:none;stroke-opacity:1"
       d="m 144.25,125.4 0,86.1 86.1,0 0,-86.1 -86.1,0" /><path
       inkscape:connector-curvature="0"
       id="path126"
       style="fill:none;stroke:#000000;stroke-width:0.69999999;stroke-linecap:butt;stroke-linejoin:miter;stroke-miterlimit:4;stroke-dasharray:none;stroke-opacity:1"
       d="m 215.6,121.8 -65.35,0" /><path
       inkscape:connector-curvature="0"
       id="path128"
       style="fill:#000000;fill-opacity:1;fill-rule:nonzero;stroke:none"
       d="m 223.4,121.8 -9,2.35 c 0,0 1.15,-1.3 1.15,-2.35 0,-1 -1.15,-2.3 -1.15,-2.3 l 9,2.3 0,0" /><path
       inkscape:connector-curvature="0"
       id="path130"
       style="fill:none;stroke:#000000;stroke-width:0.69999999;stroke-linecap:butt;stroke-linejoin:miter;stroke-miterlimit:4;stroke-dasharray:none;stroke-opacity:1"
       d="m 141.2,186.2 0,-42.9" /><path
       inkscape:connector-curvature="0"
       id="path132"
       style="fill:#000000;fill-opacity:1;fill-rule:nonzero;stroke:none"
       d="m 141.2,194.05 -2.35,-9 c 0,0 1.3,1.1 2.35,1.1 1,0 2.3,-1.1 2.3,-1.1 l -2.3,9 0,0" /><path
       inkscape:connector-curvature="0"
       id="path4647"
       style="font-variant:normal;font-weight:normal;font-size:medium;font-family:Helvetica;-inkscape-font-specification:Helvetica;writing-mode:lr-tb;fill:#000000;fill-opacity:1;fill-rule:nonzero;stroke:none"
       d="m 137.55,156.213 -5.09483,0 0,3.68384 0.60124,0 0,-3.00963 1.56042,0 0,2.81849 0.59775,0 0,-2.81849 1.73419,0 0,3.12779 0.60123,0 0,-3.802 z" /><path
       inkscape:connector-curvature="0"
       id="path4649"
       style="font-variant:normal;font-weight:normal;font-size:medium;font-family:Helvetica;-inkscape-font-specification:Helvetica;writing-mode:lr-tb;fill:#000000;fill-opacity:1;fill-rule:nonzero;stroke:none"
       d="m 137.55,160.86652 -3.69079,0 0,0.56301 0.52477,0 q -0.60818,0.40661 -0.60818,1.17466 0,0.33363 0.12163,0.61165 0.11817,0.28151 0.31278,0.42052 0.19462,0.13901 0.46222,0.19462 0.17377,0.0348 0.60818,0.0348 l 2.26939,0 0,-0.62556 -2.24506,0 q -0.38228,0 -0.56995,-0.073 -0.19114,-0.073 -0.30236,-0.26065 -0.11468,-0.18419 -0.11468,-0.43442 0,-0.39966 0.2537,-0.69159 0.2537,-0.28845 0.96266,-0.28845 l 2.01569,0 0,-0.62556 z" /><path
       inkscape:connector-curvature="0"
       id="path4651"
       style="font-variant:normal;font-weight:normal;font-size:medium;font-family:Helvetica;-inkscape-font-specification:Helvetica;writing-mode:lr-tb;fill:#000000;fill-opacity:1;fill-rule:nonzero;stroke:none"
       d="m 136.36144,167.35039 0.0799,0.64641 q 0.56648,-0.15291 0.87926,-0.56648 0.31278,-0.41356 0.31278,-1.05649 0,-0.80976 -0.49697,-1.28588 -0.50045,-0.47264 -1.40056,-0.47264 -0.93139,0 -1.44573,0.47959 -0.51435,0.4796 -0.51435,1.24417 0,0.74025 0.50392,1.20942 0.50392,0.46916 1.41793,0.46916 0.0556,0 0.16682,-0.003 l 0,-2.75246 q 0.60818,0.0348 0.93139,0.34406 0.3232,0.3093 0.3232,0.77152 0,0.34406 -0.18071,0.58733 -0.18072,0.24327 -0.57691,0.38576 z m -1.01132,-2.05392 0,2.06087 q -0.46569,-0.0417 -0.69854,-0.23632 -0.36143,-0.29888 -0.36143,-0.775 0,-0.43094 0.28845,-0.72634 0.28845,-0.29193 0.77152,-0.32321 z" /><path
       inkscape:connector-curvature="0"
       id="path4653"
       style="font-variant:normal;font-weight:normal;font-size:medium;font-family:Helvetica;-inkscape-font-specification:Helvetica;writing-mode:lr-tb;fill:#000000;fill-opacity:1;fill-rule:nonzero;stroke:none"
       d="m 137.55,168.7742 -3.69079,0 0,0.563 0.55952,0 q -0.39271,0.21547 -0.51782,0.39619 -0.12511,0.18419 -0.12511,0.40314 0,0.31625 0.20157,0.64293 l 0.58038,-0.21547 q -0.13554,-0.22937 -0.13554,-0.45874 0,-0.20504 0.12511,-0.36838 0.12164,-0.16335 0.34058,-0.23285 0.33363,-0.10426 0.72982,-0.10426 l 1.93228,0 0,-0.62556 z" /><path
       inkscape:connector-curvature="0"
       id="path4655"
       style="font-variant:normal;font-weight:normal;font-size:medium;font-family:Helvetica;-inkscape-font-specification:Helvetica;writing-mode:lr-tb;fill:#000000;fill-opacity:1;fill-rule:nonzero;stroke:none"
       d="m 137.85583,171.03658 0.0904,0.60818 q 0.2815,0.0382 0.41009,0.212 0.17377,0.23285 0.17377,0.63598 0,0.43442 -0.17377,0.67074 -0.17377,0.23632 -0.48655,0.31973 -0.19114,0.0487 -0.8028,0.0452 0.48307,-0.41009 0.48307,-1.02174 0,-0.7611 -0.5491,-1.17814 -0.5491,-0.41704 -1.31715,-0.41704 -0.52825,0 -0.97309,0.19114 -0.44832,0.19115 -0.69159,0.55258 -0.24327,0.36491 -0.24327,0.85493 0,0.65336 0.52825,1.07735 l -0.44484,0 0,0.57691 3.19035,0 q 0.86188,0 1.21984,-0.17725 0.36143,-0.17376 0.56995,-0.55605 0.20852,-0.37881 0.20852,-0.93486 0,-0.66031 -0.29888,-1.06693 -0.2954,-0.40661 -0.89316,-0.39271 z m -2.21726,0.51783 q 0.72635,0 1.05998,0.28845 0.33363,0.28845 0.33363,0.72287 0,0.43094 -0.33016,0.72286 -0.33363,0.29193 -1.04259,0.29193 -0.67769,0 -1.02175,-0.30235 -0.34406,-0.29888 -0.34406,-0.72287 0,-0.41704 0.34058,-0.70897 0.33711,-0.29192 1.00437,-0.29192 z" /><path
       inkscape:connector-curvature="0"
       id="path4657"
       style="font-variant:normal;font-weight:normal;font-size:medium;font-family:Helvetica;-inkscape-font-specification:Helvetica;writing-mode:lr-tb;fill:#000000;fill-opacity:1;fill-rule:nonzero;stroke:none"
       d="m 138.97141,175.08077 -0.58733,-0.0695 q 0.0556,0.20505 0.0556,0.35796 0,0.20852 -0.0695,0.33363 -0.0695,0.12512 -0.19462,0.20505 -0.0938,0.0591 -0.46569,0.19114 -0.0521,0.0174 -0.15292,0.0556 l -3.69774,-1.40056 0,0.67421 2.13732,0.76805 q 0.40662,0.14944 0.85493,0.2676 -0.43094,0.10774 -0.84103,0.25718 l -2.15122,0.78889 0,0.62556 3.75335,-1.40403 q 0.60818,-0.2259 0.83755,-0.35101 0.30931,-0.16681 0.4518,-0.38228 0.14596,-0.21547 0.14596,-0.51435 0,-0.18072 -0.0765,-0.40314 z" /><path
       inkscape:connector-curvature="0"
       id="path4610"
       style="font-variant:normal;font-weight:normal;font-size:medium;font-family:Helvetica;-inkscape-font-specification:Helvetica;writing-mode:lr-tb;fill:#000000;fill-opacity:1;fill-rule:nonzero;stroke:none"
       d="m 152.80953,113.8 0,5.09483 2.25896,0 q 0.68116,0 1.03565,-0.13901 0.35448,-0.13554 0.56648,-0.48307 0.21199,-0.34753 0.21199,-0.76805 0,-0.54215 -0.35101,-0.91401 -0.35101,-0.37186 -1.0843,-0.47264 0.2676,-0.12859 0.40661,-0.2537 0.29541,-0.27108 0.55953,-0.67769 l 0.88621,-1.38666 -0.84798,0 -0.67421,1.05998 q -0.29541,0.45874 -0.48655,0.70201 -0.19114,0.24328 -0.34406,0.34059 -0.14944,0.0973 -0.30582,0.13553 -0.11469,0.0243 -0.37534,0.0243 l -0.78195,0 0,-2.26244 -0.67421,0 z m 0.67421,2.8463 1.44921,0 q 0.46222,0 0.72287,0.0938 0.26065,0.0973 0.39619,0.30583 0.13554,0.21199 0.13554,0.45874 0,0.36144 -0.26413,0.59428 -0.26065,0.23285 -0.82713,0.23285 l -1.61255,0 0,-1.68553 z" /><path
       inkscape:connector-curvature="0"
       id="path4612"
       style="font-variant:normal;font-weight:normal;font-size:medium;font-family:Helvetica;-inkscape-font-specification:Helvetica;writing-mode:lr-tb;fill:#000000;fill-opacity:1;fill-rule:nonzero;stroke:none"
       d="m 160.38454,114.98856 0.64641,-0.0799 q -0.15291,-0.56648 -0.56648,-0.87926 -0.41356,-0.31277 -1.0565,-0.31277 -0.80975,0 -1.28587,0.49697 -0.47264,0.50044 -0.47264,1.40055 0,0.93139 0.47959,1.44574 0.4796,0.51435 1.24417,0.51435 0.74025,0 1.20941,-0.50392 0.46917,-0.50393 0.46917,-1.41794 0,-0.0556 -0.003,-0.16681 l -2.75246,0 q 0.0348,-0.60819 0.34406,-0.93139 0.3093,-0.32321 0.77152,-0.32321 0.34406,0 0.58733,0.18072 0.24327,0.18072 0.38576,0.5769 z m -2.05392,1.01133 2.06087,0 q -0.0417,0.46569 -0.23632,0.69854 -0.29888,0.36143 -0.775,0.36143 -0.43094,0 -0.72634,-0.28845 -0.29193,-0.28845 -0.32321,-0.77152 z" /><path
       inkscape:connector-curvature="0"
       id="path4614"
       style="font-variant:normal;font-weight:normal;font-size:medium;font-family:Helvetica;-inkscape-font-specification:Helvetica;writing-mode:lr-tb;fill:#000000;fill-opacity:1;fill-rule:nonzero;stroke:none"
       d="m 164.2237,114.25527 q -0.34753,-0.2954 -0.67074,-0.41704 -0.31973,-0.12163 -0.68811,-0.12163 -0.60818,0 -0.93486,0.2954 -0.32669,0.29888 -0.32669,0.76109 0,0.27108 0.12164,0.4935 0.12511,0.2259 0.32321,0.36144 0.20157,0.13553 0.45179,0.20504 0.18419,0.0486 0.55605,0.0938 0.75762,0.0904 1.11558,0.21547 0.003,0.12859 0.003,0.16334 0,0.38229 -0.17725,0.53868 -0.23979,0.21199 -0.71244,0.21199 -0.44136,0 -0.65336,-0.15639 -0.20852,-0.15291 -0.3093,-0.54562 l -0.61166,0.0834 q 0.0834,0.39271 0.27455,0.63251 0.19114,0.24327 0.55258,0.37186 0.36143,0.13206 0.83755,0.13206 0.47265,0 0.76805,-0.11121 0.2954,-0.11121 0.43441,-0.2815 0.13902,-0.16682 0.19462,-0.42399 0.0313,-0.15987 0.0313,-0.57691 l 0,-0.83408 q 0,-0.8723 0.0382,-1.10515 0.0417,-0.22937 0.15986,-0.44137 l -0.65336,0 q -0.0973,0.19462 -0.12511,0.45527 z m -0.0521,1.39708 q -0.34058,-0.13901 -1.02174,-0.23632 -0.38577,-0.0556 -0.54563,-0.12511 -0.15987,-0.0695 -0.24675,-0.20505 -0.0869,-0.13206 -0.0869,-0.2954 0,-0.25022 0.18767,-0.41704 0.19114,-0.16681 0.55605,-0.16681 0.36143,0 0.64293,0.15639 0.2815,0.15986 0.41357,0.43441 0.10078,0.212 0.10078,0.62556 l 0,0.22937 z" /><path
       inkscape:connector-curvature="0"
       id="path4616"
       style="font-variant:normal;font-weight:normal;font-size:medium;font-family:Helvetica;-inkscape-font-specification:Helvetica;writing-mode:lr-tb;fill:#000000;fill-opacity:1;fill-rule:nonzero;stroke:none"
       d="m 168.18101,115.15191 0.61513,-0.0799 q -0.10078,-0.63598 -0.51782,-0.99742 -0.41357,-0.35795 -1.01827,-0.35795 -0.75763,0 -1.21984,0.49349 -0.45875,0.49697 -0.45875,1.42141 0,0.59776 0.1981,1.04607 0.19809,0.44832 0.60123,0.67074 0.40661,0.2259 0.88273,0.2259 0.60123,0 0.98352,-0.30583 0.38228,-0.30235 0.49002,-0.86188 l -0.60818,-0.0938 q -0.0869,0.37186 -0.30931,0.55953 -0.21894,0.18767 -0.53172,0.18767 -0.47265,0 -0.76805,-0.34058 -0.2954,-0.33711 -0.2954,-1.0704 0,-0.74372 0.28497,-1.08083 0.28498,-0.33711 0.74372,-0.33711 0.36839,0 0.61514,0.2259 0.24675,0.2259 0.31278,0.69507 z" /><path
       inkscape:connector-curvature="0"
       id="path4618"
       style="font-variant:normal;font-weight:normal;font-size:medium;font-family:Helvetica;-inkscape-font-specification:Helvetica;writing-mode:lr-tb;fill:#000000;fill-opacity:1;fill-rule:nonzero;stroke:none"
       d="m 170.69716,114.35953 0.0904,-0.55258 q -0.26412,-0.0556 -0.47264,-0.0556 -0.34058,0 -0.52825,0.10773 -0.18767,0.10774 -0.26413,0.28151 -0.0764,0.17724 -0.0764,0.74024 l 0,2.12342 -0.45875,0 0,0.48655 0.45875,0 0,0.91401 0.62208,0.37534 0,-1.28935 0.62904,0 0,-0.48655 -0.62904,0 0,-2.15817 q 0,-0.2676 0.0313,-0.34406 0.0348,-0.0765 0.10773,-0.12164 0.0765,-0.0452 0.21547,-0.0452 0.10426,0 0.27456,0.0243 z" /><path
       inkscape:connector-curvature="0"
       id="path4620"
       style="font-variant:normal;font-weight:normal;font-size:medium;font-family:Helvetica;-inkscape-font-specification:Helvetica;writing-mode:lr-tb;fill:#000000;fill-opacity:1;fill-rule:nonzero;stroke:none"
       d="m 171.31348,118.17544 0,0.71939 0.62556,0 0,-0.71939 -0.62556,0 z m 0,-4.37544 0,3.6908 0.62556,0 0,-3.6908 -0.62556,0 z" /><path
       inkscape:connector-curvature="0"
       id="path4622"
       style="font-variant:normal;font-weight:normal;font-size:medium;font-family:Helvetica;-inkscape-font-specification:Helvetica;writing-mode:lr-tb;fill:#000000;fill-opacity:1;fill-rule:nonzero;stroke:none"
       d="m 172.65724,115.6454 q 0,1.02522 0.56995,1.51872 0.47612,0.41009 1.16076,0.41009 0.7611,0 1.24417,-0.50045 0.48307,-0.49697 0.48307,-1.37623 0,-0.71244 -0.21547,-1.12253 -0.212,-0.40661 -0.62209,-0.63251 -0.40661,-0.22589 -0.88968,-0.22589 -0.775,0 -1.25459,0.49697 -0.47612,0.49697 -0.47612,1.43183 z m 0.64293,0 q 0,-0.70897 0.30931,-1.06345 0.3093,-0.35101 0.77847,-0.35101 0.46569,0 0.775,0.35449 0.3093,0.35448 0.3093,1.08082 0,0.68464 -0.31278,1.03565 -0.3093,0.35448 -0.77152,0.35448 -0.46917,0 -0.77847,-0.351 -0.30931,-0.35101 -0.30931,-1.05998 z" /><path
       inkscape:connector-curvature="0"
       id="path4624"
       style="font-variant:normal;font-weight:normal;font-size:medium;font-family:Helvetica;-inkscape-font-specification:Helvetica;writing-mode:lr-tb;fill:#000000;fill-opacity:1;fill-rule:nonzero;stroke:none"
       d="m 176.84739,113.8 0,3.6908 0.563,0 0,-0.52477 q 0.40662,0.60818 1.17466,0.60818 0.33363,0 0.61166,-0.12164 0.2815,-0.11816 0.42051,-0.31278 0.13902,-0.19462 0.19462,-0.46222 0.0348,-0.17376 0.0348,-0.60818 l 0,-2.26939 -0.62556,0 0,2.24506 q 0,0.38229 -0.073,0.56996 -0.073,0.19114 -0.26065,0.30235 -0.1842,0.11469 -0.43442,0.11469 -0.39966,0 -0.69159,-0.2537 -0.28845,-0.2537 -0.28845,-0.96267 l 0,-2.01569 -0.62556,0 z" /><path
       inkscape:connector-curvature="0"
       id="path4626"
       style="font-variant:normal;font-weight:normal;font-size:medium;font-family:Helvetica;-inkscape-font-specification:Helvetica;writing-mode:lr-tb;fill:#000000;fill-opacity:1;fill-rule:nonzero;stroke:none"
       d="m 186.49849,115.58632 0.67421,-0.17029 q -0.21199,-0.8306 -0.76457,-1.26849 -0.5491,-0.43442 -1.34495,-0.43442 -0.82366,0 -1.34148,0.33363 -0.51435,0.33711 -0.78542,0.97309 -0.2676,0.63599 -0.2676,1.36581 0,0.79585 0.30235,1.38665 0.30583,0.59428 0.86536,0.90011 0.563,0.30931 1.23721,0.30931 0.76458,0 1.28587,-0.38924 0.5213,-0.38924 0.72635,-1.09473 l -0.66379,-0.15639 q -0.17724,0.55605 -0.51435,0.80975 -0.3371,0.2537 -0.84798,0.2537 -0.58733,0 -0.98352,-0.2815 -0.39271,-0.2815 -0.55257,-0.75762 -0.15987,-0.47265 -0.15987,-0.97657 0,-0.64988 0.18767,-1.13643 0.19114,-0.48307 0.59081,-0.72287 0.39966,-0.2398 0.86535,-0.2398 0.56648,0 0.95919,0.32668 0.39271,0.32669 0.53173,0.96962 z" /><path
       inkscape:connector-curvature="0"
       id="path4628"
       style="font-variant:normal;font-weight:normal;font-size:medium;font-family:Helvetica;-inkscape-font-specification:Helvetica;writing-mode:lr-tb;fill:#000000;fill-opacity:1;fill-rule:nonzero;stroke:none"
       d="m 187.68933,115.6454 q 0,1.02522 0.56995,1.51872 0.47612,0.41009 1.16076,0.41009 0.76109,0 1.24417,-0.50045 0.48307,-0.49697 0.48307,-1.37623 0,-0.71244 -0.21547,-1.12253 -0.212,-0.40661 -0.62209,-0.63251 -0.40661,-0.22589 -0.88968,-0.22589 -0.775,0 -1.2546,0.49697 -0.47611,0.49697 -0.47611,1.43183 z m 0.64293,0 q 0,-0.70897 0.3093,-1.06345 0.30931,-0.35101 0.77848,-0.35101 0.46569,0 0.775,0.35449 0.3093,0.35448 0.3093,1.08082 0,0.68464 -0.31278,1.03565 -0.3093,0.35448 -0.77152,0.35448 -0.46917,0 -0.77848,-0.351 -0.3093,-0.35101 -0.3093,-1.05998 z" /><path
       inkscape:connector-curvature="0"
       id="path4630"
       style="font-variant:normal;font-weight:normal;font-size:medium;font-family:Helvetica;-inkscape-font-specification:Helvetica;writing-mode:lr-tb;fill:#000000;fill-opacity:1;fill-rule:nonzero;stroke:none"
       d="m 191.64665,115.6454 q 0,1.02522 0.56995,1.51872 0.47612,0.41009 1.16076,0.41009 0.7611,0 1.24417,-0.50045 0.48307,-0.49697 0.48307,-1.37623 0,-0.71244 -0.21547,-1.12253 -0.212,-0.40661 -0.62209,-0.63251 -0.40661,-0.22589 -0.88968,-0.22589 -0.775,0 -1.25459,0.49697 -0.47612,0.49697 -0.47612,1.43183 z m 0.64293,0 q 0,-0.70897 0.30931,-1.06345 0.3093,-0.35101 0.77847,-0.35101 0.46569,0 0.775,0.35449 0.3093,0.35448 0.3093,1.08082 0,0.68464 -0.31278,1.03565 -0.3093,0.35448 -0.77152,0.35448 -0.46917,0 -0.77847,-0.351 -0.30931,-0.35101 -0.30931,-1.05998 z" /><path
       inkscape:connector-curvature="0"
       id="path4632"
       style="font-variant:normal;font-weight:normal;font-size:medium;font-family:Helvetica;-inkscape-font-specification:Helvetica;writing-mode:lr-tb;fill:#000000;fill-opacity:1;fill-rule:nonzero;stroke:none"
       d="m 195.82985,113.8 0,3.6908 0.563,0 0,-0.55953 q 0.21547,0.39271 0.39619,0.51783 0.18419,0.12511 0.40314,0.12511 0.31625,0 0.64293,-0.20157 l -0.21547,-0.58038 q -0.22937,0.13554 -0.45874,0.13554 -0.20505,0 -0.36839,-0.12511 -0.16334,-0.12164 -0.23284,-0.34059 -0.10426,-0.33363 -0.10426,-0.72982 l 0,-1.93228 -0.62556,0 z" /><path
       inkscape:connector-curvature="0"
       id="path4634"
       style="font-variant:normal;font-weight:normal;font-size:medium;font-family:Helvetica;-inkscape-font-specification:Helvetica;writing-mode:lr-tb;fill:#000000;fill-opacity:1;fill-rule:nonzero;stroke:none"
       d="m 200.60142,113.8 0,0.4657 q -0.35101,-0.5491 -1.03218,-0.5491 -0.44136,0 -0.81322,0.24327 -0.36839,0.24327 -0.57343,0.67769 -0.20157,0.43789 -0.20157,1.00437 0,0.55257 0.18419,1.00089 0.18419,0.45179 0.55258,0.69159 0.36838,0.2398 0.82365,0.2398 0.33363,0 0.59428,-0.14249 0.26065,-0.13901 0.42399,-0.36491 l 0,1.82802 0.62209,0 0,-5.09483 -0.58038,0 z m -1.97746,1.84193 q 0,-0.70897 0.29887,-1.05998 0.29888,-0.35101 0.7055,-0.35101 0.41008,0 0.69506,0.33364 0.28845,0.3371 0.28845,1.02522 0,0.75762 -0.29192,1.1121 -0.29193,0.35448 -0.7194,0.35448 -0.41704,0 -0.69854,-0.34058 -0.27802,-0.34058 -0.27802,-1.07387 z" /><path
       inkscape:connector-curvature="0"
       id="path4636"
       style="font-variant:normal;font-weight:normal;font-size:medium;font-family:Helvetica;-inkscape-font-specification:Helvetica;writing-mode:lr-tb;fill:#000000;fill-opacity:1;fill-rule:nonzero;stroke:none"
       d="m 202.16771,118.17544 0,0.71939 0.62556,0 0,-0.71939 -0.62556,0 z m 0,-4.37544 0,3.6908 0.62556,0 0,-3.6908 -0.62556,0 z" /><path
       inkscape:connector-curvature="0"
       id="path4638"
       style="font-variant:normal;font-weight:normal;font-size:medium;font-family:Helvetica;-inkscape-font-specification:Helvetica;writing-mode:lr-tb;fill:#000000;fill-opacity:1;fill-rule:nonzero;stroke:none"
       d="m 203.74432,113.8 0,3.6908 0.563,0 0,-0.52477 q 0.40661,0.60818 1.17466,0.60818 0.33363,0 0.61166,-0.12164 0.2815,-0.11816 0.42051,-0.31278 0.13901,-0.19462 0.19462,-0.46222 0.0348,-0.17376 0.0348,-0.60818 l 0,-2.26939 -0.62556,0 0,2.24506 q 0,0.38229 -0.073,0.56996 -0.073,0.19114 -0.26065,0.30235 -0.18419,0.11469 -0.43441,0.11469 -0.39967,0 -0.69159,-0.2537 -0.28846,-0.2537 -0.28846,-0.96267 l 0,-2.01569 -0.62555,0 z" /><path
       inkscape:connector-curvature="0"
       id="path4640"
       style="font-variant:normal;font-weight:normal;font-size:medium;font-family:Helvetica;-inkscape-font-specification:Helvetica;writing-mode:lr-tb;fill:#000000;fill-opacity:1;fill-rule:nonzero;stroke:none"
       d="m 210.11002,114.25527 q -0.34753,-0.2954 -0.67073,-0.41704 -0.31974,-0.12163 -0.68812,-0.12163 -0.60818,0 -0.93486,0.2954 -0.32668,0.29888 -0.32668,0.76109 0,0.27108 0.12163,0.4935 0.12511,0.2259 0.32321,0.36144 0.20157,0.13553 0.45179,0.20504 0.18419,0.0486 0.55605,0.0938 0.75762,0.0904 1.11558,0.21547 0.003,0.12859 0.003,0.16334 0,0.38229 -0.17724,0.53868 -0.2398,0.21199 -0.71245,0.21199 -0.44136,0 -0.65336,-0.15639 -0.20852,-0.15291 -0.3093,-0.54562 l -0.61166,0.0834 q 0.0834,0.39271 0.27455,0.63251 0.19115,0.24327 0.55258,0.37186 0.36143,0.13206 0.83755,0.13206 0.47265,0 0.76805,-0.11121 0.2954,-0.11121 0.43442,-0.2815 0.13901,-0.16682 0.19461,-0.42399 0.0313,-0.15987 0.0313,-0.57691 l 0,-0.83408 q 0,-0.8723 0.0382,-1.10515 0.0417,-0.22937 0.15987,-0.44137 l -0.65337,0 q -0.0973,0.19462 -0.12511,0.45527 z m -0.0521,1.39708 q -0.34058,-0.13901 -1.02174,-0.23632 -0.38576,-0.0556 -0.54563,-0.12511 -0.15986,-0.0695 -0.24675,-0.20505 -0.0869,-0.13206 -0.0869,-0.2954 0,-0.25022 0.18767,-0.41704 0.19114,-0.16681 0.55605,-0.16681 0.36143,0 0.64293,0.15639 0.28151,0.15986 0.41357,0.43441 0.10078,0.212 0.10078,0.62556 l 0,0.22937 z" /><path
       inkscape:connector-curvature="0"
       id="path4642"
       style="font-variant:normal;font-weight:normal;font-size:medium;font-family:Helvetica;-inkscape-font-specification:Helvetica;writing-mode:lr-tb;fill:#000000;fill-opacity:1;fill-rule:nonzero;stroke:none"
       d="m 213.02475,114.35953 0.0904,-0.55258 q -0.26412,-0.0556 -0.47264,-0.0556 -0.34058,0 -0.52825,0.10773 -0.18767,0.10774 -0.26412,0.28151 -0.0765,0.17724 -0.0765,0.74024 l 0,2.12342 -0.45874,0 0,0.48655 0.45874,0 0,0.91401 0.62208,0.37534 0,-1.28935 0.62904,0 0,-0.48655 -0.62904,0 0,-2.15817 q 0,-0.2676 0.0313,-0.34406 0.0348,-0.0765 0.10774,-0.12164 0.0764,-0.0452 0.21547,-0.0452 0.10426,0 0.27455,0.0243 z" /><path
       inkscape:connector-curvature="0"
       id="path4644"
       style="font-variant:normal;font-weight:normal;font-size:medium;font-family:Helvetica;-inkscape-font-specification:Helvetica;writing-mode:lr-tb;fill:#000000;fill-opacity:1;fill-rule:nonzero;stroke:none"
       d="m 216.16416,114.98856 0.64641,-0.0799 q -0.15292,-0.56648 -0.56648,-0.87926 -0.41356,-0.31277 -1.0565,-0.31277 -0.80975,0 -1.28587,0.49697 -0.47264,0.50044 -0.47264,1.40055 0,0.93139 0.47959,1.44574 0.4796,0.51435 1.24417,0.51435 0.74024,0 1.20941,-0.50392 0.46917,-0.50393 0.46917,-1.41794 0,-0.0556 -0.003,-0.16681 l -2.75246,0 q 0.0348,-0.60819 0.34405,-0.93139 0.30931,-0.32321 0.77153,-0.32321 0.34405,0 0.58733,0.18072 0.24327,0.18072 0.38576,0.5769 z m -2.05392,1.01133 2.06087,0 q -0.0417,0.46569 -0.23632,0.69854 -0.29888,0.36143 -0.775,0.36143 -0.43094,0 -0.72634,-0.28845 -0.29193,-0.28845 -0.32321,-0.77152 z" /><path
       inkscape:connector-curvature="0"
       id="path186"
       style="fill:none;stroke:#000000;stroke-width:0.89997995;stroke-linecap:butt;stroke-linejoin:miter;stroke-miterlimit:4;stroke-dasharray:none;stroke-opacity:1"
       d="m 219.8,143.25 c -13.45,-0.25 -8.5,46.05 -16.25,45.8 -7.75,-0.3 -2.95,-22.45 -12.8,-22.45 -9.9,0 -1.75,16.15 -13.9,16.15 -12.15,0 -6.4,-25.6 -21.6,-25.6" /></g></svg>