<?xml version="1.0" encoding="UTF-8" standalone="no"?>
<!-- Created with Inkscape (http://www.inkscape.org/) -->

<svg
   xmlns:dc="http://purl.org/dc/elements/1.1/"
   xmlns:cc="http://creativecommons.org/ns#"
   xmlns:rdf="http://www.w3.org/1999/02/22-rdf-syntax-ns#"
   xmlns:svg="http://www.w3.org/2000/svg"
   xmlns="http://www.w3.org/2000/svg"
   xmlns:sodipodi="http://sodipodi.sourceforge.net/DTD/sodipodi-0.dtd"
   xmlns:inkscape="http://www.inkscape.org/namespaces/inkscape"
   id="svg2"
   version="1.1"
   inkscape:version="0.91 r13725"
   xml:space="preserve"
   width="122.93102"
   height="122.85859"
   viewBox="0 0 122.93102 122.85859"
   sodipodi:docname="3.svg"><metadata
     id="metadata8"><rdf:RDF><cc:Work
         rdf:about=""><dc:format>image/svg+xml</dc:format><dc:type
           rdf:resource="http://purl.org/dc/dcmitype/StillImage" /><dc:title></dc:title></cc:Work></rdf:RDF></metadata><defs
     id="defs6" /><sodipodi:namedview
     pagecolor="#ffffff"
     bordercolor="#666666"
     borderopacity="1"
     objecttolerance="10"
     gridtolerance="10"
     guidetolerance="10"
     inkscape:pageopacity="0"
     inkscape:pageshadow="2"
     inkscape:window-width="1500"
     inkscape:window-height="937"
     id="namedview4"
     showgrid="false"
     inkscape:zoom="1.9140037"
     inkscape:cx="179.00736"
     inkscape:cy="87.34443"
     inkscape:window-x="-8"
     inkscape:window-y="1192"
     inkscape:window-maximized="1"
     inkscape:current-layer="g10" /><g
     id="g10"
     inkscape:groupmode="layer"
     inkscape:label="ink_ext_XXXXXX"
     transform="matrix(1.25,0,0,-1.25,-15.131464,127.62499)"><path
       inkscape:connector-curvature="0"
       id="path122"
       style="fill:none;stroke:#000000;stroke-width:0.89997995;stroke-linecap:butt;stroke-linejoin:miter;stroke-miterlimit:4;stroke-dasharray:none;stroke-opacity:1"
       d="M 96,27.4 C 75.3,26.75 83.45,82.5 66.9,81.3 50.35,80.1 59,41.8 36.7,42.5" /><path
       inkscape:connector-curvature="0"
       id="path146"
       style="fill:none;stroke:#000000;stroke-width:0.89997995;stroke-linecap:butt;stroke-linejoin:miter;stroke-miterlimit:4;stroke-dasharray:none;stroke-opacity:1"
       d="m 23.9,15.55 0,86.1 86.1,0 0,-86.1 -86.1,0" /><path
       inkscape:connector-curvature="0"
       id="path148"
       style="fill:none;stroke:#000000;stroke-width:0.69999999;stroke-linecap:butt;stroke-linejoin:miter;stroke-miterlimit:4;stroke-dasharray:none;stroke-opacity:1"
       d="m 95.25,11.95 -65.3,0" /><path
       inkscape:connector-curvature="0"
       id="path150"
       style="fill:#000000;fill-opacity:1;fill-rule:nonzero;stroke:none"
       d="m 103.1,11.95 -9,2.35 c 0,0 1.1,-1.35 1.1,-2.35 0,-1.05 -1.1,-2.3 -1.1,-2.3 l 9,2.3 0,0" /><path
       inkscape:connector-curvature="0"
       id="path152"
       style="fill:none;stroke:#000000;stroke-width:0.69999999;stroke-linecap:butt;stroke-linejoin:miter;stroke-miterlimit:4;stroke-dasharray:none;stroke-opacity:1"
       d="m 20.85,76.35 0,-42.95" /><path
       inkscape:connector-curvature="0"
       id="path154"
       style="fill:#000000;fill-opacity:1;fill-rule:nonzero;stroke:none"
       d="m 20.85,84.15 -2.35,-9 c 0,0 1.35,1.15 2.35,1.15 1.05,0 2.3,-1.15 2.3,-1.15 l -2.3,9 0,0" /><path
       inkscape:connector-curvature="0"
       id="path4697"
       style="font-variant:normal;font-weight:normal;font-size:medium;font-family:Helvetica;-inkscape-font-specification:Helvetica;writing-mode:lr-tb;fill:#000000;fill-opacity:1;fill-rule:nonzero;stroke:none"
       d="m 17.200001,46.313003 -5.09483,0 0,3.683847 0.601232,0 0,-3.009634 1.560422,0 0,2.818491 0.597756,0 0,-2.818491 1.734188,0 0,3.127795 0.601232,0 0,-3.802008 z" /><path
       inkscape:connector-curvature="0"
       id="path4699"
       style="font-variant:normal;font-weight:normal;font-size:medium;font-family:Helvetica;-inkscape-font-specification:Helvetica;writing-mode:lr-tb;fill:#000000;fill-opacity:1;fill-rule:nonzero;stroke:none"
       d="m 17.200001,50.966522 -3.690798,0 0,0.563003 0.524775,0 q -0.608182,0.406613 -0.608182,1.17466 0,0.333632 0.121636,0.611658 0.118161,0.281501 0.312779,0.420514 0.194619,0.139013 0.462219,0.194619 0.173766,0.03475 0.608182,0.03475 l 2.269389,0 0,-0.625559 -2.245062,0 q -0.382285,0 -0.569953,-0.07298 -0.191143,-0.07298 -0.302354,-0.260649 -0.114685,-0.184193 -0.114685,-0.434416 0,-0.399663 0.253698,-0.69159 0.253699,-0.288452 0.962666,-0.288452 l 2.01569,0 0,-0.625559 z" /><path
       inkscape:connector-curvature="0"
       id="path4701"
       style="font-variant:normal;font-weight:normal;font-size:medium;font-family:Helvetica;-inkscape-font-specification:Helvetica;writing-mode:lr-tb;fill:#000000;fill-opacity:1;fill-rule:nonzero;stroke:none"
       d="m 16.011439,57.450398 0.07993,0.646411 q 0.566479,-0.152915 0.879258,-0.566478 0.31278,-0.413564 0.31278,-1.0565 0,-0.809751 -0.496972,-1.285871 -0.500447,-0.472644 -1.400557,-0.472644 -0.931388,0 -1.445736,0.479595 -0.514348,0.479595 -0.514348,1.244167 0,0.740245 0.503922,1.209414 0.503922,0.469169 1.417933,0.469169 0.05561,0 0.166816,-0.0035 l 0,-2.75246 q 0.608182,0.03475 0.931388,0.344058 0.323205,0.309304 0.323205,0.771522 0,0.344058 -0.180717,0.587331 -0.180717,0.243273 -0.576904,0.385761 z m -1.01132,-2.053918 0,2.060869 q -0.465694,-0.0417 -0.698541,-0.236323 -0.361434,-0.298878 -0.361434,-0.774997 0,-0.430941 0.288452,-0.726344 0.288452,-0.291927 0.771523,-0.323205 z" /><path
       inkscape:connector-curvature="0"
       id="path4703"
       style="font-variant:normal;font-weight:normal;font-size:medium;font-family:Helvetica;-inkscape-font-specification:Helvetica;writing-mode:lr-tb;fill:#000000;fill-opacity:1;fill-rule:nonzero;stroke:none"
       d="m 17.200001,58.874198 -3.690798,0 0,0.563003 0.559528,0 q -0.392712,0.21547 -0.517824,0.396187 -0.125111,0.184193 -0.125111,0.403138 0,0.316255 0.201569,0.642936 l 0.580379,-0.21547 q -0.135538,-0.229372 -0.135538,-0.458744 0,-0.205044 0.125112,-0.368384 0.121637,-0.163341 0.340582,-0.232847 0.333632,-0.10426 0.729819,-0.10426 l 1.932282,0 0,-0.625559 z" /><path
       inkscape:connector-curvature="0"
       id="path4705"
       style="font-variant:normal;font-weight:normal;font-size:medium;font-family:Helvetica;-inkscape-font-specification:Helvetica;writing-mode:lr-tb;fill:#000000;fill-opacity:1;fill-rule:nonzero;stroke:none"
       d="m 17.50583,61.13658 0.09036,0.608182 q 0.281502,0.03823 0.410089,0.211995 0.173766,0.232847 0.173766,0.635985 0,0.434416 -0.173766,0.670738 -0.173767,0.236323 -0.486546,0.31973 -0.191143,0.04865 -0.802801,0.04518 0.483071,-0.410089 0.483071,-1.021746 0,-0.761097 -0.549102,-1.178136 -0.549102,-0.41704 -1.317149,-0.41704 -0.52825,0 -0.973091,0.191143 -0.448318,0.191143 -0.691591,0.552577 -0.243272,0.36491 -0.243272,0.854931 0,0.653361 0.528249,1.077351 l -0.444842,0 0,0.576905 3.190351,0 q 0.861881,0 1.219839,-0.177242 0.361434,-0.173766 0.569954,-0.556052 0.20852,-0.378811 0.20852,-0.934863 0,-0.660313 -0.298878,-1.066926 -0.295403,-0.406613 -0.893159,-0.392712 z m -2.217259,0.517824 q 0.726343,0 1.059975,0.288452 0.333631,0.288452 0.333631,0.722868 0,0.430941 -0.330156,0.722868 -0.333631,0.291928 -1.042598,0.291928 -0.677689,0 -1.021746,-0.302354 -0.344058,-0.298878 -0.344058,-0.722868 0,-0.417039 0.340582,-0.708967 0.337107,-0.291927 1.00437,-0.291927 z" /><path
       inkscape:connector-curvature="0"
       id="path4707"
       style="font-variant:normal;font-weight:normal;font-size:medium;font-family:Helvetica;-inkscape-font-specification:Helvetica;writing-mode:lr-tb;fill:#000000;fill-opacity:1;fill-rule:nonzero;stroke:none"
       d="m 18.62141,65.180777 -0.587331,-0.06951 q 0.0556,0.205045 0.0556,0.357959 0,0.20852 -0.06951,0.333631 -0.06951,0.125112 -0.194618,0.205045 -0.09383,0.05908 -0.465694,0.191143 -0.05213,0.01738 -0.152915,0.0556 l -3.697748,-1.400557 0,0.674214 2.137327,0.768047 q 0.406613,0.149439 0.85493,0.2676 -0.430941,0.107735 -0.841029,0.257174 l -2.151228,0.7889 0,0.625558 3.753354,-1.404032 q 0.608182,-0.225896 0.837553,-0.351008 0.309305,-0.166815 0.451793,-0.382286 0.145964,-0.21547 0.145964,-0.514348 0,-0.180717 -0.07646,-0.403138 z" /><path
       inkscape:connector-curvature="0"
       id="path4660"
       style="font-variant:normal;font-weight:normal;font-size:medium;font-family:Helvetica;-inkscape-font-specification:Helvetica;writing-mode:lr-tb;fill:#000000;fill-opacity:1;fill-rule:nonzero;stroke:none"
       d="m 32.509528,3.9000001 0,5.0948294 2.258963,0 q 0.681164,0 1.035647,-0.139013 0.354484,-0.1355378 0.566479,-0.4830705 0.211995,-0.3475327 0.211995,-0.7680473 0,-0.542151 -0.351008,-0.914011 -0.351008,-0.37186 -1.084302,-0.4726445 0.2676,-0.1285871 0.406613,-0.2536988 0.295403,-0.2710755 0.559528,-0.6776888 l 0.886208,-1.3866555 -0.84798,0 -0.674213,1.0599747 Q 35.182055,5.418718 34.990912,5.6619909 34.799769,5.9052638 34.646855,6.002573 34.497415,6.0998821 34.341026,6.1381107 34.22634,6.162438 33.96569,6.162438 l -0.781948,0 0,-2.2624379 -0.674214,0 z m 0.674214,2.8462928 1.449211,0 q 0.462219,0 0.722868,0.093834 0.26065,0.097309 0.396188,0.3058288 0.135537,0.2119949 0.135537,0.4587431 0,0.361434 -0.264125,0.5942809 -0.260649,0.232847 -0.827127,0.232847 l -1.612552,0 0,-1.6855337 z" /><path
       inkscape:connector-curvature="0"
       id="path4662"
       style="font-variant:normal;font-weight:normal;font-size:medium;font-family:Helvetica;-inkscape-font-specification:Helvetica;writing-mode:lr-tb;fill:#000000;fill-opacity:1;fill-rule:nonzero;stroke:none"
       d="m 40.084546,5.0885619 0.646411,-0.079932 Q 40.578042,4.4421516 40.164478,4.1293722 39.750914,3.8165927 39.107979,3.8165927 q -0.809751,0 -1.285871,0.4969718 -0.472645,0.5004471 -0.472645,1.4005568 0,0.9313877 0.479595,1.4457361 0.479596,0.5143484 1.244168,0.5143484 0.740244,0 1.209413,-0.5039225 0.469169,-0.5039224 0.469169,-1.4179334 0,-0.055605 -0.0035,-0.1668157 l -2.752459,0 q 0.03475,-0.6081822 0.344058,-0.9313876 0.309304,-0.3232055 0.771522,-0.3232055 0.344057,0 0.58733,0.1807171 0.243273,0.180717 0.385762,0.5769042 z m -2.053919,1.0113202 2.060869,0 q -0.0417,0.4656938 -0.236322,0.6985408 -0.298878,0.361434 -0.774998,0.361434 -0.43094,0 -0.726343,-0.2884522 -0.291928,-0.2884521 -0.323206,-0.7715226 z" /><path
       inkscape:connector-curvature="0"
       id="path4664"
       style="font-variant:normal;font-weight:normal;font-size:medium;font-family:Helvetica;-inkscape-font-specification:Helvetica;writing-mode:lr-tb;fill:#000000;fill-opacity:1;fill-rule:nonzero;stroke:none"
       d="M 43.923698,4.3552679 Q 43.576165,4.0598651 43.25296,3.9382287 42.93323,3.8165922 42.564845,3.8165922 q -0.608182,0 -0.934863,0.2954028 -0.32668,0.2988782 -0.32668,0.7610967 0,0.2710755 0.121636,0.4934964 0.125112,0.2258963 0.323205,0.361434 0.201569,0.1355378 0.451793,0.2050443 0.184192,0.048655 0.556052,0.093834 0.757622,0.090358 1.11558,0.2154703 0.0035,0.1285871 0.0035,0.1633404 0,0.382286 -0.177242,0.5386757 -0.239798,0.2119949 -0.712442,0.2119949 -0.441367,0 -0.653362,-0.1563897 -0.208519,-0.1529144 -0.309304,-0.5456263 l -0.611657,0.083408 q 0.08341,0.392712 0.27455,0.6325095 0.191143,0.2432729 0.552577,0.37186 0.361435,0.1320625 0.837554,0.1320625 0.472645,0 0.768048,-0.1112105 0.295402,-0.1112105 0.434415,-0.2815015 0.139014,-0.1668157 0.194619,-0.4239899 0.03128,-0.159865 0.03128,-0.5769043 l 0,-0.8340785 q 0,-0.8723071 0.03823,-1.105154 0.0417,-0.2293716 0.159865,-0.4413665 l -0.653361,0 q -0.09731,0.1946183 -0.125112,0.4552678 z m -0.05213,1.3970815 Q 43.530986,5.6133363 42.849822,5.5160272 42.464061,5.4604222 42.304196,5.3909154 42.144331,5.3214084 42.057447,5.1858711 q -0.08688,-0.1320624 -0.08688,-0.2954028 0,-0.2502235 0.187668,-0.4170392 0.191143,-0.1668157 0.556052,-0.1668157 0.361434,0 0.642936,0.1563897 0.281501,0.159865 0.413564,0.4344159 0.100784,0.2119949 0.100784,0.6255588 l 0,0.2293716 z" /><path
       inkscape:connector-curvature="0"
       id="path4666"
       style="font-variant:normal;font-weight:normal;font-size:medium;font-family:Helvetica;-inkscape-font-specification:Helvetica;writing-mode:lr-tb;fill:#000000;fill-opacity:1;fill-rule:nonzero;stroke:none"
       d="m 47.881012,5.2519023 0.615133,-0.079932 Q 48.39536,4.5359854 47.978321,4.1745514 47.564757,3.8165927 46.96005,3.8165927 q -0.757621,0 -1.21984,0.4934965 -0.458743,0.4969718 -0.458743,1.4214087 0,0.5977563 0.198094,1.0460735 0.198093,0.4483172 0.601231,0.6707381 0.406614,0.2258963 0.882733,0.2258963 0.601232,0 0.983518,-0.3058288 0.382286,-0.3023535 0.490021,-0.8618811 l -0.608182,-0.093834 q -0.08688,0.37186 -0.309304,0.5595277 -0.218946,0.1876677 -0.531725,0.1876677 -0.472645,0 -0.768048,-0.3405821 -0.295402,-0.3371067 -0.295402,-1.0704007 0,-0.74372 0.284976,-1.0808267 0.284977,-0.3371068 0.74372,-0.3371068 0.368385,0 0.615133,0.2258963 0.246748,0.2258963 0.31278,0.6950654 z" /><path
       inkscape:connector-curvature="0"
       id="path4668"
       style="font-variant:normal;font-weight:normal;font-size:medium;font-family:Helvetica;-inkscape-font-specification:Helvetica;writing-mode:lr-tb;fill:#000000;fill-opacity:1;fill-rule:nonzero;stroke:none"
       d="m 50.397148,4.4595277 0.09036,-0.552577 q -0.264125,-0.055605 -0.472645,-0.055605 -0.340582,0 -0.528249,0.1077352 -0.187668,0.1077351 -0.264125,0.2815014 -0.07646,0.1772417 -0.07646,0.7402447 l 0,2.1234248 -0.458743,0 0,0.4865458 0.458743,0 0,0.914011 0.622083,0.3753354 0,-1.2893464 0.629034,0 0,-0.4865458 -0.629034,0 0,-2.1581781 q 0,-0.2676001 0.03128,-0.3440573 0.03475,-0.076457 0.107735,-0.1216365 0.07646,-0.045179 0.215471,-0.045179 0.104259,0 0.27455,0.024327 z" /><path
       inkscape:connector-curvature="0"
       id="path4670"
       style="font-variant:normal;font-weight:normal;font-size:medium;font-family:Helvetica;-inkscape-font-specification:Helvetica;writing-mode:lr-tb;fill:#000000;fill-opacity:1;fill-rule:nonzero;stroke:none"
       d="m 51.013477,8.2754368 0,0.7193927 0.625559,0 0,-0.7193927 -0.625559,0 z m 0,-4.3754367 0,3.6907973 0.625559,0 0,-3.6907973 -0.625559,0 z" /><path
       inkscape:connector-curvature="0"
       id="path4672"
       style="font-variant:normal;font-weight:normal;font-size:medium;font-family:Helvetica;-inkscape-font-specification:Helvetica;writing-mode:lr-tb;fill:#000000;fill-opacity:1;fill-rule:nonzero;stroke:none"
       d="m 52.357233,5.7453988 q 0,1.0252214 0.569954,1.5187179 0.476119,0.4100886 1.160759,0.4100886 0.761096,0 1.244167,-0.5004471 0.48307,-0.4969718 0.48307,-1.3762295 0,-0.7124421 -0.21547,-1.1225307 -0.211995,-0.4066132 -0.622084,-0.6325095 -0.406613,-0.2258963 -0.889683,-0.2258963 -0.774998,0 -1.254593,0.4969718 -0.47612,0.4969718 -0.47612,1.4318348 z m 0.642935,0 q 0,-0.7089668 0.309304,-1.0634501 0.309305,-0.3510081 0.778474,-0.3510081 0.465694,0 0.774998,0.3544834 0.309304,0.3544834 0.309304,1.0808267 0,0.6846394 -0.31278,1.0356475 -0.309304,0.3544833 -0.771522,0.3544833 -0.469169,0 -0.778474,-0.351008 -0.309304,-0.351008 -0.309304,-1.0599747 z" /><path
       inkscape:connector-curvature="0"
       id="path4674"
       style="font-variant:normal;font-weight:normal;font-size:medium;font-family:Helvetica;-inkscape-font-specification:Helvetica;writing-mode:lr-tb;fill:#000000;fill-opacity:1;fill-rule:nonzero;stroke:none"
       d="m 56.547393,3.9000001 0,3.6907973 0.563003,0 0,-0.5247744 q 0.406614,0.6081823 1.174661,0.6081823 0.333631,0 0.611657,-0.1216365 0.281502,-0.1181611 0.420515,-0.3127794 0.139013,-0.1946183 0.194618,-0.4622185 0.03475,-0.1737664 0.03475,-0.6081822 l 0,-2.2693886 -0.625559,0 0,2.2450613 q 0,0.3822859 -0.07298,0.5699536 -0.07298,0.191143 -0.26065,0.3023535 -0.184192,0.1146857 -0.434416,0.1146857 -0.399662,0 -0.69159,-0.2536988 Q 57.17295,6.6246565 57.17295,5.9156898 l 0,-2.0156897 -0.625559,0 z" /><path
       inkscape:connector-curvature="0"
       id="path4676"
       style="font-variant:normal;font-weight:normal;font-size:medium;font-family:Helvetica;-inkscape-font-specification:Helvetica;writing-mode:lr-tb;fill:#000000;fill-opacity:1;fill-rule:nonzero;stroke:none"
       d="m 66.198488,5.6863182 0.674214,-0.170291 Q 66.660707,4.685424 66.10813,4.2475328 65.559028,3.8131169 64.763178,3.8131169 q -0.823652,0 -1.341476,0.3336314 -0.514348,0.3371067 -0.785424,0.9730916 -0.2676,0.6359848 -0.2676,1.3658035 0,0.7958499 0.302353,1.3866555 0.305829,0.5942809 0.865357,0.9001097 0.563003,0.3093041 1.237216,0.3093041 0.764572,0 1.285871,-0.3892366 0.521299,-0.3892366 0.726344,-1.094728 L 66.122031,7.4413584 q -0.177242,0.5560523 -0.514348,0.8097512 -0.337107,0.2536988 -0.84798,0.2536988 -0.58733,0 -0.983518,-0.2815015 -0.392712,-0.2815015 -0.552577,-0.7576213 -0.159865,-0.4726444 -0.159865,-0.9765669 0,-0.6498861 0.187668,-1.1364319 0.191143,-0.4830705 0.590806,-0.722868 0.399662,-0.2397976 0.865356,-0.2397976 0.566478,0 0.95919,0.3266808 0.392712,0.3266807 0.531725,0.9696162 z" /><path
       inkscape:connector-curvature="0"
       id="path4678"
       style="font-variant:normal;font-weight:normal;font-size:medium;font-family:Helvetica;-inkscape-font-specification:Helvetica;writing-mode:lr-tb;fill:#000000;fill-opacity:1;fill-rule:nonzero;stroke:none"
       d="m 67.38933,5.7453988 q 0,1.0252214 0.569953,1.5187179 0.47612,0.4100886 1.16076,0.4100886 0.761096,0 1.244167,-0.5004471 0.48307,-0.4969718 0.48307,-1.3762295 0,-0.7124421 -0.21547,-1.1225307 -0.211995,-0.4066132 -0.622084,-0.6325095 -0.406613,-0.2258963 -0.889683,-0.2258963 -0.774998,0 -1.254593,0.4969718 -0.47612,0.4969718 -0.47612,1.4318348 z m 0.642935,0 q 0,-0.7089668 0.309304,-1.0634501 0.309304,-0.3510081 0.778474,-0.3510081 0.465693,0 0.774998,0.3544834 0.309304,0.3544834 0.309304,1.0808267 0,0.6846394 -0.31278,1.0356475 -0.309304,0.3544833 -0.771522,0.3544833 -0.46917,0 -0.778474,-0.351008 -0.309304,-0.351008 -0.309304,-1.0599747 z" /><path
       inkscape:connector-curvature="0"
       id="path4680"
       style="font-variant:normal;font-weight:normal;font-size:medium;font-family:Helvetica;-inkscape-font-specification:Helvetica;writing-mode:lr-tb;fill:#000000;fill-opacity:1;fill-rule:nonzero;stroke:none"
       d="m 71.346643,5.7453988 q 0,1.0252214 0.569954,1.5187179 0.47612,0.4100886 1.160759,0.4100886 0.761097,0 1.244167,-0.5004471 0.483071,-0.4969718 0.483071,-1.3762295 0,-0.7124421 -0.215471,-1.1225307 Q 74.377128,4.2683848 73.96704,4.0424885 73.560427,3.8165922 73.077356,3.8165922 q -0.774998,0 -1.254593,0.4969718 -0.47612,0.4969718 -0.47612,1.4318348 z m 0.642936,0 q 0,-0.7089668 0.309304,-1.0634501 0.309304,-0.3510081 0.778473,-0.3510081 0.465694,0 0.774998,0.3544834 0.309304,0.3544834 0.309304,1.0808267 0,0.6846394 -0.312779,1.0356475 -0.309304,0.3544833 -0.771523,0.3544833 -0.469169,0 -0.778473,-0.351008 -0.309304,-0.351008 -0.309304,-1.0599747 z" /><path
       inkscape:connector-curvature="0"
       id="path4682"
       style="font-variant:normal;font-weight:normal;font-size:medium;font-family:Helvetica;-inkscape-font-specification:Helvetica;writing-mode:lr-tb;fill:#000000;fill-opacity:1;fill-rule:nonzero;stroke:none"
       d="m 75.529853,3.9000001 0,3.6907973 0.563003,0 0,-0.5595276 q 0.21547,0.3927119 0.396187,0.5178237 0.184193,0.1251118 0.403138,0.1251118 0.316255,0 0.642936,-0.201569 l -0.21547,-0.5803796 q -0.229372,0.1355377 -0.458744,0.1355377 -0.205044,0 -0.368384,-0.1251117 -0.163341,-0.1216365 -0.232847,-0.3405821 -0.10426,-0.3336314 -0.10426,-0.7298187 l 0,-1.9322818 -0.625559,0 z" /><path
       inkscape:connector-curvature="0"
       id="path4684"
       style="font-variant:normal;font-weight:normal;font-size:medium;font-family:Helvetica;-inkscape-font-specification:Helvetica;writing-mode:lr-tb;fill:#000000;fill-opacity:1;fill-rule:nonzero;stroke:none"
       d="m 80.301421,3.9000001 0,0.4656938 q -0.351008,-0.5491017 -1.032172,-0.5491017 -0.441366,0 -0.813226,0.2432729 -0.368385,0.2432729 -0.573429,0.6776888 -0.201569,0.4378912 -0.201569,1.0043695 0,0.552577 0.184192,1.0008942 0.184192,0.4517925 0.552577,0.6915901 0.368385,0.2397976 0.823653,0.2397976 0.333631,0 0.59428,-0.1424884 0.26065,-0.1390131 0.42399,-0.3649094 l 0,1.828022 0.622084,0 0,-5.0948294 -0.58038,0 z M 78.32396,5.7419234 q 0,-0.7089667 0.298878,-1.0599747 0.298878,-0.3510081 0.705492,-0.3510081 0.410088,0 0.695065,0.3336314 0.288452,0.3371068 0.288452,1.0252215 0,0.7576213 -0.291927,1.1121047 -0.291928,0.3544833 -0.719393,0.3544833 -0.417039,0 -0.698541,-0.340582 Q 78.32396,6.4752174 78.32396,5.7419234 Z" /><path
       inkscape:connector-curvature="0"
       id="path4686"
       style="font-variant:normal;font-weight:normal;font-size:medium;font-family:Helvetica;-inkscape-font-specification:Helvetica;writing-mode:lr-tb;fill:#000000;fill-opacity:1;fill-rule:nonzero;stroke:none"
       d="m 81.86771,8.2754368 0,0.7193927 0.625559,0 0,-0.7193927 -0.625559,0 z m 0,-4.3754367 0,3.6907973 0.625559,0 0,-3.6907973 -0.625559,0 z" /><path
       inkscape:connector-curvature="0"
       id="path4688"
       style="font-variant:normal;font-weight:normal;font-size:medium;font-family:Helvetica;-inkscape-font-specification:Helvetica;writing-mode:lr-tb;fill:#000000;fill-opacity:1;fill-rule:nonzero;stroke:none"
       d="m 83.444313,3.9000001 0,3.6907973 0.563003,0 0,-0.5247744 q 0.406613,0.6081823 1.17466,0.6081823 0.333632,0 0.611658,-0.1216365 0.281501,-0.1181611 0.420514,-0.3127794 0.139013,-0.1946183 0.194619,-0.4622185 0.03475,-0.1737664 0.03475,-0.6081822 l 0,-2.2693886 -0.625559,0 0,2.2450613 q 0,0.3822859 -0.07298,0.5699536 -0.07298,0.191143 -0.260649,0.3023535 -0.184193,0.1146857 -0.434416,0.1146857 -0.399663,0 -0.69159,-0.2536988 Q 84.06987,6.6246565 84.06987,5.9156898 l 0,-2.0156897 -0.625558,0 z" /><path
       inkscape:connector-curvature="0"
       id="path4690"
       style="font-variant:normal;font-weight:normal;font-size:medium;font-family:Helvetica;-inkscape-font-specification:Helvetica;writing-mode:lr-tb;fill:#000000;fill-opacity:1;fill-rule:nonzero;stroke:none"
       d="M 89.810028,4.3552679 Q 89.462495,4.0598651 89.13929,3.9382287 88.81956,3.8165922 88.451175,3.8165922 q -0.608182,0 -0.934863,0.2954028 -0.326681,0.2988782 -0.326681,0.7610967 0,0.2710755 0.121637,0.4934964 0.125111,0.2258963 0.323205,0.361434 0.201569,0.1355378 0.451793,0.2050443 0.184192,0.048655 0.556052,0.093834 0.757621,0.090358 1.11558,0.2154703 0.0035,0.1285871 0.0035,0.1633404 0,0.382286 -0.177241,0.5386757 -0.239798,0.2119949 -0.712443,0.2119949 -0.441366,0 -0.653361,-0.1563897 -0.20852,-0.1529144 -0.309304,-0.5456263 l -0.611658,0.083408 q 0.08341,0.392712 0.274551,0.6325095 0.191143,0.2432729 0.552577,0.37186 0.361434,0.1320625 0.837554,0.1320625 0.472644,0 0.768047,-0.1112105 0.295403,-0.1112105 0.434416,-0.2815015 0.139013,-0.1668157 0.194618,-0.4239899 0.03128,-0.159865 0.03128,-0.5769043 l 0,-0.8340785 q 0,-0.8723071 0.03823,-1.105154 0.0417,-0.2293716 0.159865,-0.4413665 l -0.653361,0 q -0.09731,0.1946183 -0.125112,0.4552678 z m -0.05213,1.3970815 Q 89.417316,5.6133363 88.736152,5.5160272 88.35039,5.4604222 88.190525,5.3909154 88.03066,5.3214084 87.943777,5.1858711 q -0.08688,-0.1320624 -0.08688,-0.2954028 0,-0.2502235 0.187668,-0.4170392 0.191143,-0.1668157 0.556052,-0.1668157 0.361434,0 0.642935,0.1563897 0.281502,0.159865 0.413564,0.4344159 0.100785,0.2119949 0.100785,0.6255588 l 0,0.2293716 z" /><path
       inkscape:connector-curvature="0"
       id="path4692"
       style="font-variant:normal;font-weight:normal;font-size:medium;font-family:Helvetica;-inkscape-font-specification:Helvetica;writing-mode:lr-tb;fill:#000000;fill-opacity:1;fill-rule:nonzero;stroke:none"
       d="m 92.724743,4.4595277 0.09036,-0.552577 q -0.264125,-0.055605 -0.472645,-0.055605 -0.340582,0 -0.528249,0.1077352 -0.187668,0.1077351 -0.264125,0.2815014 -0.07646,0.1772417 -0.07646,0.7402447 l 0,2.1234248 -0.458743,0 0,0.4865458 0.458743,0 0,0.914011 0.622084,0.3753354 0,-1.2893464 0.629034,0 0,-0.4865458 -0.629034,0 0,-2.1581781 q 0,-0.2676001 0.03128,-0.3440573 0.03475,-0.076457 0.107735,-0.1216365 0.07646,-0.045179 0.21547,-0.045179 0.10426,0 0.274551,0.024327 z" /><path
       inkscape:connector-curvature="0"
       id="path4694"
       style="font-variant:normal;font-weight:normal;font-size:medium;font-family:Helvetica;-inkscape-font-specification:Helvetica;writing-mode:lr-tb;fill:#000000;fill-opacity:1;fill-rule:nonzero;stroke:none"
       d="m 95.864155,5.0885619 0.646411,-0.079932 q -0.152914,-0.5664783 -0.566478,-0.8792577 -0.413564,-0.3127795 -1.0565,-0.3127795 -0.809751,0 -1.285871,0.4969718 -0.472644,0.5004471 -0.472644,1.4005568 0,0.9313877 0.479595,1.4457361 0.479595,0.5143484 1.244167,0.5143484 0.740245,0 1.209414,-0.5039225 0.469169,-0.5039224 0.469169,-1.4179334 0,-0.055605 -0.0035,-0.1668157 l -2.752459,0 q 0.03475,-0.6081822 0.344057,-0.9313876 0.309304,-0.3232055 0.771523,-0.3232055 0.344057,0 0.58733,0.1807171 0.243273,0.180717 0.385761,0.5769042 z m -2.053918,1.0113202 2.060869,0 q -0.0417,0.4656938 -0.236322,0.6985408 -0.298878,0.361434 -0.774998,0.361434 -0.430941,0 -0.726343,-0.2884522 -0.291928,-0.2884521 -0.323206,-0.7715226 z" /></g></svg>