<?xml version="1.0" encoding="UTF-8" standalone="no"?>
<!-- Created with Inkscape (http://www.inkscape.org/) -->

<svg
   xmlns:dc="http://purl.org/dc/elements/1.1/"
   xmlns:cc="http://creativecommons.org/ns#"
   xmlns:rdf="http://www.w3.org/1999/02/22-rdf-syntax-ns#"
   xmlns:svg="http://www.w3.org/2000/svg"
   xmlns="http://www.w3.org/2000/svg"
   xmlns:sodipodi="http://sodipodi.sourceforge.net/DTD/sodipodi-0.dtd"
   xmlns:inkscape="http://www.inkscape.org/namespaces/inkscape"
   id="svg2"
   version="1.1"
   inkscape:version="0.91 r13725"
   xml:space="preserve"
   width="122.93102"
   height="122.79609"
   viewBox="0 0 122.93102 122.79609"
   sodipodi:docname="4.svg"><metadata
     id="metadata8"><rdf:RDF><cc:Work
         rdf:about=""><dc:format>image/svg+xml</dc:format><dc:type
           rdf:resource="http://purl.org/dc/dcmitype/StillImage" /><dc:title></dc:title></cc:Work></rdf:RDF></metadata><defs
     id="defs6" /><sodipodi:namedview
     pagecolor="#ffffff"
     bordercolor="#666666"
     borderopacity="1"
     objecttolerance="10"
     gridtolerance="10"
     guidetolerance="10"
     inkscape:pageopacity="0"
     inkscape:pageshadow="2"
     inkscape:window-width="1500"
     inkscape:window-height="937"
     id="namedview4"
     showgrid="false"
     inkscape:zoom="1.9140037"
     inkscape:cx="-116.35795"
     inkscape:cy="141.75744"
     inkscape:window-x="-8"
     inkscape:window-y="1192"
     inkscape:window-maximized="1"
     inkscape:current-layer="g10" /><g
     id="g10"
     inkscape:groupmode="layer"
     inkscape:label="ink_ext_XXXXXX"
     transform="matrix(1.25,0,0,-1.25,-165.56896,126.93749)"><path
       inkscape:connector-curvature="0"
       id="path144"
       style="fill:none;stroke:#000000;stroke-width:0.89997995;stroke-linecap:butt;stroke-linejoin:miter;stroke-miterlimit:4;stroke-dasharray:none;stroke-opacity:1"
       d="m 223.65,24.75 c -13.2,0 -12.95,45.65 -20.15,45.65 -7.2,0 -5.9,-3.9 -12.4,-3.9 -6.55,0 -5.9,10.4 -12.15,10.4 -6.3,0 -3.35,-25.6 -25.65,-24.95" /><path
       inkscape:connector-curvature="0"
       id="path166"
       style="fill:none;stroke:#000000;stroke-width:0.89997995;stroke-linecap:butt;stroke-linejoin:miter;stroke-miterlimit:4;stroke-dasharray:none;stroke-opacity:1"
       d="m 144.25,15 0,86.1 86.1,0 0,-86.1 -86.1,0" /><path
       inkscape:connector-curvature="0"
       id="path168"
       style="fill:none;stroke:#000000;stroke-width:0.69999999;stroke-linecap:butt;stroke-linejoin:miter;stroke-miterlimit:4;stroke-dasharray:none;stroke-opacity:1"
       d="m 215.6,11.4 -65.35,0" /><path
       inkscape:connector-curvature="0"
       id="path170"
       style="fill:#000000;fill-opacity:1;fill-rule:nonzero;stroke:none"
       d="m 223.4,11.4 -9,2.35 c 0,0 1.15,-1.35 1.15,-2.35 0,-1 -1.15,-2.3 -1.15,-2.3 l 9,2.3 0,0" /><path
       inkscape:connector-curvature="0"
       id="path172"
       style="fill:none;stroke:#000000;stroke-width:0.69999999;stroke-linecap:butt;stroke-linejoin:miter;stroke-miterlimit:4;stroke-dasharray:none;stroke-opacity:1"
       d="m 141.2,75.8 0,-42.9" /><path
       inkscape:connector-curvature="0"
       id="path174"
       style="fill:#000000;fill-opacity:1;fill-rule:nonzero;stroke:none"
       d="m 141.2,83.65 -2.35,-9 c 0,0 1.3,1.1 2.35,1.1 1,0 2.3,-1.1 2.3,-1.1 l -2.3,9 0,0" /><path
       inkscape:connector-curvature="0"
       id="path4747"
       style="font-variant:normal;font-weight:normal;font-size:medium;font-family:Helvetica;-inkscape-font-specification:Helvetica;writing-mode:lr-tb;fill:#000000;fill-opacity:1;fill-rule:nonzero;stroke:none"
       d="m 137.55,45.813003 -5.09483,0 0,3.683847 0.60124,0 0,-3.009634 1.56042,0 0,2.818491 0.59775,0 0,-2.818491 1.73419,0 0,3.127795 0.60123,0 0,-3.802008 z" /><path
       inkscape:connector-curvature="0"
       id="path4749"
       style="font-variant:normal;font-weight:normal;font-size:medium;font-family:Helvetica;-inkscape-font-specification:Helvetica;writing-mode:lr-tb;fill:#000000;fill-opacity:1;fill-rule:nonzero;stroke:none"
       d="m 137.55,50.466522 -3.69079,0 0,0.563003 0.52477,0 q -0.60818,0.406613 -0.60818,1.17466 0,0.333632 0.12163,0.611658 0.11817,0.281501 0.31278,0.420514 0.19462,0.139013 0.46222,0.194619 0.17377,0.03475 0.60818,0.03475 l 2.26939,0 0,-0.625559 -2.24506,0 q -0.38228,0 -0.56995,-0.07298 -0.19114,-0.07298 -0.30236,-0.260649 -0.11468,-0.184193 -0.11468,-0.434416 0,-0.399663 0.2537,-0.69159 0.2537,-0.288452 0.96266,-0.288452 l 2.01569,0 0,-0.625559 z" /><path
       inkscape:connector-curvature="0"
       id="path4751"
       style="font-variant:normal;font-weight:normal;font-size:medium;font-family:Helvetica;-inkscape-font-specification:Helvetica;writing-mode:lr-tb;fill:#000000;fill-opacity:1;fill-rule:nonzero;stroke:none"
       d="m 136.36144,56.950398 0.0799,0.646411 q 0.56648,-0.152915 0.87926,-0.566478 0.31278,-0.413564 0.31278,-1.0565 0,-0.809751 -0.49697,-1.285871 -0.50045,-0.472644 -1.40056,-0.472644 -0.93139,0 -1.44573,0.479595 -0.51435,0.479595 -0.51435,1.244167 0,0.740245 0.50392,1.209414 0.50392,0.469169 1.41793,0.469169 0.0556,0 0.16682,-0.0035 l 0,-2.75246 q 0.60818,0.03475 0.93139,0.344058 0.3232,0.309304 0.3232,0.771522 0,0.344058 -0.18071,0.587331 -0.18072,0.243273 -0.57691,0.385761 z m -1.01132,-2.053918 0,2.060869 q -0.46569,-0.0417 -0.69854,-0.236323 -0.36143,-0.298878 -0.36143,-0.774997 0,-0.430941 0.28845,-0.726344 0.28845,-0.291927 0.77152,-0.323205 z" /><path
       inkscape:connector-curvature="0"
       id="path4753"
       style="font-variant:normal;font-weight:normal;font-size:medium;font-family:Helvetica;-inkscape-font-specification:Helvetica;writing-mode:lr-tb;fill:#000000;fill-opacity:1;fill-rule:nonzero;stroke:none"
       d="m 137.55,58.374198 -3.69079,0 0,0.563003 0.55952,0 q -0.39271,0.21547 -0.51782,0.396187 -0.12511,0.184193 -0.12511,0.403138 0,0.316255 0.20157,0.642936 l 0.58038,-0.21547 q -0.13554,-0.229372 -0.13554,-0.458744 0,-0.205044 0.12511,-0.368384 0.12164,-0.163341 0.34058,-0.232847 0.33363,-0.10426 0.72982,-0.10426 l 1.93228,0 0,-0.625559 z" /><path
       inkscape:connector-curvature="0"
       id="path4755"
       style="font-variant:normal;font-weight:normal;font-size:medium;font-family:Helvetica;-inkscape-font-specification:Helvetica;writing-mode:lr-tb;fill:#000000;fill-opacity:1;fill-rule:nonzero;stroke:none"
       d="m 137.85583,60.63658 0.0904,0.608182 q 0.2815,0.03823 0.41009,0.211995 0.17377,0.232847 0.17377,0.635985 0,0.434416 -0.17377,0.670738 -0.17377,0.236323 -0.48655,0.31973 -0.19114,0.04865 -0.8028,0.04518 0.48307,-0.410089 0.48307,-1.021746 0,-0.761097 -0.5491,-1.178136 -0.5491,-0.41704 -1.31715,-0.41704 -0.52825,0 -0.97309,0.191143 -0.44832,0.191143 -0.69159,0.552577 -0.24327,0.36491 -0.24327,0.854931 0,0.653361 0.52825,1.077351 l -0.44484,0 0,0.576905 3.19035,0 q 0.86188,0 1.21984,-0.177242 0.36143,-0.173766 0.56995,-0.556052 0.20852,-0.378811 0.20852,-0.934863 0,-0.660313 -0.29888,-1.066926 -0.2954,-0.406613 -0.89316,-0.392712 z m -2.21726,0.517824 q 0.72635,0 1.05998,0.288452 0.33363,0.288452 0.33363,0.722868 0,0.430941 -0.33016,0.722868 -0.33363,0.291928 -1.04259,0.291928 -0.67769,0 -1.02175,-0.302354 -0.34406,-0.298878 -0.34406,-0.722868 0,-0.417039 0.34058,-0.708967 0.33711,-0.291927 1.00437,-0.291927 z" /><path
       inkscape:connector-curvature="0"
       id="path4757"
       style="font-variant:normal;font-weight:normal;font-size:medium;font-family:Helvetica;-inkscape-font-specification:Helvetica;writing-mode:lr-tb;fill:#000000;fill-opacity:1;fill-rule:nonzero;stroke:none"
       d="m 138.97141,64.680777 -0.58733,-0.06951 q 0.0556,0.205045 0.0556,0.357959 0,0.20852 -0.0695,0.333631 -0.0695,0.125112 -0.19462,0.205045 -0.0938,0.05908 -0.46569,0.191143 -0.0521,0.01738 -0.15292,0.0556 l -3.69774,-1.400557 0,0.674214 2.13732,0.768047 q 0.40662,0.149439 0.85493,0.2676 -0.43094,0.107735 -0.84103,0.257174 l -2.15122,0.7889 0,0.625558 3.75335,-1.404032 q 0.60818,-0.225896 0.83755,-0.351008 0.30931,-0.166815 0.4518,-0.382286 0.14596,-0.21547 0.14596,-0.514348 0,-0.180717 -0.0765,-0.403138 z" /><path
       inkscape:connector-curvature="0"
       id="path4710"
       style="font-variant:normal;font-weight:normal;font-size:medium;font-family:Helvetica;-inkscape-font-specification:Helvetica;writing-mode:lr-tb;fill:#000000;fill-opacity:1;fill-rule:nonzero;stroke:none"
       d="m 152.80953,3.4000001 0,5.0948294 2.25896,0 q 0.68116,0 1.03565,-0.139013 0.35448,-0.1355378 0.56648,-0.4830705 0.21199,-0.3475327 0.21199,-0.7680473 0,-0.542151 -0.35101,-0.914011 -0.35101,-0.37186 -1.0843,-0.4726445 0.2676,-0.1285871 0.40661,-0.2536988 0.29541,-0.2710755 0.55953,-0.6776888 l 0.88621,-1.3866555 -0.84798,0 -0.67421,1.0599747 q -0.29541,0.4587432 -0.48655,0.7020161 -0.19114,0.2432729 -0.34406,0.3405821 -0.14944,0.097309 -0.30582,0.1355377 -0.11469,0.024327 -0.37534,0.024327 l -0.78195,0 0,-2.2624379 -0.67421,0 z m 0.67421,2.8462928 1.44921,0 q 0.46222,0 0.72287,0.093834 0.26065,0.097309 0.39619,0.3058288 0.13554,0.2119949 0.13554,0.4587431 0,0.361434 -0.26413,0.5942809 -0.26065,0.232847 -0.82713,0.232847 l -1.61255,0 0,-1.6855337 z" /><path
       inkscape:connector-curvature="0"
       id="path4712"
       style="font-variant:normal;font-weight:normal;font-size:medium;font-family:Helvetica;-inkscape-font-specification:Helvetica;writing-mode:lr-tb;fill:#000000;fill-opacity:1;fill-rule:nonzero;stroke:none"
       d="m 160.38454,4.5885619 0.64641,-0.079932 q -0.15291,-0.5664783 -0.56648,-0.8792577 -0.41356,-0.3127795 -1.0565,-0.3127795 -0.80975,0 -1.28587,0.4969718 -0.47264,0.5004471 -0.47264,1.4005568 0,0.9313877 0.47959,1.4457361 0.4796,0.5143484 1.24417,0.5143484 0.74025,0 1.20941,-0.5039225 0.46917,-0.5039224 0.46917,-1.4179334 0,-0.055605 -0.003,-0.1668157 l -2.75246,0 q 0.0348,-0.6081822 0.34406,-0.9313876 0.3093,-0.3232055 0.77152,-0.3232055 0.34406,0 0.58733,0.1807171 0.24327,0.180717 0.38576,0.5769042 z m -2.05392,1.0113202 2.06087,0 q -0.0417,0.4656938 -0.23632,0.6985408 -0.29888,0.361434 -0.775,0.361434 -0.43094,0 -0.72634,-0.2884522 -0.29193,-0.2884521 -0.32321,-0.7715226 z" /><path
       inkscape:connector-curvature="0"
       id="path4714"
       style="font-variant:normal;font-weight:normal;font-size:medium;font-family:Helvetica;-inkscape-font-specification:Helvetica;writing-mode:lr-tb;fill:#000000;fill-opacity:1;fill-rule:nonzero;stroke:none"
       d="m 164.2237,3.8552679 q -0.34753,-0.2954028 -0.67074,-0.4170392 -0.31973,-0.1216365 -0.68811,-0.1216365 -0.60818,0 -0.93486,0.2954028 -0.32669,0.2988782 -0.32669,0.7610967 0,0.2710755 0.12164,0.4934964 0.12511,0.2258963 0.32321,0.361434 0.20157,0.1355378 0.45179,0.2050443 0.18419,0.048655 0.55605,0.093834 0.75762,0.090358 1.11558,0.2154703 0.003,0.1285871 0.003,0.1633404 0,0.382286 -0.17725,0.5386757 -0.23979,0.2119949 -0.71244,0.2119949 -0.44136,0 -0.65336,-0.1563897 -0.20852,-0.1529144 -0.3093,-0.5456263 l -0.61166,0.083408 q 0.0834,0.392712 0.27455,0.6325095 0.19114,0.2432729 0.55258,0.37186 0.36143,0.1320625 0.83755,0.1320625 0.47265,0 0.76805,-0.1112105 0.2954,-0.1112105 0.43441,-0.2815015 0.13902,-0.1668157 0.19462,-0.4239899 0.0313,-0.159865 0.0313,-0.5769043 l 0,-0.8340785 q 0,-0.8723071 0.0382,-1.105154 0.0417,-0.2293716 0.15986,-0.4413665 l -0.65336,0 q -0.0973,0.1946183 -0.12511,0.4552678 z m -0.0521,1.3970815 q -0.34058,-0.1390131 -1.02174,-0.2363222 -0.38577,-0.055605 -0.54563,-0.1251118 -0.15987,-0.069507 -0.24675,-0.2050443 -0.0869,-0.1320624 -0.0869,-0.2954028 0,-0.2502235 0.18767,-0.4170392 0.19114,-0.1668157 0.55605,-0.1668157 0.36143,0 0.64293,0.1563897 0.2815,0.159865 0.41357,0.4344159 0.10078,0.2119949 0.10078,0.6255588 l 0,0.2293716 z" /><path
       inkscape:connector-curvature="0"
       id="path4716"
       style="font-variant:normal;font-weight:normal;font-size:medium;font-family:Helvetica;-inkscape-font-specification:Helvetica;writing-mode:lr-tb;fill:#000000;fill-opacity:1;fill-rule:nonzero;stroke:none"
       d="m 168.18101,4.7519023 0.61513,-0.079932 q -0.10078,-0.6359849 -0.51782,-0.9974189 -0.41357,-0.3579587 -1.01827,-0.3579587 -0.75763,0 -1.21984,0.4934965 -0.45875,0.4969718 -0.45875,1.4214087 0,0.5977563 0.1981,1.0460735 0.19809,0.4483172 0.60123,0.6707381 0.40661,0.2258963 0.88273,0.2258963 0.60123,0 0.98352,-0.3058288 0.38228,-0.3023535 0.49002,-0.8618811 l -0.60818,-0.093834 q -0.0869,0.37186 -0.30931,0.5595277 -0.21894,0.1876677 -0.53172,0.1876677 -0.47265,0 -0.76805,-0.3405821 -0.2954,-0.3371067 -0.2954,-1.0704007 0,-0.74372 0.28497,-1.0808267 0.28498,-0.3371068 0.74372,-0.3371068 0.36839,0 0.61514,0.2258963 0.24675,0.2258963 0.31278,0.6950654 z" /><path
       inkscape:connector-curvature="0"
       id="path4718"
       style="font-variant:normal;font-weight:normal;font-size:medium;font-family:Helvetica;-inkscape-font-specification:Helvetica;writing-mode:lr-tb;fill:#000000;fill-opacity:1;fill-rule:nonzero;stroke:none"
       d="m 170.69716,3.9595277 0.0904,-0.552577 q -0.26412,-0.055605 -0.47264,-0.055605 -0.34058,0 -0.52825,0.1077352 -0.18767,0.1077351 -0.26413,0.2815014 -0.0764,0.1772417 -0.0764,0.7402447 l 0,2.1234248 -0.45875,0 0,0.4865458 0.45875,0 0,0.914011 0.62208,0.3753354 0,-1.2893464 0.62904,0 0,-0.4865458 -0.62904,0 0,-2.1581781 q 0,-0.2676001 0.0313,-0.3440573 0.0348,-0.076457 0.10773,-0.1216365 0.0765,-0.045179 0.21547,-0.045179 0.10426,0 0.27456,0.024327 z" /><path
       inkscape:connector-curvature="0"
       id="path4720"
       style="font-variant:normal;font-weight:normal;font-size:medium;font-family:Helvetica;-inkscape-font-specification:Helvetica;writing-mode:lr-tb;fill:#000000;fill-opacity:1;fill-rule:nonzero;stroke:none"
       d="m 171.31348,7.7754368 0,0.7193927 0.62556,0 0,-0.7193927 -0.62556,0 z m 0,-4.3754367 0,3.6907973 0.62556,0 0,-3.6907973 -0.62556,0 z" /><path
       inkscape:connector-curvature="0"
       id="path4722"
       style="font-variant:normal;font-weight:normal;font-size:medium;font-family:Helvetica;-inkscape-font-specification:Helvetica;writing-mode:lr-tb;fill:#000000;fill-opacity:1;fill-rule:nonzero;stroke:none"
       d="m 172.65724,5.2453988 q 0,1.0252214 0.56995,1.5187179 0.47612,0.4100886 1.16076,0.4100886 0.7611,0 1.24417,-0.5004471 0.48307,-0.4969718 0.48307,-1.3762295 0,-0.7124421 -0.21547,-1.1225307 -0.212,-0.4066132 -0.62209,-0.6325095 -0.40661,-0.2258963 -0.88968,-0.2258963 -0.775,0 -1.25459,0.4969718 -0.47612,0.4969718 -0.47612,1.4318348 z m 0.64293,0 q 0,-0.7089668 0.30931,-1.0634501 0.3093,-0.3510081 0.77847,-0.3510081 0.46569,0 0.775,0.3544834 0.3093,0.3544834 0.3093,1.0808267 0,0.6846394 -0.31278,1.0356475 -0.3093,0.3544833 -0.77152,0.3544833 -0.46917,0 -0.77847,-0.351008 -0.30931,-0.351008 -0.30931,-1.0599747 z" /><path
       inkscape:connector-curvature="0"
       id="path4724"
       style="font-variant:normal;font-weight:normal;font-size:medium;font-family:Helvetica;-inkscape-font-specification:Helvetica;writing-mode:lr-tb;fill:#000000;fill-opacity:1;fill-rule:nonzero;stroke:none"
       d="m 176.84739,3.4000001 0,3.6907973 0.563,0 0,-0.5247744 q 0.40662,0.6081823 1.17466,0.6081823 0.33363,0 0.61166,-0.1216365 0.2815,-0.1181611 0.42051,-0.3127794 0.13902,-0.1946183 0.19462,-0.4622185 0.0348,-0.1737664 0.0348,-0.6081822 l 0,-2.2693886 -0.62556,0 0,2.2450613 q 0,0.3822859 -0.073,0.5699536 -0.073,0.191143 -0.26065,0.3023535 -0.1842,0.1146857 -0.43442,0.1146857 -0.39966,0 -0.69159,-0.2536988 -0.28845,-0.2536989 -0.28845,-0.9626656 l 0,-2.0156897 -0.62556,0 z" /><path
       inkscape:connector-curvature="0"
       id="path4726"
       style="font-variant:normal;font-weight:normal;font-size:medium;font-family:Helvetica;-inkscape-font-specification:Helvetica;writing-mode:lr-tb;fill:#000000;fill-opacity:1;fill-rule:nonzero;stroke:none"
       d="m 186.49849,5.1863182 0.67421,-0.170291 q -0.21199,-0.8306032 -0.76457,-1.2684944 -0.5491,-0.4344159 -1.34495,-0.4344159 -0.82366,0 -1.34148,0.3336314 -0.51435,0.3371067 -0.78542,0.9730916 -0.2676,0.6359848 -0.2676,1.3658035 0,0.7958499 0.30235,1.3866555 0.30583,0.5942809 0.86536,0.9001097 0.563,0.3093041 1.23721,0.3093041 0.76458,0 1.28587,-0.3892366 0.5213,-0.3892366 0.72635,-1.094728 l -0.66379,-0.1563897 q -0.17724,0.5560523 -0.51435,0.8097512 -0.3371,0.2536988 -0.84798,0.2536988 -0.58733,0 -0.98352,-0.2815015 -0.39271,-0.2815015 -0.55257,-0.7576213 -0.15987,-0.4726444 -0.15987,-0.9765669 0,-0.6498861 0.18767,-1.1364319 0.19114,-0.4830705 0.59081,-0.722868 0.39966,-0.2397976 0.86535,-0.2397976 0.56648,0 0.95919,0.3266808 0.39271,0.3266807 0.53173,0.9696162 z" /><path
       inkscape:connector-curvature="0"
       id="path4728"
       style="font-variant:normal;font-weight:normal;font-size:medium;font-family:Helvetica;-inkscape-font-specification:Helvetica;writing-mode:lr-tb;fill:#000000;fill-opacity:1;fill-rule:nonzero;stroke:none"
       d="m 187.68933,5.2453988 q 0,1.0252214 0.56995,1.5187179 0.47612,0.4100886 1.16076,0.4100886 0.76109,0 1.24417,-0.5004471 0.48307,-0.4969718 0.48307,-1.3762295 0,-0.7124421 -0.21547,-1.1225307 -0.212,-0.4066132 -0.62209,-0.6325095 -0.40661,-0.2258963 -0.88968,-0.2258963 -0.775,0 -1.2546,0.4969718 -0.47611,0.4969718 -0.47611,1.4318348 z m 0.64293,0 q 0,-0.7089668 0.3093,-1.0634501 0.30931,-0.3510081 0.77848,-0.3510081 0.46569,0 0.775,0.3544834 0.3093,0.3544834 0.3093,1.0808267 0,0.6846394 -0.31278,1.0356475 -0.3093,0.3544833 -0.77152,0.3544833 -0.46917,0 -0.77848,-0.351008 -0.3093,-0.351008 -0.3093,-1.0599747 z" /><path
       inkscape:connector-curvature="0"
       id="path4730"
       style="font-variant:normal;font-weight:normal;font-size:medium;font-family:Helvetica;-inkscape-font-specification:Helvetica;writing-mode:lr-tb;fill:#000000;fill-opacity:1;fill-rule:nonzero;stroke:none"
       d="m 191.64665,5.2453988 q 0,1.0252214 0.56995,1.5187179 0.47612,0.4100886 1.16076,0.4100886 0.7611,0 1.24417,-0.5004471 0.48307,-0.4969718 0.48307,-1.3762295 0,-0.7124421 -0.21547,-1.1225307 -0.212,-0.4066132 -0.62209,-0.6325095 -0.40661,-0.2258963 -0.88968,-0.2258963 -0.775,0 -1.25459,0.4969718 -0.47612,0.4969718 -0.47612,1.4318348 z m 0.64293,0 q 0,-0.7089668 0.30931,-1.0634501 0.3093,-0.3510081 0.77847,-0.3510081 0.46569,0 0.775,0.3544834 0.3093,0.3544834 0.3093,1.0808267 0,0.6846394 -0.31278,1.0356475 -0.3093,0.3544833 -0.77152,0.3544833 -0.46917,0 -0.77847,-0.351008 -0.30931,-0.351008 -0.30931,-1.0599747 z" /><path
       inkscape:connector-curvature="0"
       id="path4732"
       style="font-variant:normal;font-weight:normal;font-size:medium;font-family:Helvetica;-inkscape-font-specification:Helvetica;writing-mode:lr-tb;fill:#000000;fill-opacity:1;fill-rule:nonzero;stroke:none"
       d="m 195.82985,3.4000001 0,3.6907973 0.563,0 0,-0.5595276 q 0.21547,0.3927119 0.39619,0.5178237 0.18419,0.1251118 0.40314,0.1251118 0.31625,0 0.64293,-0.201569 l -0.21547,-0.5803796 q -0.22937,0.1355377 -0.45874,0.1355377 -0.20505,0 -0.36839,-0.1251117 -0.16334,-0.1216365 -0.23284,-0.3405821 -0.10426,-0.3336314 -0.10426,-0.7298187 l 0,-1.9322818 -0.62556,0 z" /><path
       inkscape:connector-curvature="0"
       id="path4734"
       style="font-variant:normal;font-weight:normal;font-size:medium;font-family:Helvetica;-inkscape-font-specification:Helvetica;writing-mode:lr-tb;fill:#000000;fill-opacity:1;fill-rule:nonzero;stroke:none"
       d="m 200.60142,3.4000001 0,0.4656938 q -0.35101,-0.5491017 -1.03218,-0.5491017 -0.44136,0 -0.81322,0.2432729 -0.36839,0.2432729 -0.57343,0.6776888 -0.20157,0.4378912 -0.20157,1.0043695 0,0.552577 0.18419,1.0008942 0.18419,0.4517925 0.55258,0.6915901 0.36838,0.2397976 0.82365,0.2397976 0.33363,0 0.59428,-0.1424884 0.26065,-0.1390131 0.42399,-0.3649094 l 0,1.828022 0.62209,0 0,-5.0948294 -0.58038,0 z m -1.97746,1.8419233 q 0,-0.7089667 0.29887,-1.0599747 0.29888,-0.3510081 0.7055,-0.3510081 0.41008,0 0.69506,0.3336314 0.28845,0.3371068 0.28845,1.0252215 0,0.7576213 -0.29192,1.1121047 -0.29193,0.3544833 -0.7194,0.3544833 -0.41704,0 -0.69854,-0.340582 -0.27802,-0.3405821 -0.27802,-1.0738761 z" /><path
       inkscape:connector-curvature="0"
       id="path4736"
       style="font-variant:normal;font-weight:normal;font-size:medium;font-family:Helvetica;-inkscape-font-specification:Helvetica;writing-mode:lr-tb;fill:#000000;fill-opacity:1;fill-rule:nonzero;stroke:none"
       d="m 202.16771,7.7754368 0,0.7193927 0.62556,0 0,-0.7193927 -0.62556,0 z m 0,-4.3754367 0,3.6907973 0.62556,0 0,-3.6907973 -0.62556,0 z" /><path
       inkscape:connector-curvature="0"
       id="path4738"
       style="font-variant:normal;font-weight:normal;font-size:medium;font-family:Helvetica;-inkscape-font-specification:Helvetica;writing-mode:lr-tb;fill:#000000;fill-opacity:1;fill-rule:nonzero;stroke:none"
       d="m 203.74432,3.4000001 0,3.6907973 0.563,0 0,-0.5247744 q 0.40661,0.6081823 1.17466,0.6081823 0.33363,0 0.61166,-0.1216365 0.2815,-0.1181611 0.42051,-0.3127794 0.13901,-0.1946183 0.19462,-0.4622185 0.0348,-0.1737664 0.0348,-0.6081822 l 0,-2.2693886 -0.62556,0 0,2.2450613 q 0,0.3822859 -0.073,0.5699536 -0.073,0.191143 -0.26065,0.3023535 -0.18419,0.1146857 -0.43441,0.1146857 -0.39967,0 -0.69159,-0.2536988 -0.28846,-0.2536989 -0.28846,-0.9626656 l 0,-2.0156897 -0.62555,0 z" /><path
       inkscape:connector-curvature="0"
       id="path4740"
       style="font-variant:normal;font-weight:normal;font-size:medium;font-family:Helvetica;-inkscape-font-specification:Helvetica;writing-mode:lr-tb;fill:#000000;fill-opacity:1;fill-rule:nonzero;stroke:none"
       d="m 210.11002,3.8552679 q -0.34753,-0.2954028 -0.67073,-0.4170392 -0.31974,-0.1216365 -0.68812,-0.1216365 -0.60818,0 -0.93486,0.2954028 -0.32668,0.2988782 -0.32668,0.7610967 0,0.2710755 0.12163,0.4934964 0.12511,0.2258963 0.32321,0.361434 0.20157,0.1355378 0.45179,0.2050443 0.18419,0.048655 0.55605,0.093834 0.75762,0.090358 1.11558,0.2154703 0.003,0.1285871 0.003,0.1633404 0,0.382286 -0.17724,0.5386757 -0.2398,0.2119949 -0.71245,0.2119949 -0.44136,0 -0.65336,-0.1563897 -0.20852,-0.1529144 -0.3093,-0.5456263 l -0.61166,0.083408 q 0.0834,0.392712 0.27455,0.6325095 0.19115,0.2432729 0.55258,0.37186 0.36143,0.1320625 0.83755,0.1320625 0.47265,0 0.76805,-0.1112105 0.2954,-0.1112105 0.43442,-0.2815015 0.13901,-0.1668157 0.19461,-0.4239899 0.0313,-0.159865 0.0313,-0.5769043 l 0,-0.8340785 q 0,-0.8723071 0.0382,-1.105154 0.0417,-0.2293716 0.15987,-0.4413665 l -0.65337,0 q -0.0973,0.1946183 -0.12511,0.4552678 z m -0.0521,1.3970815 q -0.34058,-0.1390131 -1.02174,-0.2363222 -0.38576,-0.055605 -0.54563,-0.1251118 -0.15986,-0.069507 -0.24675,-0.2050443 -0.0869,-0.1320624 -0.0869,-0.2954028 0,-0.2502235 0.18767,-0.4170392 0.19114,-0.1668157 0.55605,-0.1668157 0.36143,0 0.64293,0.1563897 0.28151,0.159865 0.41357,0.4344159 0.10078,0.2119949 0.10078,0.6255588 l 0,0.2293716 z" /><path
       inkscape:connector-curvature="0"
       id="path4742"
       style="font-variant:normal;font-weight:normal;font-size:medium;font-family:Helvetica;-inkscape-font-specification:Helvetica;writing-mode:lr-tb;fill:#000000;fill-opacity:1;fill-rule:nonzero;stroke:none"
       d="m 213.02475,3.9595277 0.0904,-0.552577 q -0.26412,-0.055605 -0.47264,-0.055605 -0.34058,0 -0.52825,0.1077352 -0.18767,0.1077351 -0.26412,0.2815014 -0.0765,0.1772417 -0.0765,0.7402447 l 0,2.1234248 -0.45874,0 0,0.4865458 0.45874,0 0,0.914011 0.62208,0.3753354 0,-1.2893464 0.62904,0 0,-0.4865458 -0.62904,0 0,-2.1581781 q 0,-0.2676001 0.0313,-0.3440573 0.0348,-0.076457 0.10774,-0.1216365 0.0764,-0.045179 0.21547,-0.045179 0.10426,0 0.27455,0.024327 z" /><path
       inkscape:connector-curvature="0"
       id="path4744"
       style="font-variant:normal;font-weight:normal;font-size:medium;font-family:Helvetica;-inkscape-font-specification:Helvetica;writing-mode:lr-tb;fill:#000000;fill-opacity:1;fill-rule:nonzero;stroke:none"
       d="m 216.16416,4.5885619 0.64641,-0.079932 q -0.15292,-0.5664783 -0.56648,-0.8792577 -0.41356,-0.3127795 -1.0565,-0.3127795 -0.80975,0 -1.28587,0.4969718 -0.47264,0.5004471 -0.47264,1.4005568 0,0.9313877 0.47959,1.4457361 0.4796,0.5143484 1.24417,0.5143484 0.74024,0 1.20941,-0.5039225 0.46917,-0.5039224 0.46917,-1.4179334 0,-0.055605 -0.003,-0.1668157 l -2.75246,0 q 0.0348,-0.6081822 0.34405,-0.9313876 0.30931,-0.3232055 0.77153,-0.3232055 0.34405,0 0.58733,0.1807171 0.24327,0.180717 0.38576,0.5769042 z m -2.05392,1.0113202 2.06087,0 q -0.0417,0.4656938 -0.23632,0.6985408 -0.29888,0.361434 -0.775,0.361434 -0.43094,0 -0.72634,-0.2884522 -0.29193,-0.2884521 -0.32321,-0.7715226 z" /></g></svg>