<?xml version="1.0" encoding="UTF-8" standalone="no"?>
<!-- Created with Inkscape (http://www.inkscape.org/) -->

<svg
   xmlns:dc="http://purl.org/dc/elements/1.1/"
   xmlns:cc="http://creativecommons.org/ns#"
   xmlns:rdf="http://www.w3.org/1999/02/22-rdf-syntax-ns#"
   xmlns:svg="http://www.w3.org/2000/svg"
   xmlns="http://www.w3.org/2000/svg"
   xmlns:sodipodi="http://sodipodi.sourceforge.net/DTD/sodipodi-0.dtd"
   xmlns:inkscape="http://www.inkscape.org/namespaces/inkscape"
   id="svg2"
   version="1.1"
   inkscape:version="0.91 r13725"
   xml:space="preserve"
   width="492.8125"
   height="134.5"
   viewBox="0 0 492.8125 134.5"
   sodipodi:docname="graphic.svg"><metadata
     id="metadata8"><rdf:RDF><cc:Work
         rdf:about=""><dc:format>image/svg+xml</dc:format><dc:type
           rdf:resource="http://purl.org/dc/dcmitype/StillImage" /><dc:title></dc:title></cc:Work></rdf:RDF></metadata><defs
     id="defs6" /><sodipodi:namedview
     pagecolor="#ffffff"
     bordercolor="#666666"
     borderopacity="1"
     objecttolerance="10"
     gridtolerance="10"
     guidetolerance="10"
     inkscape:pageopacity="0"
     inkscape:pageshadow="2"
     inkscape:window-width="1500"
     inkscape:window-height="937"
     id="namedview4"
     showgrid="false"
     inkscape:zoom="1.3122807"
     inkscape:cx="148.01597"
     inkscape:cy="51.751036"
     inkscape:window-x="-8"
     inkscape:window-y="1192"
     inkscape:window-maximized="1"
     inkscape:current-layer="g10" /><g
     id="g10"
     inkscape:groupmode="layer"
     inkscape:label="ink_ext_XXXXXX"
     transform="matrix(1.25,0,0,-1.25,-29.3125,253.875)"><path
       inkscape:connector-curvature="0"
       id="path20"
       style="fill:#000000;fill-opacity:1;fill-rule:nonzero;stroke:none"
       d="m 44.8,161.5 0.45,-0.35 0,-0.5 -21.8,-5.8 1.85,1.4" /><path
       inkscape:connector-curvature="0"
       id="path22"
       style="fill:#000000;fill-opacity:1;fill-rule:nonzero;stroke:none"
       d="m 65.9,156.05 0.2,-0.5 -0.45,-0.35 -20.4,5.45 0,0.5 0.45,0.35" /><path
       inkscape:connector-curvature="0"
       id="path24"
       style="fill:#000000;fill-opacity:1;fill-rule:nonzero;stroke:none"
       d="m 34.9,174.65 0.6,-0.8 -10.2,-17.6 -1.85,-1.4" /><path
       inkscape:connector-curvature="0"
       id="path26"
       style="fill:#000000;fill-opacity:1;fill-rule:nonzero;stroke:none"
       d="m 37.35,171.15 0.8,-0.45 -5.3,-9.2 -0.8,0.45" /><path
       inkscape:connector-curvature="0"
       id="path28"
       style="fill:#000000;fill-opacity:1;fill-rule:nonzero;stroke:none"
       d="m 76.25,173.95 0.65,0.3 -0.45,-1.7 -9.9,-17.15 -0.45,0.15 -0.2,0.5" /><path
       inkscape:connector-curvature="0"
       id="path30"
       style="fill:#000000;fill-opacity:1;fill-rule:nonzero;stroke:none"
       d="m 55.6,180.2 0.45,-0.35 0,-0.5 -7.95,-2.1 0,0.95" /><path
       inkscape:connector-curvature="0"
       id="path32"
       style="fill:#000000;fill-opacity:1;fill-rule:nonzero;stroke:none"
       d="m 35.5,173.85 -0.6,0.8 7.5,2 0,-0.95" /><path
       inkscape:connector-curvature="0"
       id="path34"
       style="fill:#000000;fill-opacity:1;fill-rule:nonzero;stroke:none"
       d="m 77.35,174.6 -0.45,-0.35 -0.65,-0.3 -20.2,5.4 0,0.5 0.45,0.35" /><path
       inkscape:connector-curvature="0"
       id="path36"
       style="fill:#000000;fill-opacity:1;fill-rule:nonzero;stroke:none"
       d="m 44.8,182.85 0.9,-0.25 0,-21.1 -0.45,-0.35 -0.45,0.35" /><path
       inkscape:connector-curvature="0"
       id="path38"
       style="fill:#000000;fill-opacity:1;fill-rule:nonzero;stroke:none"
       d="m 55.6,199.75 0.9,3.35 0,-22.9 -0.45,-0.35 -0.45,0.35" /><path
       inkscape:connector-curvature="0"
       id="path40"
       style="fill:#000000;fill-opacity:1;fill-rule:nonzero;stroke:none"
       d="m 45.7,182.6 -0.9,0.25 11.7,20.25 -0.9,-3.35" /><path
       inkscape:connector-curvature="0"
       id="path42"
       style="fill:#000000;fill-opacity:1;fill-rule:nonzero;stroke:none"
       d="m 202.35,133.95 0.4,-1.05 -21.5,5.75 0.85,0.7" /><path
       inkscape:connector-curvature="0"
       id="path44"
       style="fill:#000000;fill-opacity:1;fill-rule:nonzero;stroke:none"
       d="m 213.75,151.5 1.1,0.05 -12.1,-18.65 -0.4,1.05" /><path
       inkscape:connector-curvature="0"
       id="path46"
       style="fill:#000000;fill-opacity:1;fill-rule:nonzero;stroke:none"
       d="m 209.15,151.5 0.75,-0.45 -8.7,-13.4 -0.75,0.5" /><path
       inkscape:connector-curvature="0"
       id="path48"
       style="fill:#000000;fill-opacity:1;fill-rule:nonzero;stroke:none"
       d="m 200.6,167.75 0.1,0.55 0.5,0.1 13.65,-16.85 -1.1,-0.05" /><path
       inkscape:connector-curvature="0"
       id="path50"
       style="fill:#000000;fill-opacity:1;fill-rule:nonzero;stroke:none"
       d="m 181,160.25 -0.9,0.6 20.25,7.8 0.35,-0.35 -0.1,-0.55" /><path
       inkscape:connector-curvature="0"
       id="path52"
       style="fill:#000000;fill-opacity:1;fill-rule:nonzero;stroke:none"
       d="m 182.1,139.35 -0.85,-0.7 -1.15,22.2 0.9,-0.6" /><path
       inkscape:connector-curvature="0"
       id="path54"
       style="fill:#000000;fill-opacity:1;fill-rule:nonzero;stroke:none"
       d="m 324.4,165.3 -0.9,-0.55 0,22.15 0.9,-0.55" /><path
       inkscape:connector-curvature="0"
       id="path56"
       style="fill:#000000;fill-opacity:1;fill-rule:nonzero;stroke:none"
       d="m 327.4,167.25 0.9,0 0,17.15 -0.9,0 0,-17.15 z" /><path
       inkscape:connector-curvature="0"
       id="path58"
       style="fill:#000000;fill-opacity:1;fill-rule:nonzero;stroke:none"
       d="m 342.65,154.75 0,-1.05 -19.15,11.05 0.9,0.55" /><path
       inkscape:connector-curvature="0"
       id="path60"
       style="fill:#000000;fill-opacity:1;fill-rule:nonzero;stroke:none"
       d="m 360.9,165.3 0.45,-0.25 0,-0.55 -18.7,-10.8 0,1.05" /><path
       inkscape:connector-curvature="0"
       id="path62"
       style="fill:#000000;fill-opacity:1;fill-rule:nonzero;stroke:none"
       d="m 360.9,186.35 0.9,0.55 0,-21.6 -0.45,-0.25 -0.45,0.25" /><path
       inkscape:connector-curvature="0"
       id="path64"
       style="fill:#000000;fill-opacity:1;fill-rule:nonzero;stroke:none"
       d="m 357,167.25 0.9,0 0,17.15 -0.9,0 0,-17.15 z" /><path
       inkscape:connector-curvature="0"
       id="path66"
       style="fill:#000000;fill-opacity:1;fill-rule:nonzero;stroke:none"
       d="m 342.65,196.9 0,1.05 19.15,-11.05 -0.9,-0.55" /><path
       inkscape:connector-curvature="0"
       id="path68"
       style="fill:#000000;fill-opacity:1;fill-rule:nonzero;stroke:none"
       d="m 324.4,186.35 -0.9,0.55 19.15,11.05 0,-1.05" /><text
       transform="scale(1,-1)"
       style="font-variant:normal;font-weight:normal;font-size:12px;font-family:Helvetica;-inkscape-font-specification:Helvetica;writing-mode:lr-tb;fill:#000000;fill-opacity:1;fill-rule:nonzero;stroke:none"
       id="text72"
       x="61.799999"
       y="-129.25"><tspan
         x="61.799999 70.463997"
         y="-129.25"
         sodipodi:role="line"
         id="tspan74">CN</tspan></text>
<path
       inkscape:connector-curvature="0"
       id="path76"
       style="fill:#000000;fill-opacity:1;fill-rule:nonzero;stroke:none"
       d="m 66.55,140.25 -0.9,0 0,14.95 0.45,0.35 0.45,-0.15" /><text
       transform="scale(1,-1)"
       style="font-variant:normal;font-weight:normal;font-size:12px;font-family:Helvetica;-inkscape-font-specification:Helvetica;writing-mode:lr-tb;fill:#000000;fill-opacity:1;fill-rule:nonzero;stroke:none"
       id="text80"
       x="72.599998"
       y="-147.95"><tspan
         x="72.599998 81.264"
         y="-147.95"
         sodipodi:role="line"
         id="tspan82">CN</tspan></text>
<path
       inkscape:connector-curvature="0"
       id="path84"
       style="fill:#000000;fill-opacity:1;fill-rule:nonzero;stroke:none"
       d="m 77.35,158.95 -0.9,0 0,13.6 0.45,1.7 0.45,0.35" /><text
       transform="scale(1,-1)"
       style="font-variant:normal;font-weight:normal;font-size:12px;font-family:Helvetica;-inkscape-font-specification:Helvetica;writing-mode:lr-tb;fill:#000000;fill-opacity:1;fill-rule:nonzero;stroke:none"
       id="text88"
       x="201.64999"
       y="-184.5"><tspan
         x="201.64999 210.98601 219.64999"
         y="-184.5"
         sodipodi:role="line"
         id="tspan90">OCH</tspan></text>
<text
       transform="scale(1,-1)"
       style="font-variant:normal;font-weight:normal;font-size:9px;font-family:Helvetica;-inkscape-font-specification:Helvetica;writing-mode:lr-tb;fill:#000000;fill-opacity:1;fill-rule:nonzero;stroke:none"
       id="text92"
       x="228.3141"
       y="-182.25"><tspan
         x="228.3141"
         y="-182.25"
         id="tspan94">3</tspan></text>
<path
       inkscape:connector-curvature="0"
       id="path96"
       style="fill:#000000;fill-opacity:1;fill-rule:nonzero;stroke:none"
       d="m 204,182.2 0.85,-0.25 -3.65,-13.55 -0.5,-0.1 -0.35,0.35" /><path
       inkscape:connector-curvature="0"
       id="path98"
       style="fill:#000000;fill-opacity:1;fill-rule:nonzero;stroke:none"
       d="m 380.05,154.75 0,-1.05 -18.7,10.8 0,0.55 0.45,0.25" /><text
       transform="scale(1,-1)"
       style="font-variant:normal;font-weight:normal;font-size:12px;font-family:Helvetica;-inkscape-font-specification:Helvetica;writing-mode:lr-tb;fill:#000000;fill-opacity:1;fill-rule:nonzero;stroke:none"
       id="text102"
       x="375.39999"
       y="-127.95"><tspan
         x="375.39999"
         y="-127.95"
         id="tspan104">O</tspan></text>
<path
       inkscape:connector-curvature="0"
       id="path106"
       style="fill:#000000;fill-opacity:1;fill-rule:nonzero;stroke:none"
       d="m 381.55,138.95 0.9,0 0,16.4 -0.9,0 0,-16.4 z" /><path
       inkscape:connector-curvature="0"
       id="path108"
       style="fill:#000000;fill-opacity:1;fill-rule:nonzero;stroke:none"
       d="m 377.65,138.95 0.9,0 0,16.4 -0.9,0 0,-16.4 z" /><text
       transform="scale(1,-1)"
       style="font-variant:normal;font-weight:normal;font-size:12px;font-family:Helvetica;-inkscape-font-specification:Helvetica;writing-mode:lr-tb;fill:#000000;fill-opacity:1;fill-rule:nonzero;stroke:none"
       id="text112"
       x="394.10001"
       y="-160.35001"><tspan
         x="394.10001"
         y="-160.35001"
         id="tspan114">O</tspan></text>
<path
       inkscape:connector-curvature="0"
       id="path116"
       style="fill:#000000;fill-opacity:1;fill-rule:nonzero;stroke:none"
       d="m 392.55,161.95 0.45,-0.75 -12.95,-7.5 0,1.05" /><path
       inkscape:connector-curvature="0"
       id="path118"
       style="fill:#000000;fill-opacity:1;fill-rule:nonzero;stroke:none"
       d="m 417.7,154.6 -0.45,-0.75 -12.7,7.3 0.45,0.8" /><path
       inkscape:connector-curvature="0"
       id="path4336"
       style="font-variant:normal;font-weight:normal;font-size:medium;font-family:'Times New Roman';-inkscape-font-specification:Times-Roman;writing-mode:lr-tb;fill:#000000;fill-opacity:1;fill-rule:nonzero;stroke:none"
       d="m 61.003124,95.716797 0,-0.216797 -3.404297,0 0,0.216797 0.28125,0 q 0.492188,0 0.714844,0.287109 0.140625,0.1875 0.140625,0.902344 l 0,5.13281 q 0,0.60352 -0.07617,0.79688 -0.05859,0.14648 -0.240234,0.25195 -0.257813,0.14063 -0.539063,0.14063 l -0.28125,0 0,0.21679 3.404297,0 0,-0.21679 -0.287109,0 q -0.486328,0 -0.708985,-0.28711 -0.146484,-0.1875 -0.146484,-0.90235 l 0,-5.13281 q 0,-0.603516 0.07617,-0.796875 0.05859,-0.146484 0.246094,-0.251953 0.251953,-0.140625 0.533203,-0.140625 l 0.287109,0 z" /><path
       inkscape:connector-curvature="0"
       id="path4338"
       style="font-variant:normal;font-weight:normal;font-size:medium;font-family:'Times New Roman';-inkscape-font-specification:Times-Roman;writing-mode:lr-tb;fill:#000000;fill-opacity:1;fill-rule:nonzero;stroke:none"
       d="m 204.55313,95.716797 0,-0.216797 -3.4043,0 0,0.216797 0.28125,0 q 0.49219,0 0.71485,0.287109 0.14062,0.1875 0.14062,0.902344 l 0,5.13281 q 0,0.60352 -0.0762,0.79688 -0.0586,0.14648 -0.24023,0.25195 -0.25782,0.14063 -0.53907,0.14063 l -0.28125,0 0,0.21679 3.4043,0 0,-0.21679 -0.28711,0 q -0.48633,0 -0.70898,-0.28711 -0.14649,-0.1875 -0.14649,-0.90235 l 0,-5.13281 q 0,-0.603516 0.0762,-0.796875 0.0586,-0.146484 0.2461,-0.251953 0.25195,-0.140625 0.5332,-0.140625 l 0.28711,0 z" /><path
       inkscape:connector-curvature="0"
       id="path4340"
       style="font-variant:normal;font-weight:normal;font-size:medium;font-family:'Times New Roman';-inkscape-font-specification:Times-Roman;writing-mode:lr-tb;fill:#000000;fill-opacity:1;fill-rule:nonzero;stroke:none"
       d="m 208.54913,95.716797 0,-0.216797 -3.40429,0 0,0.216797 0.28125,0 q 0.49218,0 0.71484,0.287109 0.14063,0.1875 0.14063,0.902344 l 0,5.13281 q 0,0.60352 -0.0762,0.79688 -0.0586,0.14648 -0.24023,0.25195 -0.25781,0.14063 -0.53906,0.14063 l -0.28125,0 0,0.21679 3.40429,0 0,-0.21679 -0.28711,0 q -0.48632,0 -0.70898,-0.28711 -0.14648,-0.1875 -0.14648,-0.90235 l 0,-5.13281 q 0,-0.603516 0.0762,-0.796875 0.0586,-0.146484 0.24609,-0.251953 0.25195,-0.140625 0.5332,-0.140625 l 0.28711,0 z" /><path
       inkscape:connector-curvature="0"
       id="path4342"
       style="font-variant:normal;font-weight:normal;font-size:medium;font-family:'Times New Roman';-inkscape-font-specification:Times-Roman;writing-mode:lr-tb;fill:#000000;fill-opacity:1;fill-rule:nonzero;stroke:none"
       d="m 382.40271,95.716797 0,-0.216797 -3.4043,0 0,0.216797 0.28125,0 q 0.49219,0 0.71485,0.287109 0.14062,0.1875 0.14062,0.902344 l 0,5.13281 q 0,0.60352 -0.0762,0.79688 -0.0586,0.14648 -0.24023,0.25195 -0.25782,0.14063 -0.53907,0.14063 l -0.28125,0 0,0.21679 3.4043,0 0,-0.21679 -0.28711,0 q -0.48633,0 -0.70898,-0.28711 -0.14649,-0.1875 -0.14649,-0.90235 l 0,-5.13281 q 0,-0.603516 0.0762,-0.796875 0.0586,-0.146484 0.2461,-0.251953 0.25195,-0.140625 0.5332,-0.140625 l 0.28711,0 z" /><path
       inkscape:connector-curvature="0"
       id="path4344"
       style="font-variant:normal;font-weight:normal;font-size:medium;font-family:'Times New Roman';-inkscape-font-specification:Times-Roman;writing-mode:lr-tb;fill:#000000;fill-opacity:1;fill-rule:nonzero;stroke:none"
       d="m 386.39871,95.716797 0,-0.216797 -3.40429,0 0,0.216797 0.28125,0 q 0.49218,0 0.71484,0.287109 0.14062,0.1875 0.14062,0.902344 l 0,5.13281 q 0,0.60352 -0.0762,0.79688 -0.0586,0.14648 -0.24023,0.25195 -0.25781,0.14063 -0.53906,0.14063 l -0.28125,0 0,0.21679 3.40429,0 0,-0.21679 -0.28711,0 q -0.48633,0 -0.70898,-0.28711 -0.14649,-0.1875 -0.14649,-0.90235 l 0,-5.13281 q 0,-0.603516 0.0762,-0.796875 0.0586,-0.146484 0.24609,-0.251953 0.25195,-0.140625 0.5332,-0.140625 l 0.28711,0 z" /><path
       inkscape:connector-curvature="0"
       id="path4346"
       style="font-variant:normal;font-weight:normal;font-size:medium;font-family:'Times New Roman';-inkscape-font-specification:Times-Roman;writing-mode:lr-tb;fill:#000000;fill-opacity:1;fill-rule:nonzero;stroke:none"
       d="m 390.39471,95.716797 0,-0.216797 -3.40429,0 0,0.216797 0.28125,0 q 0.49218,0 0.71484,0.287109 0.14063,0.1875 0.14063,0.902344 l 0,5.13281 q 0,0.60352 -0.0762,0.79688 -0.0586,0.14648 -0.24023,0.25195 -0.25781,0.14063 -0.53906,0.14063 l -0.28125,0 0,0.21679 3.40429,0 0,-0.21679 -0.28711,0 q -0.48632,0 -0.70898,-0.28711 -0.14648,-0.1875 -0.14648,-0.90235 l 0,-5.13281 q 0,-0.603516 0.0762,-0.796875 0.0586,-0.146484 0.24609,-0.251953 0.25195,-0.140625 0.5332,-0.140625 l 0.28711,0 z" /></g></svg>