<?xml version="1.0" encoding="UTF-8" standalone="no"?>
<!-- Created with Inkscape (http://www.inkscape.org/) -->

<svg
   xmlns:dc="http://purl.org/dc/elements/1.1/"
   xmlns:cc="http://creativecommons.org/ns#"
   xmlns:rdf="http://www.w3.org/1999/02/22-rdf-syntax-ns#"
   xmlns:svg="http://www.w3.org/2000/svg"
   xmlns="http://www.w3.org/2000/svg"
   xmlns:sodipodi="http://sodipodi.sourceforge.net/DTD/sodipodi-0.dtd"
   xmlns:inkscape="http://www.inkscape.org/namespaces/inkscape"
   id="svg2"
   version="1.1"
   inkscape:version="0.91 r13725"
   xml:space="preserve"
   width="186.02521"
   height="57.073727"
   viewBox="0 0 186.02521 57.073727"
   sodipodi:docname="graphic.svg"><metadata
     id="metadata8"><rdf:RDF><cc:Work
         rdf:about=""><dc:format>image/svg+xml</dc:format><dc:type
           rdf:resource="http://purl.org/dc/dcmitype/StillImage" /><dc:title></dc:title></cc:Work></rdf:RDF></metadata><defs
     id="defs6" /><sodipodi:namedview
     pagecolor="#ffffff"
     bordercolor="#666666"
     borderopacity="1"
     objecttolerance="10"
     gridtolerance="10"
     guidetolerance="10"
     inkscape:pageopacity="0"
     inkscape:pageshadow="2"
     inkscape:window-width="1500"
     inkscape:window-height="937"
     id="namedview4"
     showgrid="false"
     inkscape:zoom="2.3733646"
     inkscape:cx="124.9153"
     inkscape:cy="-66.838635"
     inkscape:window-x="-8"
     inkscape:window-y="1192"
     inkscape:window-maximized="1"
     inkscape:current-layer="g10" /><g
     id="g10"
     inkscape:groupmode="layer"
     inkscape:label="ink_ext_XXXXXX"
     transform="matrix(1.25,0,0,-1.25,-49,273.53491)"><path
       inkscape:connector-curvature="0"
       id="path30"
       style="fill:none;stroke:#000000;stroke-width:0.69999999;stroke-linecap:butt;stroke-linejoin:miter;stroke-miterlimit:4;stroke-dasharray:none;stroke-opacity:1"
       d="m 160.1,184 -50.9,0" /><path
       inkscape:connector-curvature="0"
       id="path32"
       style="fill:#000000;fill-opacity:1;fill-rule:nonzero;stroke:none"
       d="m 171.85,184 -13.5,3.45 c 0,0 1.7,-1.95 1.7,-3.45 0,-1.5 -1.7,-3.4 -1.7,-3.4 l 13.5,3.4 0,0" /><path
       inkscape:connector-curvature="0"
       id="path4564"
       style="font-variant:normal;font-weight:normal;font-size:medium;font-family:Helvetica;-inkscape-font-specification:Helvetica;writing-mode:lr-tb;fill:#000000;fill-opacity:1;fill-rule:nonzero;stroke:none"
       d="m 184.71562,188.71524 q -0.006,0.21094 -0.006,0.31641 0,0.62109 0.17578,1.07226 0.12891,0.33985 0.41602,0.68555 0.21094,0.25195 0.75586,0.73242 0.55078,0.48633 0.71484,0.77344 0.16407,0.28711 0.16407,0.62695 0,0.61524 -0.48047,1.07813 -0.48047,0.46875 -1.17774,0.46875 -0.67383,0 -1.125,-0.42188 -0.45117,-0.42187 -0.59179,-1.31836 l -1.08399,0.12891 q 0.14649,1.20117 0.86719,1.83984 0.72656,0.63867 1.91601,0.63867 1.25977,0 2.00977,-0.68554 0.75,-0.68555 0.75,-1.65821 0,-0.5625 -0.26367,-1.03711 -0.26367,-0.4746 -1.03125,-1.15429 -0.51563,-0.45703 -0.67383,-0.67383 -0.1582,-0.2168 -0.23438,-0.49805 -0.0762,-0.28125 -0.0879,-0.91406 l -1.01367,0 z m -0.0644,-2.11523 0,1.20117 1.20117,0 0,-1.20117 -1.20117,0 z" /><path
       inkscape:connector-curvature="0"
       id="path44"
       style="fill:#000000;fill-opacity:1;fill-rule:nonzero;stroke:none"
       d="m 71,193.45 0.9,-0.45 -0.25,-0.45 -21,0 -0.3,0.45 0.9,0.45" /><path
       inkscape:connector-curvature="0"
       id="path4567"
       style="font-variant:normal;font-weight:normal;font-size:medium;font-family:Helvetica;-inkscape-font-specification:Helvetica;writing-mode:lr-tb;fill:#000000;fill-opacity:1;fill-rule:nonzero;stroke:none"
       d="m 57.030079,211.13359 q 0,2.13867 1.148437,3.3457 1.148438,1.21289 2.964844,1.21289 1.189453,0 2.144531,-0.56835 0.955079,-0.56836 1.453125,-1.5879 0.503907,-1.01367 0.503907,-2.30273 0,-1.30664 -0.527344,-2.33789 -0.527344,-1.03125 -1.494141,-1.56445 -0.966797,-0.52735 -2.085937,-0.52735 -1.212891,0 -2.167969,0.58594 -0.955078,0.58594 -1.447266,1.59961 -0.492187,1.01367 -0.492187,2.14453 z m 1.171875,-0.0176 q 0,-1.55273 0.832031,-2.44922 0.837891,-0.89062 2.097656,-0.89062 1.283204,0 2.109375,0.90234 0.832032,0.90235 0.832032,2.56055 0,1.04883 -0.357422,1.82812 -0.351563,0.78516 -1.03711,1.2129 -0.679687,0.43359 -1.529296,0.43359 -1.207032,0 -2.080079,-0.83203 -0.867187,-0.82617 -0.867187,-2.76563 z" /><path
       inkscape:connector-curvature="0"
       id="path52"
       style="fill:#000000;fill-opacity:1;fill-rule:nonzero;stroke:none"
       d="m 55.55,206.5 3.9,-2.25 -8.2,-10.8 -0.9,-0.45 -0.35,0.2" /><path
       inkscape:connector-curvature="0"
       id="path54"
       style="fill:#000000;fill-opacity:1;fill-rule:nonzero;stroke:none"
       d="m 72.3,193.2 -0.4,-0.2 -0.9,0.45 -8.15,10.75 3.9,2.25" /><path
       inkscape:connector-curvature="0"
       id="path56"
       style="fill:#000000;fill-opacity:1;fill-rule:nonzero;stroke:none"
       d="m 83.1,174.55 -0.8,-0.45 -10.65,18.45 0.25,0.45 0.4,0.2" /><path
       inkscape:connector-curvature="0"
       id="path58"
       style="fill:#000000;fill-opacity:1;fill-rule:nonzero;stroke:none"
       d="m 89.7,195.25 0,-4.5 -0.9,0.1 0,4.25" /><path
       inkscape:connector-curvature="0"
       id="path60"
       style="fill:#000000;fill-opacity:1;fill-rule:nonzero;stroke:none"
       d="m 85.35,194.65 0,-3.35 -0.9,0.1 0,3.15" /><path
       inkscape:connector-curvature="0"
       id="path62"
       style="fill:#000000;fill-opacity:1;fill-rule:nonzero;stroke:none"
       d="m 80.95,194.1 0,-2.25 -0.9,0.1 0,2.05" /><path
       inkscape:connector-curvature="0"
       id="path64"
       style="fill:#000000;fill-opacity:1;fill-rule:nonzero;stroke:none"
       d="m 76.55,193.55 0,-1.15 -0.9,0.15 0,0.9" /><path
       inkscape:connector-curvature="0"
       id="path66"
       style="fill:#000000;fill-opacity:1;fill-rule:nonzero;stroke:none"
       d="m 104.65,174.55 -0.8,-0.45 -10.75,18.65 0.75,0.45" /><path
       inkscape:connector-curvature="0"
       id="path68"
       style="fill:#000000;fill-opacity:1;fill-rule:nonzero;stroke:none"
       d="m 39.95,174.05 -0.75,0.45 10.8,18.7 0.35,-0.2 0.3,-0.45" /><path
       inkscape:connector-curvature="0"
       id="path4623"
       style="font-variant:normal;font-weight:normal;font-size:medium;font-family:Helvetica;-inkscape-font-specification:Helvetica;writing-mode:lr-tb;fill:#000000;fill-opacity:1;fill-rule:nonzero;stroke:none"
       d="m 134.52056,199.98341 q 0,1.55053 0.83262,2.42563 0.83262,0.87935 2.14951,0.87935 0.86236,0 1.55479,-0.41206 0.69243,-0.41206 1.05351,-1.15122 0.36533,-0.73492 0.36533,-1.66949 0,-0.94731 -0.38232,-1.69497 -0.38232,-0.74765 -1.08325,-1.13422 -0.70093,-0.38233 -1.51231,-0.38233 -0.87934,0 -1.57177,0.42481 -0.69244,0.4248 -1.04927,1.15971 -0.35684,0.73491 -0.35684,1.55479 z m 0.84961,-0.0127 q 0,-1.12573 0.60322,-1.77568 0.60748,-0.6457 1.52081,-0.6457 0.93032,0 1.52929,0.6542 0.60322,0.6542 0.60322,1.85639 0,0.7604 -0.25913,1.32539 -0.25488,0.56924 -0.7519,0.87935 -0.49277,0.31435 -1.10874,0.31435 -0.8751,0 -1.50806,-0.60322 -0.62871,-0.59897 -0.62871,-2.00508 z" /><path
       inkscape:connector-curvature="0"
       id="path4625"
       style="font-variant:normal;font-weight:normal;font-size:medium;font-family:Helvetica;-inkscape-font-specification:Helvetica;writing-mode:lr-tb;fill:#000000;fill-opacity:1;fill-rule:nonzero;stroke:none"
       d="m 134.99668,212.6003 0,6.22763 0.82412,0 0,-2.55732 3.23702,0 0,2.55732 0.82412,0 0,-6.22763 -0.82412,0 0,2.9354 -3.23702,0 0,-2.9354 -0.82412,0 z" /><path
       inkscape:connector-curvature="0"
       id="path210"
       style="fill:#000000;fill-opacity:1;fill-rule:nonzero;stroke:none"
       d="m 137.1,204.95 0.7,0 0,5.95 -0.7,0 0,-5.95 z" /><path
       inkscape:connector-curvature="0"
       id="path4633"
       style="font-variant:normal;font-weight:normal;font-size:medium;font-family:Helvetica;-inkscape-font-specification:Helvetica;writing-mode:lr-tb;fill:#000000;fill-opacity:1;fill-rule:nonzero;stroke:none"
       d="m 121.39668,189.10001 0,6.22763 0.82412,0 0,-2.55732 3.23701,0 0,2.55732 0.82412,0 0,-6.22763 -0.82412,0 0,2.9354 -3.23701,0 0,-2.9354 -0.82412,0 z" /><path
       inkscape:connector-curvature="0"
       id="path218"
       style="fill:#000000;fill-opacity:1;fill-rule:nonzero;stroke:none"
       d="m 128.5,194.8 -0.3,0.6 4.75,2.75 0.35,-0.6" /><path
       inkscape:connector-curvature="0"
       id="path4636"
       style="font-variant:normal;font-weight:normal;font-size:medium;font-family:Helvetica;-inkscape-font-specification:Helvetica;writing-mode:lr-tb;fill:#000000;fill-opacity:1;fill-rule:nonzero;stroke:none"
       d="m 148.59667,189.10001 0,6.22763 0.82412,0 0,-2.55732 3.23702,0 0,2.55732 0.82412,0 0,-6.22763 -0.82412,0 0,2.9354 -3.23702,0 0,-2.9354 -0.82412,0 z" /><path
       inkscape:connector-curvature="0"
       id="path226"
       style="fill:#000000;fill-opacity:1;fill-rule:nonzero;stroke:none"
       d="m 146.7,195.4 -0.35,-0.55 -4.7,2.7 0.35,0.55" /><path
       inkscape:connector-curvature="0"
       id="path228"
       style="fill:none;stroke:#000000;stroke-width:0.5;stroke-linecap:butt;stroke-linejoin:miter;stroke-miterlimit:4;stroke-dasharray:none;stroke-opacity:1"
       d="m 133.65,204.1 c 0,-1.574 -1.276,-2.85 -2.85,-2.85 -1.574,0 -2.85,1.276 -2.85,2.85 0,1.574 1.276,2.85 2.85,2.85 1.574,0 2.85,-1.276 2.85,-2.85 z" /><path
       inkscape:connector-curvature="0"
       id="path230"
       style="fill:none;stroke:#000000;stroke-width:0.5;stroke-linecap:butt;stroke-linejoin:miter;stroke-miterlimit:4;stroke-dasharray:none;stroke-opacity:1"
       d="m 129.4,204.1 2.85,0" /><path
       inkscape:connector-curvature="0"
       id="path232"
       style="fill:none;stroke:#000000;stroke-width:0.5;stroke-linecap:butt;stroke-linejoin:miter;stroke-miterlimit:4;stroke-dasharray:none;stroke-opacity:1"
       d="m 130.8,205.5 0,-2.85" /><path
       inkscape:connector-curvature="0"
       id="path4660"
       style="font-variant:normal;font-weight:normal;font-size:medium;font-family:Helvetica;-inkscape-font-specification:Helvetica;writing-mode:lr-tb;fill:#000000;fill-opacity:1;fill-rule:nonzero;stroke:none"
       d="m 52.475792,213.019 -0.477905,0 0,3.04532 q -0.172577,-0.16462 -0.45401,-0.32923 -0.278778,-0.16461 -0.501801,-0.24692 l 0,0.46198 q 0.40091,0.18851 0.700928,0.45666 0.300018,0.26816 0.424805,0.52039 l 0.307983,0 0,-3.9082 z" /><path
       inkscape:connector-curvature="0"
       id="path4662"
       style="font-variant:normal;font-weight:normal;font-size:medium;font-family:Helvetica;-inkscape-font-specification:Helvetica;writing-mode:lr-tb;fill:#000000;fill-opacity:1;fill-rule:nonzero;stroke:none"
       d="m 54.434364,215.12975 q -0.297363,0.10885 -0.440735,0.31063 -0.143371,0.20179 -0.143371,0.48322 0,0.4248 0.305328,0.7142 0.305329,0.2894 0.812439,0.2894 0.509766,0 0.820404,-0.29736 0.310639,-0.29471 0.310639,-0.71952 0,-0.27081 -0.143372,-0.47259 -0.140716,-0.19913 -0.430115,-0.30798 0.358429,-0.11683 0.544281,-0.37702 0.188507,-0.26019 0.188507,-0.62128 0,-0.49914 -0.353118,-0.83898 -0.353119,-0.33985 -0.929261,-0.33985 -0.576141,0 -0.92926,0.33985 -0.353119,0.34249 -0.353119,0.85226 0,0.37967 0.191162,0.63455 0.193817,0.25754 0.549591,0.35047 z m -0.09558,0.80978 q 0,-0.27612 0.177887,-0.45136 0.177887,-0.17523 0.461975,-0.17523 0.276123,0 0.451355,0.17258 0.177887,0.17523 0.177887,0.42746 0,0.26285 -0.183197,0.44073 -0.180542,0.18055 -0.451355,0.18055 -0.273468,0 -0.45401,-0.17524 -0.180542,-0.17523 -0.180542,-0.41949 z m -0.153991,-1.79746 q 0,-0.20443 0.09558,-0.39559 0.09824,-0.19117 0.289398,-0.29737 0.191162,-0.10354 0.411529,-0.10354 0.342499,0 0.565522,0.22036 0.223022,0.22037 0.223022,0.56021 0,0.34516 -0.230987,0.57084 -0.228333,0.22567 -0.573487,0.22567 -0.337189,0 -0.560211,-0.22302 -0.220367,-0.22302 -0.220367,-0.55756 z" /><path
       inkscape:connector-curvature="0"
       id="path4645"
       style="font-variant:normal;font-weight:normal;font-size:medium;font-family:Helvetica;-inkscape-font-specification:Helvetica;writing-mode:lr-tb;fill:#000000;fill-opacity:1;fill-rule:nonzero;stroke:none"
       d="m 129.19668,174.8002 0,6.22764 0.82412,0 0,-2.55733 3.23701,0 0,2.55733 0.82412,0 0,-6.22764 -0.82412,0 0,2.9354 -3.23701,0 0,-2.9354 -0.82412,0 z" /><path
       inkscape:connector-curvature="0"
       id="path4642"
       style="font-variant:normal;font-weight:normal;font-size:medium;font-family:Helvetica;-inkscape-font-specification:Helvetica;writing-mode:lr-tb;fill:#000000;fill-opacity:1;fill-rule:nonzero;stroke:none"
       d="m 138.06605,173.72013 0,-0.55118 -3.08727,0 q -0.006,0.20709 0.0669,0.39825 0.11788,0.31542 0.37595,0.62128 0.26126,0.30586 0.75191,0.7073 0.76146,0.62446 1.02909,0.98767 0.26762,0.36639 0.26762,0.69137 0,0.3409 -0.24532,0.57348 -0.24214,0.23577 -0.63402,0.23577 -0.41419,0 -0.6627,-0.24851 -0.24851,-0.24851 -0.25169,-0.68818 l -0.58942,0.0605 q 0.0605,0.65951 0.4556,1.0036 0.39507,0.34728 1.06095,0.34728 0.67226,0 1.06414,-0.37277 0.39188,-0.37276 0.39188,-0.92395 0,-0.28037 -0.1147,-0.55118 -0.11469,-0.27081 -0.38232,-0.5703 -0.26444,-0.29949 -0.88253,-0.822 -0.51614,-0.4333 -0.6627,-0.58942 -0.14656,-0.15292 -0.24214,-0.30904 l 2.29076,0 z" /><path
       inkscape:connector-curvature="0"
       id="path4639"
       style="font-variant:normal;font-weight:normal;font-size:medium;font-family:Helvetica;-inkscape-font-specification:Helvetica;writing-mode:lr-tb;fill:#000000;fill-opacity:1;fill-rule:nonzero;stroke:none"
       d="m 138.82954,177.83331 q 0,1.55053 0.83262,2.42563 0.83261,0.87935 2.14951,0.87935 0.86235,0 1.55478,-0.41206 0.69243,-0.41206 1.05352,-1.15122 0.36533,-0.73492 0.36533,-1.66949 0,-0.94731 -0.38232,-1.69497 -0.38233,-0.74765 -1.08326,-1.13423 -0.70092,-0.38232 -1.5123,-0.38232 -0.87935,0 -1.57178,0.4248 -0.69243,0.42481 -1.04927,1.15972 -0.35683,0.73491 -0.35683,1.55479 z m 0.84961,-0.0128 q 0,-1.12573 0.60322,-1.77568 0.60747,-0.6457 1.5208,-0.6457 0.93032,0 1.5293,0.6542 0.60322,0.65419 0.60322,1.85639 0,0.7604 -0.25913,1.32539 -0.25488,0.56924 -0.7519,0.87935 -0.49278,0.31435 -1.10875,0.31435 -0.87509,0 -1.50805,-0.60322 -0.62871,-0.59897 -0.62871,-2.00508 z" /></g></svg>