<?xml version="1.0" encoding="UTF-8" standalone="no"?>
<!-- Created with Inkscape (http://www.inkscape.org/) -->

<svg
   xmlns:dc="http://purl.org/dc/elements/1.1/"
   xmlns:cc="http://creativecommons.org/ns#"
   xmlns:rdf="http://www.w3.org/1999/02/22-rdf-syntax-ns#"
   xmlns:svg="http://www.w3.org/2000/svg"
   xmlns="http://www.w3.org/2000/svg"
   xmlns:sodipodi="http://sodipodi.sourceforge.net/DTD/sodipodi-0.dtd"
   xmlns:inkscape="http://www.inkscape.org/namespaces/inkscape"
   id="svg2"
   version="1.1"
   inkscape:version="0.91 r13725"
   xml:space="preserve"
   width="113.63207"
   height="60.938229"
   viewBox="0 0 113.63207 60.938229"
   sodipodi:docname="3.svg"><metadata
     id="metadata8"><rdf:RDF><cc:Work
         rdf:about=""><dc:format>image/svg+xml</dc:format><dc:type
           rdf:resource="http://purl.org/dc/dcmitype/StillImage" /><dc:title></dc:title></cc:Work></rdf:RDF></metadata><defs
     id="defs6" /><sodipodi:namedview
     pagecolor="#ffffff"
     bordercolor="#666666"
     borderopacity="1"
     objecttolerance="10"
     gridtolerance="10"
     guidetolerance="10"
     inkscape:pageopacity="0"
     inkscape:pageshadow="2"
     inkscape:window-width="1500"
     inkscape:window-height="937"
     id="namedview4"
     showgrid="false"
     inkscape:zoom="0.95837563"
     inkscape:cx="-123.0372"
     inkscape:cy="-237.55286"
     inkscape:window-x="-8"
     inkscape:window-y="1192"
     inkscape:window-maximized="1"
     inkscape:current-layer="g10" /><g
     id="g10"
     inkscape:groupmode="layer"
     inkscape:label="ink_ext_XXXXXX"
     transform="matrix(1.25,0,0,-1.25,-34.786172,64.482908)"><path
       inkscape:connector-curvature="0"
       id="path4534"
       style="font-variant:normal;font-weight:normal;font-size:medium;font-family:Helvetica;-inkscape-font-specification:Helvetica;writing-mode:lr-tb;fill:#000000;fill-opacity:1;fill-rule:nonzero;stroke:none"
       d="m 64.204697,27.161724 1.136718,-0.287109 q -0.357421,-1.400391 -1.289062,-2.138672 -0.925781,-0.732422 -2.267578,-0.732422 -1.388672,0 -2.261719,0.5625 -0.867187,0.568359 -1.324219,1.640625 -0.451172,1.072266 -0.451172,2.302734 0,1.341797 0.509766,2.337891 0.515625,1.001953 1.458984,1.517578 0.949219,0.521484 2.085938,0.521484 1.289062,0 2.167969,-0.65625 0.878906,-0.65625 1.224609,-1.845703 L 64.07579,30.120708 q -0.298828,0.9375 -0.867187,1.365235 -0.568359,0.427734 -1.429688,0.427734 -0.990234,0 -1.658203,-0.474609 -0.662109,-0.47461 -0.93164,-1.277344 -0.269532,-0.796875 -0.269532,-1.646484 0,-1.095703 0.316407,-1.916016 0.322265,-0.814453 0.996093,-1.21875 0.673829,-0.404297 1.458985,-0.404297 0.955078,0 1.617187,0.550781 0.66211,0.550782 0.896485,1.634766 z" /><path
       inkscape:connector-curvature="0"
       id="path4536"
       style="font-variant:normal;font-weight:normal;font-size:medium;font-family:Helvetica;-inkscape-font-specification:Helvetica;writing-mode:lr-tb;fill:#000000;fill-opacity:1;fill-rule:nonzero;stroke:none"
       d="m 72.868698,27.161724 1.136719,-0.287109 q -0.357422,-1.400391 -1.289063,-2.138672 -0.925781,-0.732422 -2.267578,-0.732422 -1.388672,0 -2.261719,0.5625 -0.867187,0.568359 -1.324218,1.640625 -0.451172,1.072266 -0.451172,2.302734 0,1.341797 0.509765,2.337891 0.515625,1.001953 1.458985,1.517578 0.949219,0.521484 2.085937,0.521484 1.289063,0 2.167969,-0.65625 0.878906,-0.65625 1.224609,-1.845703 l -1.11914,-0.263672 q -0.298828,0.9375 -0.867188,1.365235 -0.568359,0.427734 -1.429687,0.427734 -0.990235,0 -1.658203,-0.474609 -0.66211,-0.47461 -0.931641,-1.277344 -0.269531,-0.796875 -0.269531,-1.646484 0,-1.095703 0.316406,-1.916016 0.322266,-0.814453 0.996094,-1.21875 0.673828,-0.404297 1.458984,-0.404297 0.955078,0 1.617188,0.550781 0.662109,0.550782 0.896484,1.634766 z" /><path
       inkscape:connector-curvature="0"
       id="path4538"
       style="font-variant:normal;font-weight:normal;font-size:medium;font-family:Helvetica;-inkscape-font-specification:Helvetica;writing-mode:lr-tb;fill:#000000;fill-opacity:1;fill-rule:nonzero;stroke:none"
       d="m 81.5327,27.161724 1.136718,-0.287109 q -0.357422,-1.400391 -1.289062,-2.138672 -0.925781,-0.732422 -2.267578,-0.732422 -1.388672,0 -2.261719,0.5625 -0.867188,0.568359 -1.324219,1.640625 -0.451172,1.072266 -0.451172,2.302734 0,1.341797 0.509766,2.337891 0.515625,1.001953 1.458984,1.517578 0.949219,0.521484 2.085938,0.521484 1.289062,0 2.167969,-0.65625 0.878906,-0.65625 1.224609,-1.845703 l -1.119141,-0.263672 q -0.298828,0.9375 -0.867187,1.365235 -0.56836,0.427734 -1.429688,0.427734 -0.990234,0 -1.658203,-0.474609 -0.662109,-0.47461 -0.93164,-1.277344 -0.269532,-0.796875 -0.269532,-1.646484 0,-1.095703 0.316407,-1.916016 0.322265,-0.814453 0.996093,-1.21875 0.673828,-0.404297 1.458985,-0.404297 0.955078,0 1.617187,0.550781 0.66211,0.550782 0.896485,1.634766 z" /><path
       inkscape:connector-curvature="0"
       id="path4540"
       style="font-variant:normal;font-weight:normal;font-size:medium;font-family:Helvetica;-inkscape-font-specification:Helvetica;writing-mode:lr-tb;fill:#000000;fill-opacity:1;fill-rule:nonzero;stroke:none"
       d="m 84.102951,24.150005 0,8.589844 1.136719,0 0,-3.527344 4.464844,0 0,3.527344 1.136718,0 0,-8.589844 -1.136718,0 0,4.048828 -4.464844,0 0,-4.048828 -1.136719,0 z" /><text
       transform="scale(1,-1)"
       style="font-variant:normal;font-weight:normal;font-size:9px;font-family:Helvetica;-inkscape-font-specification:Helvetica;writing-mode:lr-tb;fill:#000000;fill-opacity:1;fill-rule:nonzero;stroke:none"
       id="text92"
       x="91.805908"
       y="-21.9"><tspan
         x="91.805908"
         y="-21.9"
         id="tspan94">2</tspan></text>
<text
       transform="scale(1,-1)"
       style="font-variant:normal;font-weight:normal;font-size:12px;font-family:Helvetica;-inkscape-font-specification:Helvetica;writing-mode:lr-tb;fill:#000000;fill-opacity:1;fill-rule:nonzero;stroke:none"
       id="text96"
       x="96.809822"
       y="-24.15"><tspan
         x="96.809822 105.47382"
         y="-24.15"
         sodipodi:role="line"
         id="tspan98">CH</tspan></text>
<text
       transform="scale(1,-1)"
       style="font-variant:normal;font-weight:normal;font-size:9px;font-family:Helvetica;-inkscape-font-specification:Helvetica;writing-mode:lr-tb;fill:#000000;fill-opacity:1;fill-rule:nonzero;stroke:none"
       id="text100"
       x="114.13792"
       y="-21.9"><tspan
         x="114.13792"
         y="-21.9"
         id="tspan102">3</tspan></text>
<text
       transform="scale(1,-1)"
       style="font-variant:normal;font-weight:normal;font-size:12px;font-family:Helvetica;-inkscape-font-specification:Helvetica;writing-mode:lr-tb;fill:#000000;fill-opacity:1;fill-rule:nonzero;stroke:none"
       id="text118"
       x="26.868"
       y="-24.15"><tspan
         x="26.868 35.531998"
         y="-24.15"
         sodipodi:role="line"
         id="tspan120">HC</tspan></text>
<path
       inkscape:connector-curvature="0"
       id="path122"
       style="fill:#000000;fill-opacity:1;fill-rule:nonzero;stroke:none"
       d="m 46.05,25.8 9.35,0 0,0.9 -9.35,0 0,-0.9 z" /><path
       inkscape:connector-curvature="0"
       id="path124"
       style="fill:#000000;fill-opacity:1;fill-rule:nonzero;stroke:none"
       d="m 46.05,28.4 9.35,0 0,0.9 -9.35,0 0,-0.9 z" /><path
       inkscape:connector-curvature="0"
       id="path126"
       style="fill:#000000;fill-opacity:1;fill-rule:nonzero;stroke:none"
       d="m 46.05,31 9.35,0 0,0.9 -9.35,0 0,-0.9 z" /><text
       transform="scale(1,-1)"
       style="font-variant:normal;font-weight:normal;font-size:12px;font-family:Helvetica;-inkscape-font-specification:Helvetica;writing-mode:lr-tb;fill:#000000;fill-opacity:1;fill-rule:nonzero;stroke:none"
       id="text130"
       x="65.849998"
       y="-42.849998"><tspan
         x="65.849998 74.514"
         y="-42.849998"
         sodipodi:role="line"
         id="tspan132">CH</tspan></text>
<text
       transform="scale(1,-1)"
       style="font-variant:normal;font-weight:normal;font-size:9px;font-family:Helvetica;-inkscape-font-specification:Helvetica;writing-mode:lr-tb;fill:#000000;fill-opacity:1;fill-rule:nonzero;stroke:none"
       id="text134"
       x="83.178101"
       y="-40.599998"><tspan
         x="83.178101"
         y="-40.599998"
         id="tspan136">3</tspan></text>
<path
       inkscape:connector-curvature="0"
       id="path138"
       style="fill:#000000;fill-opacity:1;fill-rule:nonzero;stroke:none"
       d="m 69.7,35.15 0.9,0 0,5.1 -0.9,0 0,-5.1 z" /><text
       transform="scale(1,-1)"
       style="font-variant:normal;font-weight:normal;font-size:12px;font-family:Helvetica;-inkscape-font-specification:Helvetica;writing-mode:lr-tb;fill:#000000;fill-opacity:1;fill-rule:nonzero;stroke:none"
       id="text142"
       x="65.849998"
       y="-5.1999998"><tspan
         x="65.849998 74.514"
         y="-5.1999998"
         sodipodi:role="line"
         id="tspan144">CH</tspan></text>
<text
       transform="scale(1,-1)"
       style="font-variant:normal;font-weight:normal;font-size:9px;font-family:Helvetica;-inkscape-font-specification:Helvetica;writing-mode:lr-tb;fill:#000000;fill-opacity:1;fill-rule:nonzero;stroke:none"
       id="text146"
       x="83.178101"
       y="-2.95"><tspan
         x="83.178101"
         y="-2.95"
         id="tspan148">3</tspan></text>
<path
       inkscape:connector-curvature="0"
       id="path150"
       style="fill:#000000;fill-opacity:1;fill-rule:nonzero;stroke:none"
       d="m 69.7,16.15 0.9,0 0,5.4 -0.9,0 0,-5.4 z" /></g></svg>