<?xml version="1.0" encoding="UTF-8" standalone="no"?>
<!-- Created with Inkscape (http://www.inkscape.org/) -->

<svg
   xmlns:dc="http://purl.org/dc/elements/1.1/"
   xmlns:cc="http://creativecommons.org/ns#"
   xmlns:rdf="http://www.w3.org/1999/02/22-rdf-syntax-ns#"
   xmlns:svg="http://www.w3.org/2000/svg"
   xmlns="http://www.w3.org/2000/svg"
   xmlns:sodipodi="http://sodipodi.sourceforge.net/DTD/sodipodi-0.dtd"
   xmlns:inkscape="http://www.inkscape.org/namespaces/inkscape"
   id="svg2"
   version="1.1"
   inkscape:version="0.91 r13725"
   xml:space="preserve"
   width="354.35785"
   height="105.73292"
   viewBox="0 0 354.35785 105.73292"
   sodipodi:docname="stereocenters-and-chirality-thin-large.eps"><metadata
     id="metadata8"><rdf:RDF><cc:Work
         rdf:about=""><dc:format>image/svg+xml</dc:format><dc:type
           rdf:resource="http://purl.org/dc/dcmitype/StillImage" /><dc:title></dc:title></cc:Work></rdf:RDF></metadata><defs
     id="defs6" /><sodipodi:namedview
     pagecolor="#ffffff"
     bordercolor="#666666"
     borderopacity="1"
     objecttolerance="10"
     gridtolerance="10"
     guidetolerance="10"
     inkscape:pageopacity="0"
     inkscape:pageshadow="2"
     inkscape:window-width="1500"
     inkscape:window-height="937"
     id="namedview4"
     showgrid="false"
     inkscape:zoom="1.6206009"
     inkscape:cx="121.32672"
     inkscape:cy="-51.745001"
     inkscape:window-x="-8"
     inkscape:window-y="-8"
     inkscape:window-maximized="1"
     inkscape:current-layer="g10" /><g
     id="g10"
     inkscape:groupmode="layer"
     inkscape:label="ink_ext_XXXXXX"
     transform="matrix(1.25,0,0,-1.25,-19.9375,264.79542)"><text
       transform="scale(1,-1)"
       style="font-variant:normal;font-weight:normal;font-size:12px;font-family:Helvetica;-inkscape-font-specification:Helvetica;writing-mode:lr-tb;fill:#000000;fill-opacity:1;fill-rule:nonzero;stroke:none"
       id="text18"
       x="49.25"
       y="-180.89999"><tspan
         x="49.25"
         y="-180.89999"
         id="tspan20">N</tspan></text>
<path
       inkscape:connector-curvature="0"
       id="path22"
       style="fill:#000000;fill-opacity:1;fill-rule:nonzero;stroke:none"
       d="m 47.6,189.6 -0.45,-0.75 -12.25,7.05 0,1.05" /><text
       transform="scale(1,-1)"
       style="font-variant:normal;font-weight:normal;font-size:12px;font-family:Helvetica;-inkscape-font-specification:Helvetica;writing-mode:lr-tb;fill:#000000;fill-opacity:1;fill-rule:nonzero;stroke:none"
       id="text26"
       x="68"
       y="-191.7"><tspan
         x="68 76.664001"
         y="-191.7"
         sodipodi:role="line"
         id="tspan28">CH</tspan></text>
<text
       transform="scale(1,-1)"
       style="font-variant:normal;font-weight:normal;font-size:9px;font-family:Helvetica;-inkscape-font-specification:Helvetica;writing-mode:lr-tb;fill:#000000;fill-opacity:1;fill-rule:nonzero;stroke:none"
       id="text30"
       x="85.328102"
       y="-189.45"><tspan
         x="85.328102"
         y="-189.45"
         id="tspan32">3</tspan></text>
<path
       inkscape:connector-curvature="0"
       id="path34"
       style="fill:#000000;fill-opacity:1;fill-rule:nonzero;stroke:none"
       d="m 66.35,193.5 0.45,-0.8 -6.75,-3.9 -0.45,0.8" /><text
       transform="scale(1,-1)"
       style="font-variant:normal;font-weight:normal;font-size:12px;font-family:Helvetica;-inkscape-font-specification:Helvetica;writing-mode:lr-tb;fill:#000000;fill-opacity:1;fill-rule:nonzero;stroke:none"
       id="text38"
       x="49.25"
       y="-159.35001"><tspan
         x="49.25"
         y="-159.35001"
         id="tspan40">H</tspan></text>
<path
       inkscape:connector-curvature="0"
       id="path42"
       style="fill:#000000;fill-opacity:1;fill-rule:nonzero;stroke:none"
       d="m 53.15,170.2 0.9,0 0,8.35 -0.9,0 0,-8.35 z" /><path
       inkscape:connector-curvature="0"
       id="path44"
       style="fill:#000000;fill-opacity:1;fill-rule:nonzero;stroke:none"
       d="m 16.4,185.25 -0.45,0.75 18.95,10.95 0,-1.05" /><path
       inkscape:connector-curvature="0"
       id="path46"
       style="fill:#000000;fill-opacity:1;fill-rule:nonzero;stroke:none"
       d="m 292.85,186.9 0.45,-0.7 -0.9,-0.1 -27.5,12.35 -0.15,1.05" /><path
       inkscape:connector-curvature="0"
       id="path48"
       style="fill:#000000;fill-opacity:1;fill-rule:nonzero;stroke:none"
       d="m 244,182.35 -0.85,-0.1 0.45,0.9 21.15,16.35 0.15,-1.05" /><path
       inkscape:connector-curvature="0"
       id="path50"
       style="fill:#000000;fill-opacity:1;fill-rule:nonzero;stroke:none"
       d="m 271.65,168.95 -0.15,1.05 20.9,16.1 0.9,0.1 -0.45,-0.9" /><path
       inkscape:connector-curvature="0"
       id="path52"
       style="fill:#000000;fill-opacity:1;fill-rule:nonzero;stroke:none"
       d="m 271.5,170 0.15,-1.05 -28.05,12.6 -0.45,0.7 0.85,0.1" /><text
       transform="scale(1,-1)"
       style="font-variant:normal;font-weight:normal;font-size:12px;font-family:Helvetica;-inkscape-font-specification:Helvetica;writing-mode:lr-tb;fill:#000000;fill-opacity:1;fill-rule:nonzero;stroke:none"
       id="text56"
       x="288.95001"
       y="-203.10001"><tspan
         x="288.95001 297.61401"
         y="-203.10001"
         sodipodi:role="line"
         id="tspan58">Cl</tspan></text>
<path
       inkscape:connector-curvature="0"
       id="path60"
       style="fill:#000000;fill-opacity:1;fill-rule:nonzero;stroke:none"
       d="m 292.85,200.6 0.9,0 0,-14.4 -0.45,0 -0.45,0.7" /><text
       transform="scale(1,-1)"
       style="font-variant:normal;font-weight:normal;font-size:12px;font-family:Helvetica;-inkscape-font-specification:Helvetica;writing-mode:lr-tb;fill:#000000;fill-opacity:1;fill-rule:nonzero;stroke:none"
       id="text64"
       x="238.8"
       y="-199.14999"><tspan
         x="238.8 247.464"
         y="-199.14999"
         sodipodi:role="line"
         id="tspan66">Cl</tspan></text>
<path
       inkscape:connector-curvature="0"
       id="path68"
       style="fill:#000000;fill-opacity:1;fill-rule:nonzero;stroke:none"
       d="m 242.7,196.65 0.9,0 0,-13.5 -0.45,-0.9 -0.45,0" /><text
       transform="scale(1,-1)"
       style="font-variant:normal;font-weight:normal;font-size:12px;font-family:Helvetica;-inkscape-font-specification:Helvetica;writing-mode:lr-tb;fill:#000000;fill-opacity:1;fill-rule:nonzero;stroke:none"
       id="text72"
       x="238.8"
       y="-155.95"><tspan
         x="238.8"
         y="-155.95"
         id="tspan74">H</tspan></text>
<path
       inkscape:connector-curvature="0"
       id="path76"
       style="fill:#000000;fill-opacity:1;fill-rule:nonzero;stroke:none"
       d="m 243.6,166.8 -0.9,0 0,15.45 0.45,0 0.45,-0.7" /><text
       transform="scale(1,-1)"
       style="font-variant:normal;font-weight:normal;font-size:12px;font-family:Helvetica;-inkscape-font-specification:Helvetica;writing-mode:lr-tb;fill:#000000;fill-opacity:1;fill-rule:nonzero;stroke:none"
       id="text80"
       x="288.95001"
       y="-159.89999"><tspan
         x="288.95001"
         y="-159.89999"
         id="tspan82">H</tspan></text>
<path
       inkscape:connector-curvature="0"
       id="path84"
       style="fill:#000000;fill-opacity:1;fill-rule:nonzero;stroke:none"
       d="m 293.75,170.8 -0.9,0 0,14.5 0.45,0.9 0.45,0" /><path
       inkscape:connector-curvature="0"
       id="path86"
       style="fill:#000000;fill-opacity:1;fill-rule:nonzero;stroke:none"
       d="m 141.8,177.4 0.5,-0.25 0,-0.5 -18.5,-10.65 -0.45,0.75" /><path
       inkscape:connector-curvature="0"
       id="path88"
       style="fill:#000000;fill-opacity:1;fill-rule:nonzero;stroke:none"
       d="m 161,166.9 0,-1.05 -18.7,10.8 0,0.5 0.45,0.25" /><path
       inkscape:connector-curvature="0"
       id="path90"
       style="fill:#000000;fill-opacity:1;fill-rule:nonzero;stroke:none"
       d="m 179.2,177.4 0.5,-0.25 0,-0.5 -18.7,-10.8 0,1.05" /><path
       inkscape:connector-curvature="0"
       id="path92"
       style="fill:#000000;fill-opacity:1;fill-rule:nonzero;stroke:none"
       d="m 198.65,166.75 -0.45,-0.75 -18.5,10.65 0,0.5 0.5,0.25" /><text
       transform="scale(1,-1)"
       style="font-variant:normal;font-weight:normal;font-size:12px;font-family:Helvetica;-inkscape-font-specification:Helvetica;writing-mode:lr-tb;fill:#000000;fill-opacity:1;fill-rule:nonzero;stroke:none"
       id="text96"
       x="138.3"
       y="-194.05"><tspan
         x="138.3 146.304"
         y="-194.05"
         sodipodi:role="line"
         id="tspan98">Br</tspan></text>
<path
       inkscape:connector-curvature="0"
       id="path100"
       style="fill:#000000;fill-opacity:1;fill-rule:nonzero;stroke:none"
       d="m 140.05,191.7 4.5,0 -1.8,-14.3 -0.45,-0.25 -0.5,0.25" /><text
       transform="scale(1,-1)"
       style="font-variant:normal;font-weight:normal;font-size:12px;font-family:Helvetica;-inkscape-font-specification:Helvetica;writing-mode:lr-tb;fill:#000000;fill-opacity:1;fill-rule:nonzero;stroke:none"
       id="text104"
       x="175.7"
       y="-194.05"><tspan
         x="175.7 183.70399"
         y="-194.05"
         sodipodi:role="line"
         id="tspan106">Br</tspan></text>
<path
       inkscape:connector-curvature="0"
       id="path108"
       style="fill:#000000;fill-opacity:1;fill-rule:nonzero;stroke:none"
       d="m 177.45,191.7 4.5,0 -1.75,-14.3 -0.5,-0.25 -0.5,0.25" /><text
       transform="scale(1,-1)"
       style="font-variant:normal;font-weight:normal;font-size:12px;font-family:'Times New Roman';-inkscape-font-specification:Times-Roman;writing-mode:lr-tb;fill:#000000;fill-opacity:1;fill-rule:nonzero;stroke:none"
       id="text112"
       x="261.45001"
       y="-127.25"><tspan
         x="261.45001 265.44601 269.44199 51.300007 156.3 160.29601"
         y="-127.25"
         sodipodi:role="line"
         id="tspan114">IIIIII</tspan></text>
</g></svg>