<?xml version="1.0" encoding="UTF-8" standalone="no"?>
<!-- Created with Inkscape (http://www.inkscape.org/) -->

<svg
   xmlns:dc="http://purl.org/dc/elements/1.1/"
   xmlns:cc="http://creativecommons.org/ns#"
   xmlns:rdf="http://www.w3.org/1999/02/22-rdf-syntax-ns#"
   xmlns:svg="http://www.w3.org/2000/svg"
   xmlns="http://www.w3.org/2000/svg"
   xmlns:sodipodi="http://sodipodi.sourceforge.net/DTD/sodipodi-0.dtd"
   xmlns:inkscape="http://www.inkscape.org/namespaces/inkscape"
   id="svg2"
   version="1.1"
   inkscape:version="0.91 r13725"
   xml:space="preserve"
   width="122.93102"
   height="122.79609"
   viewBox="0 0 122.93102 122.79609"
   sodipodi:docname="1.svg"><metadata
     id="metadata8"><rdf:RDF><cc:Work
         rdf:about=""><dc:format>image/svg+xml</dc:format><dc:type
           rdf:resource="http://purl.org/dc/dcmitype/StillImage" /><dc:title></dc:title></cc:Work></rdf:RDF></metadata><defs
     id="defs6" /><sodipodi:namedview
     pagecolor="#ffffff"
     bordercolor="#666666"
     borderopacity="1"
     objecttolerance="10"
     gridtolerance="10"
     guidetolerance="10"
     inkscape:pageopacity="0"
     inkscape:pageshadow="2"
     inkscape:window-width="1500"
     inkscape:window-height="937"
     id="namedview4"
     showgrid="false"
     inkscape:zoom="1.9140037"
     inkscape:cx="18.838778"
     inkscape:cy="25.266217"
     inkscape:window-x="-8"
     inkscape:window-y="1192"
     inkscape:window-maximized="1"
     inkscape:current-layer="g10" /><g
     id="g10"
     inkscape:groupmode="layer"
     inkscape:label="ink_ext_XXXXXX"
     transform="matrix(1.25,0,0,-1.25,-15.131464,265.62499)"><path
       inkscape:connector-curvature="0"
       id="path102"
       style="fill:none;stroke:#000000;stroke-width:0.89997995;stroke-linecap:butt;stroke-linejoin:miter;stroke-miterlimit:4;stroke-dasharray:none;stroke-opacity:1"
       d="m 23.9,125.95 0,86.1 86.1,0 0,-86.1 -86.1,0" /><path
       inkscape:connector-curvature="0"
       id="path104"
       style="fill:none;stroke:#000000;stroke-width:0.69999999;stroke-linecap:butt;stroke-linejoin:miter;stroke-miterlimit:4;stroke-dasharray:none;stroke-opacity:1"
       d="m 95.25,122.35 -65.3,0" /><path
       inkscape:connector-curvature="0"
       id="path106"
       style="fill:#000000;fill-opacity:1;fill-rule:nonzero;stroke:none"
       d="m 103.1,122.35 -9,2.35 c 0,0 1.1,-1.35 1.1,-2.35 0,-1 -1.1,-2.3 -1.1,-2.3 l 9,2.3 0,0" /><path
       inkscape:connector-curvature="0"
       id="path108"
       style="fill:none;stroke:#000000;stroke-width:0.69999999;stroke-linecap:butt;stroke-linejoin:miter;stroke-miterlimit:4;stroke-dasharray:none;stroke-opacity:1"
       d="m 20.85,186.75 0,-42.95" /><path
       inkscape:connector-curvature="0"
       id="path110"
       style="fill:#000000;fill-opacity:1;fill-rule:nonzero;stroke:none"
       d="m 20.85,194.55 -2.35,-9 c 0,0 1.35,1.15 2.35,1.15 1.05,0 2.3,-1.15 2.3,-1.15 l -2.3,9 0,0" /><path
       inkscape:connector-curvature="0"
       id="path4597"
       style="font-variant:normal;font-weight:normal;font-size:medium;font-family:Helvetica;-inkscape-font-specification:Helvetica;writing-mode:lr-tb;fill:#000000;fill-opacity:1;fill-rule:nonzero;stroke:none"
       d="m 17.200001,156.713 -5.09483,0 0,3.68384 0.601232,0 0,-3.00963 1.560422,0 0,2.81849 0.597756,0 0,-2.81849 1.734188,0 0,3.12779 0.601232,0 0,-3.802 z" /><path
       inkscape:connector-curvature="0"
       id="path4599"
       style="font-variant:normal;font-weight:normal;font-size:medium;font-family:Helvetica;-inkscape-font-specification:Helvetica;writing-mode:lr-tb;fill:#000000;fill-opacity:1;fill-rule:nonzero;stroke:none"
       d="m 17.200001,161.36652 -3.690798,0 0,0.56301 0.524775,0 q -0.608182,0.40661 -0.608182,1.17466 0,0.33363 0.121636,0.61165 0.118161,0.28151 0.312779,0.42052 0.194619,0.13901 0.462219,0.19462 0.173766,0.0348 0.608182,0.0348 l 2.269389,0 0,-0.62556 -2.245062,0 q -0.382285,0 -0.569953,-0.073 -0.191143,-0.073 -0.302354,-0.26065 -0.114685,-0.18419 -0.114685,-0.43442 0,-0.39966 0.253698,-0.69159 0.253699,-0.28845 0.962666,-0.28845 l 2.01569,0 0,-0.62556 z" /><path
       inkscape:connector-curvature="0"
       id="path4601"
       style="font-variant:normal;font-weight:normal;font-size:medium;font-family:Helvetica;-inkscape-font-specification:Helvetica;writing-mode:lr-tb;fill:#000000;fill-opacity:1;fill-rule:nonzero;stroke:none"
       d="m 16.011439,167.85039 0.07993,0.64641 q 0.566479,-0.15291 0.879258,-0.56648 0.31278,-0.41356 0.31278,-1.05649 0,-0.80976 -0.496972,-1.28588 -0.500447,-0.47264 -1.400557,-0.47264 -0.931388,0 -1.445736,0.47959 -0.514348,0.4796 -0.514348,1.24417 0,0.74025 0.503922,1.20942 0.503922,0.46916 1.417933,0.46916 0.05561,0 0.166816,-0.003 l 0,-2.75246 q 0.608182,0.0348 0.931388,0.34406 0.323205,0.3093 0.323205,0.77152 0,0.34406 -0.180717,0.58733 -0.180717,0.24327 -0.576904,0.38576 z m -1.01132,-2.05392 0,2.06087 q -0.465694,-0.0417 -0.698541,-0.23632 -0.361434,-0.29888 -0.361434,-0.775 0,-0.43094 0.288452,-0.72634 0.288452,-0.29193 0.771523,-0.32321 z" /><path
       inkscape:connector-curvature="0"
       id="path4603"
       style="font-variant:normal;font-weight:normal;font-size:medium;font-family:Helvetica;-inkscape-font-specification:Helvetica;writing-mode:lr-tb;fill:#000000;fill-opacity:1;fill-rule:nonzero;stroke:none"
       d="m 17.200001,169.2742 -3.690798,0 0,0.563 0.559528,0 q -0.392712,0.21547 -0.517824,0.39619 -0.125111,0.18419 -0.125111,0.40314 0,0.31625 0.201569,0.64293 l 0.580379,-0.21547 q -0.135538,-0.22937 -0.135538,-0.45874 0,-0.20504 0.125112,-0.36838 0.121637,-0.16335 0.340582,-0.23285 0.333632,-0.10426 0.729819,-0.10426 l 1.932282,0 0,-0.62556 z" /><path
       inkscape:connector-curvature="0"
       id="path4605"
       style="font-variant:normal;font-weight:normal;font-size:medium;font-family:Helvetica;-inkscape-font-specification:Helvetica;writing-mode:lr-tb;fill:#000000;fill-opacity:1;fill-rule:nonzero;stroke:none"
       d="m 17.50583,171.53658 0.09036,0.60818 q 0.281502,0.0382 0.410089,0.212 0.173766,0.23285 0.173766,0.63598 0,0.43442 -0.173766,0.67074 -0.173767,0.23632 -0.486546,0.31973 -0.191143,0.0487 -0.802801,0.0452 0.483071,-0.41009 0.483071,-1.02174 0,-0.7611 -0.549102,-1.17814 -0.549102,-0.41704 -1.317149,-0.41704 -0.52825,0 -0.973091,0.19114 -0.448318,0.19115 -0.691591,0.55258 -0.243272,0.36491 -0.243272,0.85493 0,0.65336 0.528249,1.07735 l -0.444842,0 0,0.57691 3.190351,0 q 0.861881,0 1.219839,-0.17725 0.361434,-0.17376 0.569954,-0.55605 0.20852,-0.37881 0.20852,-0.93486 0,-0.66031 -0.298878,-1.06693 -0.295403,-0.40661 -0.893159,-0.39271 z m -2.217259,0.51783 q 0.726343,0 1.059975,0.28845 0.333631,0.28845 0.333631,0.72287 0,0.43094 -0.330156,0.72286 -0.333631,0.29193 -1.042598,0.29193 -0.677689,0 -1.021746,-0.30235 -0.344058,-0.29888 -0.344058,-0.72287 0,-0.41704 0.340582,-0.70897 0.337107,-0.29192 1.00437,-0.29192 z" /><path
       inkscape:connector-curvature="0"
       id="path4607"
       style="font-variant:normal;font-weight:normal;font-size:medium;font-family:Helvetica;-inkscape-font-specification:Helvetica;writing-mode:lr-tb;fill:#000000;fill-opacity:1;fill-rule:nonzero;stroke:none"
       d="m 18.62141,175.58077 -0.587331,-0.0695 q 0.0556,0.20505 0.0556,0.35796 0,0.20852 -0.06951,0.33363 -0.06951,0.12512 -0.194618,0.20505 -0.09383,0.0591 -0.465694,0.19114 -0.05213,0.0174 -0.152915,0.0556 l -3.697748,-1.40056 0,0.67421 2.137327,0.76805 q 0.406613,0.14944 0.85493,0.2676 -0.430941,0.10774 -0.841029,0.25718 l -2.151228,0.78889 0,0.62556 3.753354,-1.40403 q 0.608182,-0.2259 0.837553,-0.35101 0.309305,-0.16681 0.451793,-0.38228 0.145964,-0.21547 0.145964,-0.51435 0,-0.18072 -0.07646,-0.40314 z" /><path
       inkscape:connector-curvature="0"
       id="path4560"
       style="font-variant:normal;font-weight:normal;font-size:medium;font-family:Helvetica;-inkscape-font-specification:Helvetica;writing-mode:lr-tb;fill:#000000;fill-opacity:1;fill-rule:nonzero;stroke:none"
       d="m 32.509528,114.35 0,5.09483 2.258963,0 q 0.681164,0 1.035647,-0.13902 0.354484,-0.13553 0.566479,-0.48307 0.211995,-0.34753 0.211995,-0.76804 0,-0.54215 -0.351008,-0.91401 -0.351008,-0.37186 -1.084302,-0.47265 0.2676,-0.12859 0.406613,-0.2537 0.295403,-0.27107 0.559528,-0.67769 l 0.886208,-1.38665 -0.84798,0 -0.674213,1.05997 q -0.295403,0.45875 -0.486546,0.70202 -0.191143,0.24327 -0.344057,0.34058 -0.14944,0.0973 -0.305829,0.13554 -0.114686,0.0243 -0.375336,0.0243 l -0.781948,0 0,-2.26244 -0.674214,0 z m 0.674214,2.84629 1.449211,0 q 0.462219,0 0.722868,0.0938 0.26065,0.0973 0.396188,0.30582 0.135537,0.212 0.135537,0.45875 0,0.36143 -0.264125,0.59428 -0.260649,0.23284 -0.827127,0.23284 l -1.612552,0 0,-1.68553 z" /><path
       inkscape:connector-curvature="0"
       id="path4562"
       style="font-variant:normal;font-weight:normal;font-size:medium;font-family:Helvetica;-inkscape-font-specification:Helvetica;writing-mode:lr-tb;fill:#000000;fill-opacity:1;fill-rule:nonzero;stroke:none"
       d="m 40.084546,115.53856 0.646411,-0.0799 q -0.152915,-0.56648 -0.566479,-0.87926 -0.413564,-0.31278 -1.056499,-0.31278 -0.809751,0 -1.285871,0.49697 -0.472645,0.50045 -0.472645,1.40056 0,0.93139 0.479595,1.44574 0.479596,0.51434 1.244168,0.51434 0.740244,0 1.209413,-0.50392 0.469169,-0.50392 0.469169,-1.41793 0,-0.0556 -0.0035,-0.16682 l -2.752459,0 q 0.03475,-0.60818 0.344058,-0.93139 0.309304,-0.3232 0.771522,-0.3232 0.344057,0 0.58733,0.18072 0.243273,0.18071 0.385762,0.5769 z m -2.053919,1.01132 2.060869,0 q -0.0417,0.46569 -0.236322,0.69854 -0.298878,0.36144 -0.774998,0.36144 -0.43094,0 -0.726343,-0.28846 -0.291928,-0.28845 -0.323206,-0.77152 z" /><path
       inkscape:connector-curvature="0"
       id="path4564"
       style="font-variant:normal;font-weight:normal;font-size:medium;font-family:Helvetica;-inkscape-font-specification:Helvetica;writing-mode:lr-tb;fill:#000000;fill-opacity:1;fill-rule:nonzero;stroke:none"
       d="m 43.923698,114.80527 q -0.347533,-0.29541 -0.670738,-0.41704 -0.31973,-0.12164 -0.688115,-0.12164 -0.608182,0 -0.934863,0.2954 -0.32668,0.29888 -0.32668,0.7611 0,0.27108 0.121636,0.4935 0.125112,0.22589 0.323205,0.36143 0.201569,0.13554 0.451793,0.20504 0.184192,0.0487 0.556052,0.0938 0.757622,0.0904 1.11558,0.21547 0.0035,0.12859 0.0035,0.16334 0,0.38229 -0.177242,0.53867 -0.239798,0.212 -0.712442,0.212 -0.441367,0 -0.653362,-0.15639 -0.208519,-0.15291 -0.309304,-0.54563 l -0.611657,0.0834 q 0.08341,0.39271 0.27455,0.63251 0.191143,0.24327 0.552577,0.37186 0.361435,0.13206 0.837554,0.13206 0.472645,0 0.768048,-0.11121 0.295402,-0.11121 0.434415,-0.2815 0.139014,-0.16681 0.194619,-0.42399 0.03128,-0.15986 0.03128,-0.5769 l 0,-0.83408 q 0,-0.87231 0.03823,-1.10515 0.0417,-0.22938 0.159865,-0.44137 l -0.653361,0 q -0.09731,0.19462 -0.125112,0.45527 z m -0.05213,1.39708 q -0.340582,-0.13902 -1.021746,-0.23632 -0.385761,-0.0556 -0.545626,-0.12512 -0.159865,-0.0695 -0.246749,-0.20504 -0.08688,-0.13206 -0.08688,-0.2954 0,-0.25023 0.187668,-0.41704 0.191143,-0.16682 0.556052,-0.16682 0.361434,0 0.642936,0.15639 0.281501,0.15987 0.413564,0.43442 0.100784,0.21199 0.100784,0.62556 l 0,0.22937 z" /><path
       inkscape:connector-curvature="0"
       id="path4566"
       style="font-variant:normal;font-weight:normal;font-size:medium;font-family:Helvetica;-inkscape-font-specification:Helvetica;writing-mode:lr-tb;fill:#000000;fill-opacity:1;fill-rule:nonzero;stroke:none"
       d="m 47.881012,115.7019 0.615133,-0.0799 q -0.100785,-0.63599 -0.517824,-0.99742 -0.413564,-0.35796 -1.018271,-0.35796 -0.757621,0 -1.21984,0.4935 -0.458743,0.49697 -0.458743,1.42141 0,0.59775 0.198094,1.04607 0.198093,0.44832 0.601231,0.67074 0.406614,0.22589 0.882733,0.22589 0.601232,0 0.983518,-0.30583 0.382286,-0.30235 0.490021,-0.86188 l -0.608182,-0.0938 q -0.08688,0.37186 -0.309304,0.55953 -0.218946,0.18767 -0.531725,0.18767 -0.472645,0 -0.768048,-0.34059 -0.295402,-0.3371 -0.295402,-1.0704 0,-0.74372 0.284976,-1.08082 0.284977,-0.33711 0.74372,-0.33711 0.368385,0 0.615133,0.2259 0.246748,0.22589 0.31278,0.69506 z" /><path
       inkscape:connector-curvature="0"
       id="path4568"
       style="font-variant:normal;font-weight:normal;font-size:medium;font-family:Helvetica;-inkscape-font-specification:Helvetica;writing-mode:lr-tb;fill:#000000;fill-opacity:1;fill-rule:nonzero;stroke:none"
       d="m 50.397148,114.90953 0.09036,-0.55258 q -0.264125,-0.0556 -0.472645,-0.0556 -0.340582,0 -0.528249,0.10774 -0.187668,0.10773 -0.264125,0.2815 -0.07646,0.17724 -0.07646,0.74025 l 0,2.12342 -0.458743,0 0,0.48655 0.458743,0 0,0.91401 0.622083,0.37533 0,-1.28934 0.629034,0 0,-0.48655 -0.629034,0 0,-2.15818 q 0,-0.2676 0.03128,-0.34406 0.03475,-0.0764 0.107735,-0.12163 0.07646,-0.0452 0.215471,-0.0452 0.104259,0 0.27455,0.0243 z" /><path
       inkscape:connector-curvature="0"
       id="path4570"
       style="font-variant:normal;font-weight:normal;font-size:medium;font-family:Helvetica;-inkscape-font-specification:Helvetica;writing-mode:lr-tb;fill:#000000;fill-opacity:1;fill-rule:nonzero;stroke:none"
       d="m 51.013477,118.72544 0,0.71939 0.625559,0 0,-0.71939 -0.625559,0 z m 0,-4.37544 0,3.6908 0.625559,0 0,-3.6908 -0.625559,0 z" /><path
       inkscape:connector-curvature="0"
       id="path4572"
       style="font-variant:normal;font-weight:normal;font-size:medium;font-family:Helvetica;-inkscape-font-specification:Helvetica;writing-mode:lr-tb;fill:#000000;fill-opacity:1;fill-rule:nonzero;stroke:none"
       d="m 52.357233,116.1954 q 0,1.02522 0.569954,1.51872 0.476119,0.41008 1.160759,0.41008 0.761096,0 1.244167,-0.50044 0.48307,-0.49698 0.48307,-1.37623 0,-0.71245 -0.21547,-1.12253 -0.211995,-0.40662 -0.622084,-0.63251 -0.406613,-0.2259 -0.889683,-0.2259 -0.774998,0 -1.254593,0.49697 -0.47612,0.49697 -0.47612,1.43184 z m 0.642935,0 q 0,-0.70897 0.309304,-1.06345 0.309305,-0.35101 0.778474,-0.35101 0.465694,0 0.774998,0.35448 0.309304,0.35449 0.309304,1.08083 0,0.68464 -0.31278,1.03565 -0.309304,0.35448 -0.771522,0.35448 -0.469169,0 -0.778474,-0.35101 -0.309304,-0.35101 -0.309304,-1.05997 z" /><path
       inkscape:connector-curvature="0"
       id="path4574"
       style="font-variant:normal;font-weight:normal;font-size:medium;font-family:Helvetica;-inkscape-font-specification:Helvetica;writing-mode:lr-tb;fill:#000000;fill-opacity:1;fill-rule:nonzero;stroke:none"
       d="m 56.547393,114.35 0,3.6908 0.563003,0 0,-0.52478 q 0.406614,0.60818 1.174661,0.60818 0.333631,0 0.611657,-0.12163 0.281502,-0.11816 0.420515,-0.31278 0.139013,-0.19462 0.194618,-0.46222 0.03475,-0.17377 0.03475,-0.60818 l 0,-2.26939 -0.625559,0 0,2.24506 q 0,0.38229 -0.07298,0.56995 -0.07298,0.19115 -0.26065,0.30236 -0.184192,0.11468 -0.434416,0.11468 -0.399662,0 -0.69159,-0.2537 -0.288452,-0.2537 -0.288452,-0.96266 l 0,-2.01569 -0.625559,0 z" /><path
       inkscape:connector-curvature="0"
       id="path4576"
       style="font-variant:normal;font-weight:normal;font-size:medium;font-family:Helvetica;-inkscape-font-specification:Helvetica;writing-mode:lr-tb;fill:#000000;fill-opacity:1;fill-rule:nonzero;stroke:none"
       d="m 66.198488,116.13632 0.674214,-0.17029 q -0.211995,-0.83061 -0.764572,-1.2685 -0.549102,-0.43441 -1.344952,-0.43441 -0.823652,0 -1.341476,0.33363 -0.514348,0.3371 -0.785424,0.97309 -0.2676,0.63598 -0.2676,1.3658 0,0.79585 0.302353,1.38666 0.305829,0.59428 0.865357,0.90011 0.563003,0.3093 1.237216,0.3093 0.764572,0 1.285871,-0.38924 0.521299,-0.38923 0.726344,-1.09472 l -0.663788,-0.15639 q -0.177242,0.55605 -0.514348,0.80975 -0.337107,0.2537 -0.84798,0.2537 -0.58733,0 -0.983518,-0.2815 -0.392712,-0.28151 -0.552577,-0.75763 -0.159865,-0.47264 -0.159865,-0.97656 0,-0.64989 0.187668,-1.13643 0.191143,-0.48308 0.590806,-0.72287 0.399662,-0.2398 0.865356,-0.2398 0.566478,0 0.95919,0.32668 0.392712,0.32668 0.531725,0.96962 z" /><path
       inkscape:connector-curvature="0"
       id="path4578"
       style="font-variant:normal;font-weight:normal;font-size:medium;font-family:Helvetica;-inkscape-font-specification:Helvetica;writing-mode:lr-tb;fill:#000000;fill-opacity:1;fill-rule:nonzero;stroke:none"
       d="m 67.38933,116.1954 q 0,1.02522 0.569953,1.51872 0.47612,0.41008 1.16076,0.41008 0.761096,0 1.244167,-0.50044 0.48307,-0.49698 0.48307,-1.37623 0,-0.71245 -0.21547,-1.12253 -0.211995,-0.40662 -0.622084,-0.63251 -0.406613,-0.2259 -0.889683,-0.2259 -0.774998,0 -1.254593,0.49697 -0.47612,0.49697 -0.47612,1.43184 z m 0.642935,0 q 0,-0.70897 0.309304,-1.06345 0.309304,-0.35101 0.778474,-0.35101 0.465693,0 0.774998,0.35448 0.309304,0.35449 0.309304,1.08083 0,0.68464 -0.31278,1.03565 -0.309304,0.35448 -0.771522,0.35448 -0.46917,0 -0.778474,-0.35101 -0.309304,-0.35101 -0.309304,-1.05997 z" /><path
       inkscape:connector-curvature="0"
       id="path4580"
       style="font-variant:normal;font-weight:normal;font-size:medium;font-family:Helvetica;-inkscape-font-specification:Helvetica;writing-mode:lr-tb;fill:#000000;fill-opacity:1;fill-rule:nonzero;stroke:none"
       d="m 71.346643,116.1954 q 0,1.02522 0.569954,1.51872 0.47612,0.41008 1.160759,0.41008 0.761097,0 1.244167,-0.50044 0.483071,-0.49698 0.483071,-1.37623 0,-0.71245 -0.215471,-1.12253 -0.211995,-0.40662 -0.622083,-0.63251 -0.406613,-0.2259 -0.889684,-0.2259 -0.774998,0 -1.254593,0.49697 -0.47612,0.49697 -0.47612,1.43184 z m 0.642936,0 q 0,-0.70897 0.309304,-1.06345 0.309304,-0.35101 0.778473,-0.35101 0.465694,0 0.774998,0.35448 0.309304,0.35449 0.309304,1.08083 0,0.68464 -0.312779,1.03565 -0.309304,0.35448 -0.771523,0.35448 -0.469169,0 -0.778473,-0.35101 -0.309304,-0.35101 -0.309304,-1.05997 z" /><path
       inkscape:connector-curvature="0"
       id="path4582"
       style="font-variant:normal;font-weight:normal;font-size:medium;font-family:Helvetica;-inkscape-font-specification:Helvetica;writing-mode:lr-tb;fill:#000000;fill-opacity:1;fill-rule:nonzero;stroke:none"
       d="m 75.529853,114.35 0,3.6908 0.563003,0 0,-0.55953 q 0.21547,0.39271 0.396187,0.51782 0.184193,0.12511 0.403138,0.12511 0.316255,0 0.642936,-0.20157 l -0.21547,-0.58037 q -0.229372,0.13553 -0.458744,0.13553 -0.205044,0 -0.368384,-0.12511 -0.163341,-0.12164 -0.232847,-0.34058 -0.10426,-0.33363 -0.10426,-0.72982 l 0,-1.93228 -0.625559,0 z" /><path
       inkscape:connector-curvature="0"
       id="path4584"
       style="font-variant:normal;font-weight:normal;font-size:medium;font-family:Helvetica;-inkscape-font-specification:Helvetica;writing-mode:lr-tb;fill:#000000;fill-opacity:1;fill-rule:nonzero;stroke:none"
       d="m 80.301421,114.35 0,0.46569 q -0.351008,-0.5491 -1.032172,-0.5491 -0.441366,0 -0.813226,0.24327 -0.368385,0.24328 -0.573429,0.67769 -0.201569,0.43789 -0.201569,1.00437 0,0.55258 0.184192,1.0009 0.184192,0.45179 0.552577,0.69159 0.368385,0.23979 0.823653,0.23979 0.333631,0 0.59428,-0.14248 0.26065,-0.13902 0.42399,-0.36491 l 0,1.82802 0.622084,0 0,-5.09483 -0.58038,0 z m -1.977461,1.84192 q 0,-0.70896 0.298878,-1.05997 0.298878,-0.35101 0.705492,-0.35101 0.410088,0 0.695065,0.33363 0.288452,0.33711 0.288452,1.02522 0,0.75762 -0.291927,1.11211 -0.291928,0.35448 -0.719393,0.35448 -0.417039,0 -0.698541,-0.34058 -0.278026,-0.34058 -0.278026,-1.07388 z" /><path
       inkscape:connector-curvature="0"
       id="path4586"
       style="font-variant:normal;font-weight:normal;font-size:medium;font-family:Helvetica;-inkscape-font-specification:Helvetica;writing-mode:lr-tb;fill:#000000;fill-opacity:1;fill-rule:nonzero;stroke:none"
       d="m 81.86771,118.72544 0,0.71939 0.625559,0 0,-0.71939 -0.625559,0 z m 0,-4.37544 0,3.6908 0.625559,0 0,-3.6908 -0.625559,0 z" /><path
       inkscape:connector-curvature="0"
       id="path4588"
       style="font-variant:normal;font-weight:normal;font-size:medium;font-family:Helvetica;-inkscape-font-specification:Helvetica;writing-mode:lr-tb;fill:#000000;fill-opacity:1;fill-rule:nonzero;stroke:none"
       d="m 83.444313,114.35 0,3.6908 0.563003,0 0,-0.52478 q 0.406613,0.60818 1.17466,0.60818 0.333632,0 0.611658,-0.12163 0.281501,-0.11816 0.420514,-0.31278 0.139013,-0.19462 0.194619,-0.46222 0.03475,-0.17377 0.03475,-0.60818 l 0,-2.26939 -0.625559,0 0,2.24506 q 0,0.38229 -0.07298,0.56995 -0.07298,0.19115 -0.260649,0.30236 -0.184193,0.11468 -0.434416,0.11468 -0.399663,0 -0.69159,-0.2537 -0.288453,-0.2537 -0.288453,-0.96266 l 0,-2.01569 -0.625558,0 z" /><path
       inkscape:connector-curvature="0"
       id="path4590"
       style="font-variant:normal;font-weight:normal;font-size:medium;font-family:Helvetica;-inkscape-font-specification:Helvetica;writing-mode:lr-tb;fill:#000000;fill-opacity:1;fill-rule:nonzero;stroke:none"
       d="m 89.810028,114.80527 q -0.347533,-0.29541 -0.670738,-0.41704 -0.31973,-0.12164 -0.688115,-0.12164 -0.608182,0 -0.934863,0.2954 -0.326681,0.29888 -0.326681,0.7611 0,0.27108 0.121637,0.4935 0.125111,0.22589 0.323205,0.36143 0.201569,0.13554 0.451793,0.20504 0.184192,0.0487 0.556052,0.0938 0.757621,0.0904 1.11558,0.21547 0.0035,0.12859 0.0035,0.16334 0,0.38229 -0.177241,0.53867 -0.239798,0.212 -0.712443,0.212 -0.441366,0 -0.653361,-0.15639 -0.20852,-0.15291 -0.309304,-0.54563 l -0.611658,0.0834 q 0.08341,0.39271 0.274551,0.63251 0.191143,0.24327 0.552577,0.37186 0.361434,0.13206 0.837554,0.13206 0.472644,0 0.768047,-0.11121 0.295403,-0.11121 0.434416,-0.2815 0.139013,-0.16681 0.194618,-0.42399 0.03128,-0.15986 0.03128,-0.5769 l 0,-0.83408 q 0,-0.87231 0.03823,-1.10515 0.0417,-0.22938 0.159865,-0.44137 l -0.653361,0 q -0.09731,0.19462 -0.125112,0.45527 z m -0.05213,1.39708 q -0.340582,-0.13902 -1.021746,-0.23632 -0.385762,-0.0556 -0.545627,-0.12512 -0.159865,-0.0695 -0.246748,-0.20504 -0.08688,-0.13206 -0.08688,-0.2954 0,-0.25023 0.187668,-0.41704 0.191143,-0.16682 0.556052,-0.16682 0.361434,0 0.642935,0.15639 0.281502,0.15987 0.413564,0.43442 0.100785,0.21199 0.100785,0.62556 l 0,0.22937 z" /><path
       inkscape:connector-curvature="0"
       id="path4592"
       style="font-variant:normal;font-weight:normal;font-size:medium;font-family:Helvetica;-inkscape-font-specification:Helvetica;writing-mode:lr-tb;fill:#000000;fill-opacity:1;fill-rule:nonzero;stroke:none"
       d="m 92.724743,114.90953 0.09036,-0.55258 q -0.264125,-0.0556 -0.472645,-0.0556 -0.340582,0 -0.528249,0.10774 -0.187668,0.10773 -0.264125,0.2815 -0.07646,0.17724 -0.07646,0.74025 l 0,2.12342 -0.458743,0 0,0.48655 0.458743,0 0,0.91401 0.622084,0.37533 0,-1.28934 0.629034,0 0,-0.48655 -0.629034,0 0,-2.15818 q 0,-0.2676 0.03128,-0.34406 0.03475,-0.0764 0.107735,-0.12163 0.07646,-0.0452 0.21547,-0.0452 0.10426,0 0.274551,0.0243 z" /><path
       inkscape:connector-curvature="0"
       id="path4594"
       style="font-variant:normal;font-weight:normal;font-size:medium;font-family:Helvetica;-inkscape-font-specification:Helvetica;writing-mode:lr-tb;fill:#000000;fill-opacity:1;fill-rule:nonzero;stroke:none"
       d="m 95.864155,115.53856 0.646411,-0.0799 q -0.152914,-0.56648 -0.566478,-0.87926 -0.413564,-0.31278 -1.0565,-0.31278 -0.809751,0 -1.285871,0.49697 -0.472644,0.50045 -0.472644,1.40056 0,0.93139 0.479595,1.44574 0.479595,0.51434 1.244167,0.51434 0.740245,0 1.209414,-0.50392 0.469169,-0.50392 0.469169,-1.41793 0,-0.0556 -0.0035,-0.16682 l -2.752459,0 q 0.03475,-0.60818 0.344057,-0.93139 0.309304,-0.3232 0.771523,-0.3232 0.344057,0 0.58733,0.18072 0.243273,0.18071 0.385761,0.5769 z m -2.053918,1.01132 2.060869,0 q -0.0417,0.46569 -0.236322,0.69854 -0.298878,0.36144 -0.774998,0.36144 -0.430941,0 -0.726343,-0.28846 -0.291928,-0.28845 -0.323206,-0.77152 z" /><path
       inkscape:connector-curvature="0"
       id="path188"
       style="fill:none;stroke:#000000;stroke-width:0.89997995;stroke-linecap:butt;stroke-linejoin:miter;stroke-miterlimit:4;stroke-dasharray:none;stroke-opacity:1"
       d="m 106.65,193.6 c -6.4,-0.55 -9.95,-49.35 -14.2,-49.15 -4.2,0.25 -3.85,21.35 -3.85,21.35 l -2,-8.25 -4.95,11.75 c 0,0 4.95,-10.4 -9.85,-9.9 -14.85,0.55 -23.35,27.75 -8.15,27.25 15.2,-0.55 -12.95,-28.55 -36.3,-28.3" /></g></svg>