<?xml version="1.0" encoding="UTF-8" standalone="no"?>
<!-- Created with Inkscape (http://www.inkscape.org/) -->

<svg
   xmlns:dc="http://purl.org/dc/elements/1.1/"
   xmlns:cc="http://creativecommons.org/ns#"
   xmlns:rdf="http://www.w3.org/1999/02/22-rdf-syntax-ns#"
   xmlns:svg="http://www.w3.org/2000/svg"
   xmlns="http://www.w3.org/2000/svg"
   xmlns:sodipodi="http://sodipodi.sourceforge.net/DTD/sodipodi-0.dtd"
   xmlns:inkscape="http://www.inkscape.org/namespaces/inkscape"
   id="svg2"
   version="1.1"
   inkscape:version="0.91 r13725"
   xml:space="preserve"
   width="90.318832"
   height="57.284"
   viewBox="0 0 90.318832 57.284"
   sodipodi:docname="3.svg"><metadata
     id="metadata8"><rdf:RDF><cc:Work
         rdf:about=""><dc:format>image/svg+xml</dc:format><dc:type
           rdf:resource="http://purl.org/dc/dcmitype/StillImage" /><dc:title></dc:title></cc:Work></rdf:RDF></metadata><defs
     id="defs6" /><sodipodi:namedview
     pagecolor="#ffffff"
     bordercolor="#666666"
     borderopacity="1"
     objecttolerance="10"
     gridtolerance="10"
     guidetolerance="10"
     inkscape:pageopacity="0"
     inkscape:pageshadow="2"
     inkscape:window-width="1500"
     inkscape:window-height="937"
     id="namedview4"
     showgrid="false"
     inkscape:zoom="2.3733646"
     inkscape:cx="126.68351"
     inkscape:cy="117.94162"
     inkscape:window-x="-8"
     inkscape:window-y="1192"
     inkscape:window-maximized="1"
     inkscape:current-layer="g10" /><g
     id="g10"
     inkscape:groupmode="layer"
     inkscape:label="ink_ext_XXXXXX"
     transform="matrix(1.25,0,0,-1.25,-43.30617,65.8465)"><path
       inkscape:connector-curvature="0"
       id="path122"
       style="fill:#000000;fill-opacity:1;fill-rule:nonzero;stroke:none"
       d="m 74.15,26.2 0,-0.45 -0.25,-0.45 -21,0 -0.3,0.45 0.4,0.45" /><path
       inkscape:connector-curvature="0"
       id="path124"
       style="fill:#000000;fill-opacity:1;fill-rule:nonzero;stroke:none"
       d="M 85.35,7.3 84.55,6.85 73.9,25.3 74.15,25.75 75,25.2" /><path
       inkscape:connector-curvature="0"
       id="path126"
       style="fill:#000000;fill-opacity:1;fill-rule:nonzero;stroke:none"
       d="m 95,27.9 1.55,-4.5 -21.55,1.8 -0.85,0.55 0,0.45" /><path
       inkscape:connector-curvature="0"
       id="path128"
       style="fill:#000000;fill-opacity:1;fill-rule:nonzero;stroke:none"
       d="M 106.9,7.3 106.1,6.85 96.55,23.4 95,27.9" /><path
       inkscape:connector-curvature="0"
       id="path130"
       style="fill:#000000;fill-opacity:1;fill-rule:nonzero;stroke:none"
       d="m 42.25,6.85 -0.8,0.45 10.65,18.45 0.5,0 0.3,-0.45" /><path
       inkscape:connector-curvature="0"
       id="path4598"
       style="font-variant:normal;font-weight:normal;font-size:medium;font-family:Helvetica;-inkscape-font-specification:Helvetica;writing-mode:lr-tb;fill:#000000;fill-opacity:1;fill-rule:nonzero;stroke:none"
       d="m 34.644936,41.900002 0,8.589843 1.136718,0 0,-3.527343 4.464844,0 0,3.527343 1.136719,0 0,-8.589843 -1.136719,0 0,4.048828 -4.464844,0 0,-4.048828 -1.136718,0 z" /><path
       inkscape:connector-curvature="0"
       id="path4600"
       style="font-variant:normal;font-weight:normal;font-size:medium;font-family:Helvetica;-inkscape-font-specification:Helvetica;writing-mode:lr-tb;fill:#000000;fill-opacity:1;fill-rule:nonzero;stroke:none"
       d="m 42.928078,46.083595 q 0,2.138672 1.148437,3.345703 1.148438,1.212891 2.964844,1.212891 1.189453,0 2.144531,-0.568359 0.955078,-0.56836 1.453125,-1.587891 0.503906,-1.013672 0.503906,-2.302734 0,-1.306641 -0.527343,-2.337891 -0.527344,-1.03125 -1.494141,-1.564453 -0.966797,-0.527344 -2.085937,-0.527344 -1.212891,0 -2.167969,0.585938 -0.955078,0.585937 -1.447266,1.599609 -0.492187,1.013672 -0.492187,2.144531 z m 1.171875,-0.01758 q 0,-1.552734 0.832031,-2.449219 0.837891,-0.890625 2.097656,-0.890625 1.283203,0 2.109375,0.902344 0.832031,0.902344 0.832031,2.560547 0,1.048828 -0.357421,1.828125 -0.351563,0.785156 -1.03711,1.212891 -0.679687,0.433593 -1.529297,0.433593 -1.207031,0 -2.080078,-0.832031 -0.867187,-0.826172 -0.867187,-2.765625 z" /><path
       inkscape:connector-curvature="0"
       id="path138"
       style="fill:#000000;fill-opacity:1;fill-rule:nonzero;stroke:none"
       d="m 46.75,38.9 4.35,1.2 1.9,-13.9 -0.4,-0.45 -0.5,0" /><path
       inkscape:connector-curvature="0"
       id="path4603"
       style="font-variant:normal;font-weight:normal;font-size:medium;font-family:Helvetica;-inkscape-font-specification:Helvetica;writing-mode:lr-tb;fill:#000000;fill-opacity:1;fill-rule:nonzero;stroke:none"
       d="m 80.830078,43.883595 q 0,2.138671 1.148438,3.345703 1.148437,1.21289 2.964843,1.21289 1.189453,0 2.144532,-0.568359 0.955078,-0.568359 1.453125,-1.587891 0.503906,-1.013672 0.503906,-2.302734 0,-1.306641 -0.527344,-2.337891 -0.527344,-1.03125 -1.494141,-1.564453 -0.966796,-0.527344 -2.085937,-0.527344 -1.212891,0 -2.167969,0.585938 -0.955078,0.585937 -1.447265,1.599609 -0.492188,1.013672 -0.492188,2.144532 z m 1.171875,-0.01758 q 0,-1.552734 0.832031,-2.449218 0.837891,-0.890625 2.097657,-0.890625 1.283203,0 2.109375,0.902343 0.832031,0.902344 0.832031,2.560547 0,1.048828 -0.357422,1.828125 -0.351563,0.785157 -1.037109,1.212891 -0.679688,0.433594 -1.529297,0.433594 -1.207032,0 -2.080078,-0.832032 -0.867188,-0.826171 -0.867188,-2.765625 z" /><path
       inkscape:connector-curvature="0"
       id="path4605"
       style="font-variant:normal;font-weight:normal;font-size:medium;font-family:Helvetica;-inkscape-font-specification:Helvetica;writing-mode:lr-tb;fill:#000000;fill-opacity:1;fill-rule:nonzero;stroke:none"
       d="m 90.546936,39.700001 0,8.589844 1.136719,0 0,-3.527344 4.464844,0 0,3.527344 1.136718,0 0,-8.589844 -1.136718,0 0,4.048828 -4.464844,0 0,-4.048828 -1.136719,0 z" /><path
       inkscape:connector-curvature="0"
       id="path146"
       style="fill:#000000;fill-opacity:1;fill-rule:nonzero;stroke:none"
       d="M 79.35,39.25 83.25,37 82.7,36.3 79.05,38.35" /><path
       inkscape:connector-curvature="0"
       id="path148"
       style="fill:#000000;fill-opacity:1;fill-rule:nonzero;stroke:none"
       d="m 77.65,34.65 2.5,-1.45 -0.6,-0.7 -2.2,1.3" /><path
       inkscape:connector-curvature="0"
       id="path150"
       style="fill:#000000;fill-opacity:1;fill-rule:nonzero;stroke:none"
       d="m 76,30.05 1,-0.6 -0.55,-0.7 -0.8,0.45" /><path
       inkscape:connector-curvature="0"
       id="path4652"
       style="font-variant:normal;font-weight:normal;font-size:medium;font-family:Helvetica;-inkscape-font-specification:Helvetica;writing-mode:lr-tb;fill:#000000;fill-opacity:1;fill-rule:nonzero;stroke:none"
       d="m 52.875786,48.768997 -0.477905,0 0,3.045319 Q 52.225304,51.649704 51.943871,51.485092 51.665092,51.32048 51.44207,51.238174 l 0,0.461976 q 0.400909,0.188507 0.700928,0.456665 0.300018,0.268158 0.424804,0.520385 l 0.307984,0 0,-3.908203 z" /><path
       inkscape:connector-curvature="0"
       id="path4654"
       style="font-variant:normal;font-weight:normal;font-size:medium;font-family:Helvetica;-inkscape-font-specification:Helvetica;writing-mode:lr-tb;fill:#000000;fill-opacity:1;fill-rule:nonzero;stroke:none"
       d="m 54.834373,50.879745 q -0.297363,0.108857 -0.440734,0.310639 -0.143372,0.201782 -0.143372,0.483215 0,0.424805 0.305328,0.714203 0.305329,0.289398 0.812439,0.289398 0.509766,0 0.820404,-0.297363 0.310639,-0.294708 0.310639,-0.719513 0,-0.270813 -0.143372,-0.472595 -0.140716,-0.199127 -0.430114,-0.307984 0.358428,-0.116821 0.544281,-0.377014 0.188507,-0.260193 0.188507,-0.621277 0,-0.499145 -0.353119,-0.838989 -0.353119,-0.339844 -0.929261,-0.339844 -0.576141,0 -0.92926,0.339844 -0.353119,0.342499 -0.353119,0.852265 0,0.379669 0.191162,0.634552 0.193818,0.257537 0.549591,0.350463 z m -0.09558,0.809784 q 0,-0.276123 0.177887,-0.451355 0.177887,-0.175231 0.461975,-0.175231 0.276124,0 0.451355,0.172576 0.177887,0.175232 0.177887,0.42746 0,0.262848 -0.183197,0.440735 -0.180542,0.180542 -0.451355,0.180542 -0.273468,0 -0.45401,-0.175232 -0.180542,-0.175232 -0.180542,-0.419495 z m -0.153991,-1.797454 q 0,-0.204438 0.09558,-0.3956 0.09824,-0.191162 0.289398,-0.297363 0.191162,-0.103546 0.41153,-0.103546 0.342498,0 0.565521,0.220367 0.223022,0.220368 0.223022,0.560211 0,0.345154 -0.230987,0.570832 -0.228333,0.225677 -0.573487,0.225677 -0.337188,0 -0.560211,-0.223022 -0.220367,-0.223023 -0.220367,-0.557556 z" /></g></svg>