<?xml version="1.0" encoding="UTF-8" standalone="no"?>
<!-- Created with Inkscape (http://www.inkscape.org/) -->

<svg
   xmlns:dc="http://purl.org/dc/elements/1.1/"
   xmlns:cc="http://creativecommons.org/ns#"
   xmlns:rdf="http://www.w3.org/1999/02/22-rdf-syntax-ns#"
   xmlns:svg="http://www.w3.org/2000/svg"
   xmlns="http://www.w3.org/2000/svg"
   xmlns:sodipodi="http://sodipodi.sourceforge.net/DTD/sodipodi-0.dtd"
   xmlns:inkscape="http://www.inkscape.org/namespaces/inkscape"
   id="svg2"
   version="1.1"
   inkscape:version="0.91 r13725"
   xml:space="preserve"
   width="376.34482"
   height="87.62561"
   viewBox="0 0 376.34482 87.62561"
   sodipodi:docname="propagation-step.svg"><metadata
     id="metadata8"><rdf:RDF><cc:Work
         rdf:about=""><dc:format>image/svg+xml</dc:format><dc:type
           rdf:resource="http://purl.org/dc/dcmitype/StillImage" /><dc:title></dc:title></cc:Work></rdf:RDF></metadata><defs
     id="defs6" /><sodipodi:namedview
     pagecolor="#ffffff"
     bordercolor="#666666"
     borderopacity="1"
     objecttolerance="10"
     gridtolerance="10"
     guidetolerance="10"
     inkscape:pageopacity="0"
     inkscape:pageshadow="2"
     inkscape:window-width="1500"
     inkscape:window-height="937"
     id="namedview4"
     showgrid="false"
     inkscape:zoom="0.97459283"
     inkscape:cx="187.67383"
     inkscape:cy="44.587769"
     inkscape:window-x="-8"
     inkscape:window-y="1192"
     inkscape:window-maximized="1"
     inkscape:current-layer="g10" /><g
     id="g10"
     inkscape:groupmode="layer"
     inkscape:label="ink_ext_XXXXXX"
     transform="matrix(1.25,0,0,-1.25,-4.2011719,91.162842)"><g
       id="g12"
       transform="scale(0.1,0.1)"><g
         id="g14"
         transform="scale(10,10)"><text
           transform="matrix(1,0,0,-1,55.2066,29.65)"
           style="font-variant:normal;font-weight:normal;font-size:10px;font-family:Helvetica;-inkscape-font-specification:Helvetica;writing-mode:lr-tb;fill:#000000;fill-opacity:1;fill-rule:nonzero;stroke:none"
           id="text16"><tspan
             x="0 7.2199998"
             y="0"
             sodipodi:role="line"
             id="tspan18">HC</tspan><tspan
             x="32.193401"
             y="-14.4"
             id="tspan20">C</tspan></text>
</g><path
         d="m 856.5,454 4.5,-8 -148.5,-85.5 -4.5,8"
         style="fill:#000000;fill-opacity:1;fill-rule:nonzero;stroke:none"
         id="path22"
         inkscape:connector-curvature="0" /><path
         d="m 882.5,409 4.5,-7.5 -148.5,-86 -4.5,8"
         style="fill:#000000;fill-opacity:1;fill-rule:nonzero;stroke:none"
         id="path24"
         inkscape:connector-curvature="0" /><g
         id="g26"
         transform="scale(10,10)"><text
           transform="matrix(1,0,0,-1,87.2,65.65)"
           style="font-variant:normal;font-weight:normal;font-size:10px;font-family:Helvetica;-inkscape-font-specification:Helvetica;writing-mode:lr-tb;fill:#000000;fill-opacity:1;fill-rule:nonzero;stroke:none"
           id="text28"><tspan
             x="0 7.2199998"
             y="0"
             sodipodi:role="line"
             id="tspan30">CH</tspan></text>
<text
           transform="matrix(1,0,0,-1,101.6398,63.775)"
           style="font-variant:normal;font-weight:normal;font-size:7.5px;font-family:Helvetica;-inkscape-font-specification:Helvetica;writing-mode:lr-tb;fill:#000000;fill-opacity:1;fill-rule:nonzero;stroke:none"
           id="text32"><tspan
             x="0"
             y="0"
             id="tspan34">3</tspan></text>
</g><path
         d="m 904,630.5 9,0.5 1,-95 -9,0"
         style="fill:#000000;fill-opacity:1;fill-rule:nonzero;stroke:none"
         id="path36"
         inkscape:connector-curvature="0" /><g
         id="g38"
         transform="scale(10,10)"><text
           transform="matrix(1,0,0,-1,112.6,29.65)"
           style="font-variant:normal;font-weight:normal;font-size:10px;font-family:Helvetica;-inkscape-font-specification:Helvetica;writing-mode:lr-tb;fill:#000000;fill-opacity:1;fill-rule:nonzero;stroke:none"
           id="text40"><tspan
             x="0 6.6700001"
             y="0"
             sodipodi:role="line"
             id="tspan42">Br</tspan></text>
</g><path
         d="m 1108,370.5 -4.5,-8 -142,82 4.5,8"
         style="fill:#000000;fill-opacity:1;fill-rule:nonzero;stroke:none"
         id="path44"
         inkscape:connector-curvature="0" /><g
         id="g46"
         transform="scale(10,10)"><text
           transform="matrix(1,0,0,-1,62.55,4.8)"
           style="font-variant:normal;font-weight:normal;font-size:10px;font-family:Helvetica;-inkscape-font-specification:Helvetica;writing-mode:lr-tb;fill:#000000;fill-opacity:1;fill-rule:nonzero;stroke:none"
           id="text48"><tspan
             x="0 7.2199998"
             y="0"
             sodipodi:role="line"
             id="tspan50">CH</tspan></text>
<text
           transform="matrix(1,0,0,-1,76.9898,2.925)"
           style="font-variant:normal;font-weight:normal;font-size:7.5px;font-family:Helvetica;-inkscape-font-specification:Helvetica;writing-mode:lr-tb;fill:#000000;fill-opacity:1;fill-rule:nonzero;stroke:none"
           id="text52"><tspan
             x="0"
             y="0"
             id="tspan54">3</tspan></text>
</g><path
         d="m 666,144 -9,-0.5 -0.5,128 9,0.5"
         style="fill:#000000;fill-opacity:1;fill-rule:nonzero;stroke:none"
         id="path56"
         inkscape:connector-curvature="0" /><g
         id="g58"
         transform="scale(10,10)"><text
           transform="matrix(1,0,0,-1,2.4,46.25)"
           style="font-variant:normal;font-weight:normal;font-size:12px;font-family:Helvetica;-inkscape-font-specification:Helvetica;writing-mode:lr-tb;fill:#000000;fill-opacity:1;fill-rule:nonzero;stroke:none"
           id="text60"><tspan
             x="0 8.6639996"
             y="0"
             sodipodi:role="line"
             id="tspan62">HO</tspan></text>
</g><path
         d="m 222,556 c 0,-4.691 -3.809,-8.5 -8.5,-8.5 -4.691,0 -8.5,3.809 -8.5,8.5 0,4.691 3.809,8.5 8.5,8.5 4.691,0 8.5,-3.809 8.5,-8.5"
         style="fill:#000000;fill-opacity:1;fill-rule:nonzero;stroke:none"
         id="path64"
         inkscape:connector-curvature="0" /><path
         d="M 799.5,575 C 685,699.5 690.5,587 788,431.5"
         style="fill:none;stroke:#ff0000;stroke-width:8.99995041;stroke-linecap:butt;stroke-linejoin:miter;stroke-miterlimit:4;stroke-dasharray:none;stroke-opacity:1"
         id="path66"
         inkscape:connector-curvature="0" /><path
         d="m 796.5,572.5 12,26 29,-71"
         style="fill:#ff0000;fill-opacity:1;fill-rule:nonzero;stroke:none"
         id="path68"
         inkscape:connector-curvature="0" /><path
         d="M 434.5,624.5 C 539,787 569,698.5 758,414.5"
         style="fill:none;stroke:#ff0000;stroke-width:8.99995041;stroke-linecap:butt;stroke-linejoin:miter;stroke-miterlimit:4;stroke-dasharray:none;stroke-opacity:1"
         id="path70"
         inkscape:connector-curvature="0" /><path
         d="m 431.5,626.5 28,-4.5 -61,-46.5"
         style="fill:#ff0000;fill-opacity:1;fill-rule:nonzero;stroke:none"
         id="path72"
         inkscape:connector-curvature="0" /><path
         d="M 357,530 C 279,442 191,834.5 206,598.5"
         style="fill:none;stroke:#ff0000;stroke-width:8.99995041;stroke-linecap:butt;stroke-linejoin:miter;stroke-miterlimit:4;stroke-dasharray:none;stroke-opacity:1"
         id="path74"
         inkscape:connector-curvature="0" /><path
         d="m 359.5,527.5 -27,9 67.5,36.5"
         style="fill:#ff0000;fill-opacity:1;fill-rule:nonzero;stroke:none"
         id="path76"
         inkscape:connector-curvature="0" /><path
         d="m 1897,352 -455.5,0"
         style="fill:none;stroke:#000000;stroke-width:7;stroke-linecap:butt;stroke-linejoin:miter;stroke-miterlimit:4;stroke-dasharray:none;stroke-opacity:1"
         id="path78"
         inkscape:connector-curvature="0" /><path
         d="m 2014.5,352 -135,34.5 c 0,0 17,-19.5 17,-34.5 0,-15 -17,-34.5 -17,-34.5 l 135,34.5 0,0"
         style="fill:#000000;fill-opacity:1;fill-rule:nonzero;stroke:none"
         id="path80"
         inkscape:connector-curvature="0" /><g
         id="g82"
         transform="scale(10,10)"><text
           transform="matrix(1,0,0,-1,244.15,38)"
           style="font-variant:normal;font-weight:normal;font-size:10px;font-family:Helvetica;-inkscape-font-specification:Helvetica;writing-mode:lr-tb;fill:#000000;fill-opacity:1;fill-rule:nonzero;stroke:none"
           id="text84"><tspan
             x="0"
             y="0"
             id="tspan86">H</tspan><tspan
             x="0"
             y="8.4582005"
             id="tspan88">C</tspan><tspan
             x="24.950001"
             y="-6.0500002"
             id="tspan90">C</tspan></text>
</g><path
         d="m 2673.5,454 4.5,-8 -135.5,-78 -4.5,8"
         style="fill:#000000;fill-opacity:1;fill-rule:nonzero;stroke:none"
         id="path92"
         inkscape:connector-curvature="0" /><g
         id="g94"
         transform="scale(10,10)"><text
           transform="matrix(1,0,0,-1,268.9,65.65)"
           style="font-variant:normal;font-weight:normal;font-size:10px;font-family:Helvetica;-inkscape-font-specification:Helvetica;writing-mode:lr-tb;fill:#000000;fill-opacity:1;fill-rule:nonzero;stroke:none"
           id="text96"><tspan
             x="0 7.2199998"
             y="0"
             sodipodi:role="line"
             id="tspan98">CH</tspan></text>
<text
           transform="matrix(1,0,0,-1,283.3398,63.775)"
           style="font-variant:normal;font-weight:normal;font-size:7.5px;font-family:Helvetica;-inkscape-font-specification:Helvetica;writing-mode:lr-tb;fill:#000000;fill-opacity:1;fill-rule:nonzero;stroke:none"
           id="text100"><tspan
             x="0"
             y="0"
             id="tspan102">3</tspan></text>
</g><path
         d="m 2721,630.5 9,0.5 1,-95 -9,0"
         style="fill:#000000;fill-opacity:1;fill-rule:nonzero;stroke:none"
         id="path104"
         inkscape:connector-curvature="0" /><g
         id="g106"
         transform="scale(10,10)"><text
           transform="matrix(1,0,0,-1,294.3,29.65)"
           style="font-variant:normal;font-weight:normal;font-size:10px;font-family:Helvetica;-inkscape-font-specification:Helvetica;writing-mode:lr-tb;fill:#000000;fill-opacity:1;fill-rule:nonzero;stroke:none"
           id="text108"><tspan
             x="0 6.6700001"
             y="0"
             sodipodi:role="line"
             id="tspan110">Br</tspan></text>
</g><path
         d="m 2925,370.5 -4.5,-8 -142,82 4.5,8"
         style="fill:#000000;fill-opacity:1;fill-rule:nonzero;stroke:none"
         id="path112"
         inkscape:connector-curvature="0" /><g
         id="g114"
         transform="scale(10,10)"><text
           transform="matrix(1,0,0,-1,244.25,4.8)"
           style="font-variant:normal;font-weight:normal;font-size:10px;font-family:Helvetica;-inkscape-font-specification:Helvetica;writing-mode:lr-tb;fill:#000000;fill-opacity:1;fill-rule:nonzero;stroke:none"
           id="text116"><tspan
             x="0 7.2199998"
             y="0"
             sodipodi:role="line"
             id="tspan118">CH</tspan></text>
<text
           transform="matrix(1,0,0,-1,258.6898,2.925)"
           style="font-variant:normal;font-weight:normal;font-size:7.5px;font-family:Helvetica;-inkscape-font-specification:Helvetica;writing-mode:lr-tb;fill:#000000;fill-opacity:1;fill-rule:nonzero;stroke:none"
           id="text120"><tspan
             x="0"
             y="0"
             id="tspan122">3</tspan></text>
</g><path
         d="m 2482.5,144 -9,-0.5 -0.5,127.5 9,0"
         style="fill:#000000;fill-opacity:1;fill-rule:nonzero;stroke:none"
         id="path124"
         inkscape:connector-curvature="0" /><g
         id="g126"
         transform="scale(10,10)"><text
           transform="matrix(1,0,0,-1,211.678,44.05)"
           style="font-variant:normal;font-weight:normal;font-size:10px;font-family:Helvetica;-inkscape-font-specification:Helvetica;writing-mode:lr-tb;fill:#000000;fill-opacity:1;fill-rule:nonzero;stroke:none"
           id="text128"><tspan
             x="0 7.2199998"
             y="0"
             sodipodi:role="line"
             id="tspan130">HO</tspan></text>
</g><path
         d="m 2279.5,445 4.5,7.5 133.5,-77 -4.5,-8"
         style="fill:#000000;fill-opacity:1;fill-rule:nonzero;stroke:none"
         id="path132"
         inkscape:connector-curvature="0" /><path
         d="m 2742.5,413 c 0,-4.691 -3.81,-8.5 -8.5,-8.5 -4.69,0 -8.5,3.809 -8.5,8.5 0,4.691 3.81,8.5 8.5,8.5 4.69,0 8.5,-3.809 8.5,-8.5"
         style="fill:#000000;fill-opacity:1;fill-rule:nonzero;stroke:none"
         id="path134"
         inkscape:connector-curvature="0" /></g></g></svg>