<?xml version="1.0" encoding="UTF-8" standalone="no"?>
<!-- Created with Inkscape (http://www.inkscape.org/) -->

<svg
   xmlns:dc="http://purl.org/dc/elements/1.1/"
   xmlns:cc="http://creativecommons.org/ns#"
   xmlns:rdf="http://www.w3.org/1999/02/22-rdf-syntax-ns#"
   xmlns:svg="http://www.w3.org/2000/svg"
   xmlns="http://www.w3.org/2000/svg"
   xmlns:sodipodi="http://sodipodi.sourceforge.net/DTD/sodipodi-0.dtd"
   xmlns:inkscape="http://www.inkscape.org/namespaces/inkscape"
   id="svg2"
   version="1.1"
   inkscape:version="0.91 r13725"
   xml:space="preserve"
   width="90.318832"
   height="54.9715"
   viewBox="0 0 90.318832 54.9715"
   sodipodi:docname="1.svg"><metadata
     id="metadata8"><rdf:RDF><cc:Work
         rdf:about=""><dc:format>image/svg+xml</dc:format><dc:type
           rdf:resource="http://purl.org/dc/dcmitype/StillImage" /><dc:title></dc:title></cc:Work></rdf:RDF></metadata><defs
     id="defs6" /><sodipodi:namedview
     pagecolor="#ffffff"
     bordercolor="#666666"
     borderopacity="1"
     objecttolerance="10"
     gridtolerance="10"
     guidetolerance="10"
     inkscape:pageopacity="0"
     inkscape:pageshadow="2"
     inkscape:window-width="1500"
     inkscape:window-height="937"
     id="namedview4"
     showgrid="false"
     inkscape:zoom="2.3733646"
     inkscape:cx="81.609134"
     inkscape:cy="-12.301531"
     inkscape:window-x="-8"
     inkscape:window-y="1192"
     inkscape:window-maximized="1"
     inkscape:current-layer="g10" /><g
     id="g10"
     inkscape:groupmode="layer"
     inkscape:label="ink_ext_XXXXXX"
     transform="matrix(1.25,0,0,-1.25,-43.30617,168.9715)"><path
       inkscape:connector-curvature="0"
       id="path162"
       style="fill:#000000;fill-opacity:1;fill-rule:nonzero;stroke:none"
       d="m 73.85,110.55 0.3,-0.45 -0.25,-0.45 -21,0 -0.55,0.9" /><path
       inkscape:connector-curvature="0"
       id="path164"
       style="fill:#000000;fill-opacity:1;fill-rule:nonzero;stroke:none"
       d="m 85.35,91.65 -0.8,-0.45 -10.65,18.45 0.25,0.45 0.55,-0.05" /><path
       inkscape:connector-curvature="0"
       id="path166"
       style="fill:#000000;fill-opacity:1;fill-rule:nonzero;stroke:none"
       d="m 91.95,112.35 0,-4.5 -0.9,0.1 0,4.3" /><path
       inkscape:connector-curvature="0"
       id="path168"
       style="fill:#000000;fill-opacity:1;fill-rule:nonzero;stroke:none"
       d="m 87.6,111.8 0,-3.4 -0.9,0.15 0,3.1" /><path
       inkscape:connector-curvature="0"
       id="path170"
       style="fill:#000000;fill-opacity:1;fill-rule:nonzero;stroke:none"
       d="m 83.2,111.25 0,-2.3 -0.9,0.15 0,2" /><path
       inkscape:connector-curvature="0"
       id="path172"
       style="fill:#000000;fill-opacity:1;fill-rule:nonzero;stroke:none"
       d="m 78.8,110.65 0,-1.1 -0.9,0.1 0,0.9" /><path
       inkscape:connector-curvature="0"
       id="path174"
       style="fill:#000000;fill-opacity:1;fill-rule:nonzero;stroke:none"
       d="m 106.9,91.65 -0.8,-0.45 -10.75,18.7 0.75,0.45" /><path
       inkscape:connector-curvature="0"
       id="path176"
       style="fill:#000000;fill-opacity:1;fill-rule:nonzero;stroke:none"
       d="m 42.25,91.2 -0.8,0.45 10.9,18.9 0.55,-0.9" /><path
       inkscape:connector-curvature="0"
       id="path4613"
       style="font-variant:normal;font-weight:normal;font-size:medium;font-family:Helvetica;-inkscape-font-specification:Helvetica;writing-mode:lr-tb;fill:#000000;fill-opacity:1;fill-rule:nonzero;stroke:none"
       d="m 34.644936,126.25 0,8.58984 1.136718,0 0,-3.52734 4.464844,0 0,3.52734 1.136719,0 0,-8.58984 -1.136719,0 0,4.04883 -4.464844,0 0,-4.04883 -1.136718,0 z" /><path
       inkscape:connector-curvature="0"
       id="path4615"
       style="font-variant:normal;font-weight:normal;font-size:medium;font-family:Helvetica;-inkscape-font-specification:Helvetica;writing-mode:lr-tb;fill:#000000;fill-opacity:1;fill-rule:nonzero;stroke:none"
       d="m 42.928078,130.43359 q 0,2.13868 1.148437,3.34571 1.148438,1.21289 2.964844,1.21289 1.189453,0 2.144531,-0.56836 0.955078,-0.56836 1.453125,-1.58789 0.503906,-1.01367 0.503906,-2.30274 0,-1.30664 -0.527343,-2.33789 -0.527344,-1.03125 -1.494141,-1.56445 -0.966797,-0.52734 -2.085937,-0.52734 -1.212891,0 -2.167969,0.58593 -0.955078,0.58594 -1.447266,1.59961 -0.492187,1.01367 -0.492187,2.14453 z m 1.171875,-0.0176 q 0,-1.55274 0.832031,-2.44922 0.837891,-0.89063 2.097656,-0.89063 1.283203,0 2.109375,0.90235 0.832031,0.90234 0.832031,2.56054 0,1.04883 -0.357421,1.82813 -0.351563,0.78515 -1.03711,1.21289 -0.679687,0.43359 -1.529297,0.43359 -1.207031,0 -2.080078,-0.83203 -0.867187,-0.82617 -0.867187,-2.76562 z" /><path
       inkscape:connector-curvature="0"
       id="path184"
       style="fill:#000000;fill-opacity:1;fill-rule:nonzero;stroke:none"
       d="m 46.75,123.3 4.35,1.15 0.1,-0.9 -4.05,-1.1" /><path
       inkscape:connector-curvature="0"
       id="path186"
       style="fill:#000000;fill-opacity:1;fill-rule:nonzero;stroke:none"
       d="m 48.8,118.85 2.75,0.75 0.1,-0.9 -2.5,-0.65" /><path
       inkscape:connector-curvature="0"
       id="path188"
       style="fill:#000000;fill-opacity:1;fill-rule:nonzero;stroke:none"
       d="m 50.85,114.45 1.15,0.3 0.1,-0.9 -0.9,-0.25" /><path
       inkscape:connector-curvature="0"
       id="path4618"
       style="font-variant:normal;font-weight:normal;font-size:medium;font-family:Helvetica;-inkscape-font-specification:Helvetica;writing-mode:lr-tb;fill:#000000;fill-opacity:1;fill-rule:nonzero;stroke:none"
       d="m 80.830078,128.2336 q 0,2.13867 1.148438,3.3457 1.148437,1.21289 2.964843,1.21289 1.189453,0 2.144532,-0.56836 0.955078,-0.56836 1.453125,-1.58789 0.503906,-1.01367 0.503906,-2.30273 0,-1.30664 -0.527344,-2.33789 -0.527344,-1.03125 -1.494141,-1.56446 -0.966796,-0.52734 -2.085937,-0.52734 -1.212891,0 -2.167969,0.58594 -0.955078,0.58593 -1.447265,1.59961 -0.492188,1.01367 -0.492188,2.14453 z m 1.171875,-0.0176 q 0,-1.55274 0.832031,-2.44922 0.837891,-0.89063 2.097657,-0.89063 1.283203,0 2.109375,0.90235 0.832031,0.90234 0.832031,2.56055 0,1.04882 -0.357422,1.82812 -0.351563,0.78516 -1.037109,1.21289 -0.679688,0.43359 -1.529297,0.43359 -1.207032,0 -2.080078,-0.83203 -0.867188,-0.82617 -0.867188,-2.76562 z" /><path
       inkscape:connector-curvature="0"
       id="path4620"
       style="font-variant:normal;font-weight:normal;font-size:medium;font-family:Helvetica;-inkscape-font-specification:Helvetica;writing-mode:lr-tb;fill:#000000;fill-opacity:1;fill-rule:nonzero;stroke:none"
       d="m 90.546936,124.05 0,8.58985 1.136719,0 0,-3.52735 4.464844,0 0,3.52735 1.136718,0 0,-8.58985 -1.136718,0 0,4.04883 -4.464844,0 0,-4.04883 -1.136719,0 z" /><path
       inkscape:connector-curvature="0"
       id="path196"
       style="fill:#000000;fill-opacity:1;fill-rule:nonzero;stroke:none"
       d="m 79.35,123.6 3.9,-2.25 -8.55,-11.3 -0.55,0.05 -0.3,0.45" /><path
       inkscape:connector-curvature="0"
       id="path4628"
       style="font-variant:normal;font-weight:normal;font-size:medium;font-family:Helvetica;-inkscape-font-specification:Helvetica;writing-mode:lr-tb;fill:#000000;fill-opacity:1;fill-rule:nonzero;stroke:none"
       d="m 76.675789,131.269 -0.477905,0 0,3.04532 q -0.172577,-0.16462 -0.45401,-0.32923 -0.278778,-0.16461 -0.501801,-0.24692 l 0,0.46198 q 0.400909,0.18851 0.700928,0.45666 0.300018,0.26816 0.424804,0.52039 l 0.307984,0 0,-3.9082 z" /><path
       inkscape:connector-curvature="0"
       id="path4630"
       style="font-variant:normal;font-weight:normal;font-size:medium;font-family:Helvetica;-inkscape-font-specification:Helvetica;writing-mode:lr-tb;fill:#000000;fill-opacity:1;fill-rule:nonzero;stroke:none"
       d="m 78.634369,133.37975 q -0.297363,0.10885 -0.440735,0.31063 -0.143372,0.20179 -0.143372,0.48322 0,0.4248 0.305329,0.7142 0.305328,0.2894 0.812439,0.2894 0.509765,0 0.820404,-0.29736 0.310638,-0.29471 0.310638,-0.71952 0,-0.27081 -0.143371,-0.47259 -0.140717,-0.19913 -0.430115,-0.30798 0.358429,-0.11683 0.544281,-0.37702 0.188507,-0.26019 0.188507,-0.62128 0,-0.49914 -0.353119,-0.83898 -0.353119,-0.33985 -0.92926,-0.33985 -0.576141,0 -0.92926,0.33985 -0.353119,0.34249 -0.353119,0.85226 0,0.37967 0.191162,0.63455 0.193817,0.25754 0.549591,0.35047 z m -0.09558,0.80978 q 0,-0.27612 0.177887,-0.45136 0.177887,-0.17523 0.461975,-0.17523 0.276123,0 0.451355,0.17258 0.177887,0.17523 0.177887,0.42746 0,0.26285 -0.183197,0.44073 -0.180542,0.18055 -0.451355,0.18055 -0.273468,0 -0.45401,-0.17524 -0.180542,-0.17523 -0.180542,-0.41949 z m -0.153992,-1.79746 q 0,-0.20443 0.09558,-0.39559 0.09824,-0.19117 0.289398,-0.29737 0.191162,-0.10354 0.41153,-0.10354 0.342499,0 0.565521,0.22036 0.223023,0.22037 0.223023,0.56021 0,0.34516 -0.230988,0.57084 -0.228332,0.22567 -0.573486,0.22567 -0.337189,0 -0.560211,-0.22302 -0.220368,-0.22302 -0.220368,-0.55756 z" /></g></svg>