<?xml version="1.0" encoding="UTF-8" standalone="no"?>
<!-- Created with Inkscape (http://www.inkscape.org/) -->

<svg
   xmlns:dc="http://purl.org/dc/elements/1.1/"
   xmlns:cc="http://creativecommons.org/ns#"
   xmlns:rdf="http://www.w3.org/1999/02/22-rdf-syntax-ns#"
   xmlns:svg="http://www.w3.org/2000/svg"
   xmlns="http://www.w3.org/2000/svg"
   xmlns:sodipodi="http://sodipodi.sourceforge.net/DTD/sodipodi-0.dtd"
   xmlns:inkscape="http://www.inkscape.org/namespaces/inkscape"
   id="svg2"
   version="1.1"
   inkscape:version="0.91 r13725"
   xml:space="preserve"
   width="90.256325"
   height="58.909012"
   viewBox="0 0 90.256325 58.909012"
   sodipodi:docname="2.svg"><metadata
     id="metadata8"><rdf:RDF><cc:Work
         rdf:about=""><dc:format>image/svg+xml</dc:format><dc:type
           rdf:resource="http://purl.org/dc/dcmitype/StillImage" /><dc:title></dc:title></cc:Work></rdf:RDF></metadata><defs
     id="defs6" /><sodipodi:namedview
     pagecolor="#ffffff"
     bordercolor="#666666"
     borderopacity="1"
     objecttolerance="10"
     gridtolerance="10"
     guidetolerance="10"
     inkscape:pageopacity="0"
     inkscape:pageshadow="2"
     inkscape:window-width="1500"
     inkscape:window-height="937"
     id="namedview4"
     showgrid="false"
     inkscape:zoom="2.3733646"
     inkscape:cx="-31.595408"
     inkscape:cy="8.5281515"
     inkscape:window-x="-8"
     inkscape:window-y="1192"
     inkscape:window-maximized="1"
     inkscape:current-layer="g10" /><g
     id="g10"
     inkscape:groupmode="layer"
     inkscape:label="ink_ext_XXXXXX"
     transform="matrix(1.25,0,0,-1.25,-216.30617,172.90901)"><path
       inkscape:connector-curvature="0"
       id="path14"
       style="fill:#000000;fill-opacity:1;fill-rule:nonzero;stroke:none"
       d="m 212.25,110.55 0.3,-0.45 -0.25,-0.45 -21.05,0 -0.5,0.9" /><path
       inkscape:connector-curvature="0"
       id="path16"
       style="fill:#000000;fill-opacity:1;fill-rule:nonzero;stroke:none"
       d="m 223.7,91.65 -0.75,-0.45 -10.65,18.45 0.25,0.45 0.55,-0.05" /><path
       inkscape:connector-curvature="0"
       id="path18"
       style="fill:#000000;fill-opacity:1;fill-rule:nonzero;stroke:none"
       d="m 230.35,112.35 0,-4.5 -0.9,0.1 0,4.3" /><path
       inkscape:connector-curvature="0"
       id="path20"
       style="fill:#000000;fill-opacity:1;fill-rule:nonzero;stroke:none"
       d="m 225.95,111.8 0,-3.4 -0.9,0.15 0,3.1" /><path
       inkscape:connector-curvature="0"
       id="path22"
       style="fill:#000000;fill-opacity:1;fill-rule:nonzero;stroke:none"
       d="m 221.6,111.25 0,-2.3 -0.9,0.15 0,2" /><path
       inkscape:connector-curvature="0"
       id="path24"
       style="fill:#000000;fill-opacity:1;fill-rule:nonzero;stroke:none"
       d="m 217.2,110.65 0,-1.1 -0.9,0.1 0,0.9" /><path
       inkscape:connector-curvature="0"
       id="path26"
       style="fill:#000000;fill-opacity:1;fill-rule:nonzero;stroke:none"
       d="m 245.25,91.65 -0.75,-0.45 -10.8,18.7 0.8,0.45" /><path
       inkscape:connector-curvature="0"
       id="path28"
       style="fill:#000000;fill-opacity:1;fill-rule:nonzero;stroke:none"
       d="m 180.6,91.2 -0.75,0.45 10.9,18.9 0.5,-0.9" /><path
       inkscape:connector-curvature="0"
       id="path4570"
       style="font-variant:normal;font-weight:normal;font-size:medium;font-family:Helvetica;-inkscape-font-specification:Helvetica;writing-mode:lr-tb;fill:#000000;fill-opacity:1;fill-rule:nonzero;stroke:none"
       d="m 173.04494,126.25 0,8.58984 1.13672,0 0,-3.52734 4.46484,0 0,3.52734 1.13672,0 0,-8.58984 -1.13672,0 0,4.04883 -4.46484,0 0,-4.04883 -1.13672,0 z" /><path
       inkscape:connector-curvature="0"
       id="path4572"
       style="font-variant:normal;font-weight:normal;font-size:medium;font-family:Helvetica;-inkscape-font-specification:Helvetica;writing-mode:lr-tb;fill:#000000;fill-opacity:1;fill-rule:nonzero;stroke:none"
       d="m 181.32808,130.43359 q 0,2.13868 1.14844,3.34571 1.14843,1.21289 2.96484,1.21289 1.18945,0 2.14453,-0.56836 0.95508,-0.56836 1.45313,-1.58789 0.5039,-1.01367 0.5039,-2.30274 0,-1.30664 -0.52734,-2.33789 -0.52734,-1.03125 -1.49414,-1.56445 -0.9668,-0.52734 -2.08594,-0.52734 -1.21289,0 -2.16797,0.58593 -0.95508,0.58594 -1.44726,1.59961 -0.49219,1.01367 -0.49219,2.14453 z m 1.17187,-0.0176 q 0,-1.55274 0.83204,-2.44922 0.83789,-0.89063 2.09765,-0.89063 1.2832,0 2.10938,0.90235 0.83203,0.90234 0.83203,2.56054 0,1.04883 -0.35742,1.82813 -0.35157,0.78515 -1.03711,1.21289 -0.67969,0.43359 -1.5293,0.43359 -1.20703,0 -2.08008,-0.83203 -0.86719,-0.82617 -0.86719,-2.76562 z" /><path
       inkscape:connector-curvature="0"
       id="path76"
       style="fill:#000000;fill-opacity:1;fill-rule:nonzero;stroke:none"
       d="m 185.15,123.3 4.35,1.15 0.05,-0.9 -4.05,-1.1" /><path
       inkscape:connector-curvature="0"
       id="path78"
       style="fill:#000000;fill-opacity:1;fill-rule:nonzero;stroke:none"
       d="m 187.15,118.85 2.75,0.75 0.1,-0.9 -2.45,-0.65" /><path
       inkscape:connector-curvature="0"
       id="path80"
       style="fill:#000000;fill-opacity:1;fill-rule:nonzero;stroke:none"
       d="m 189.2,114.45 1.15,0.3 0.1,-0.9 -0.85,-0.25" /><path
       inkscape:connector-curvature="0"
       id="path4575"
       style="font-variant:normal;font-weight:normal;font-size:medium;font-family:Helvetica;-inkscape-font-specification:Helvetica;writing-mode:lr-tb;fill:#000000;fill-opacity:1;fill-rule:nonzero;stroke:none"
       d="m 219.23007,128.2336 q 0,2.13867 1.14844,3.3457 1.14844,1.21289 2.96484,1.21289 1.18946,0 2.14453,-0.56836 0.95508,-0.56836 1.45313,-1.58789 0.50391,-1.01367 0.50391,-2.30273 0,-1.30664 -0.52735,-2.33789 -0.52734,-1.03125 -1.49414,-1.56446 -0.9668,-0.52734 -2.08594,-0.52734 -1.21289,0 -2.16796,0.58594 -0.95508,0.58593 -1.44727,1.59961 -0.49219,1.01367 -0.49219,2.14453 z m 1.17188,-0.0176 q 0,-1.55274 0.83203,-2.44922 0.83789,-0.89063 2.09765,-0.89063 1.28321,0 2.10938,0.90235 0.83203,0.90234 0.83203,2.56055 0,1.04882 -0.35742,1.82812 -0.35156,0.78516 -1.03711,1.21289 -0.67969,0.43359 -1.5293,0.43359 -1.20703,0 -2.08008,-0.83203 -0.86718,-0.82617 -0.86718,-2.76562 z" /><path
       inkscape:connector-curvature="0"
       id="path4577"
       style="font-variant:normal;font-weight:normal;font-size:medium;font-family:Helvetica;-inkscape-font-specification:Helvetica;writing-mode:lr-tb;fill:#000000;fill-opacity:1;fill-rule:nonzero;stroke:none"
       d="m 228.94695,124.05 0,8.58985 1.13671,0 0,-3.52735 4.46485,0 0,3.52735 1.13672,0 0,-8.58985 -1.13672,0 0,4.04883 -4.46485,0 0,-4.04883 -1.13671,0 z" /><path
       inkscape:connector-curvature="0"
       id="path88"
       style="fill:#000000;fill-opacity:1;fill-rule:nonzero;stroke:none"
       d="m 217.75,123.6 3.9,-2.25 -8.55,-11.3 -0.55,0.05 -0.3,0.45" /><path
       inkscape:connector-curvature="0"
       id="path4648"
       style="font-variant:normal;font-weight:normal;font-size:medium;font-family:Helvetica;-inkscape-font-specification:Helvetica;writing-mode:lr-tb;fill:#000000;fill-opacity:1;fill-rule:nonzero;stroke:none"
       d="m 189.37579,134.41901 -0.4779,0 0,3.04531 q -0.17258,-0.16461 -0.45401,-0.32922 -0.27878,-0.16461 -0.5018,-0.24692 l 0,0.46198 q 0.40091,0.18851 0.70093,0.45666 0.30001,0.26816 0.4248,0.52039 l 0.30798,0 0,-3.9082 z" /><path
       inkscape:connector-curvature="0"
       id="path4650"
       style="font-variant:normal;font-weight:normal;font-size:medium;font-family:Helvetica;-inkscape-font-specification:Helvetica;writing-mode:lr-tb;fill:#000000;fill-opacity:1;fill-rule:nonzero;stroke:none"
       d="m 191.33437,136.52975 q -0.29737,0.10886 -0.44074,0.31064 -0.14337,0.20179 -0.14337,0.48322 0,0.4248 0.30533,0.7142 0.30533,0.2894 0.81244,0.2894 0.50976,0 0.8204,-0.29736 0.31064,-0.29471 0.31064,-0.71952 0,-0.27081 -0.14337,-0.47259 -0.14072,-0.19913 -0.43012,-0.30799 0.35843,-0.11682 0.54428,-0.37701 0.18851,-0.26019 0.18851,-0.62128 0,-0.49914 -0.35312,-0.83899 -0.35312,-0.33984 -0.92926,-0.33984 -0.57614,0 -0.92926,0.33984 -0.35312,0.3425 -0.35312,0.85227 0,0.37967 0.19116,0.63455 0.19382,0.25754 0.5496,0.35046 z m -0.0956,0.80979 q 0,-0.27612 0.17789,-0.45136 0.17789,-0.17523 0.46198,-0.17523 0.27612,0 0.45135,0.17258 0.17789,0.17523 0.17789,0.42746 0,0.26285 -0.1832,0.44073 -0.18054,0.18055 -0.45135,0.18055 -0.27347,0 -0.45401,-0.17524 -0.18055,-0.17523 -0.18055,-0.41949 z m -0.15399,-1.79746 q 0,-0.20443 0.0956,-0.3956 0.0982,-0.19116 0.2894,-0.29736 0.19116,-0.10355 0.41153,-0.10355 0.3425,0 0.56552,0.22037 0.22303,0.22037 0.22303,0.56021 0,0.34516 -0.23099,0.57083 -0.22833,0.22568 -0.57349,0.22568 -0.33719,0 -0.56021,-0.22302 -0.22037,-0.22302 -0.22037,-0.55756 z" /></g></svg>