<?xml version="1.0" encoding="UTF-8" standalone="no"?>
<!-- Created with Inkscape (http://www.inkscape.org/) -->

<svg
   xmlns:dc="http://purl.org/dc/elements/1.1/"
   xmlns:cc="http://creativecommons.org/ns#"
   xmlns:rdf="http://www.w3.org/1999/02/22-rdf-syntax-ns#"
   xmlns:svg="http://www.w3.org/2000/svg"
   xmlns="http://www.w3.org/2000/svg"
   xmlns:sodipodi="http://sodipodi.sourceforge.net/DTD/sodipodi-0.dtd"
   xmlns:inkscape="http://www.inkscape.org/namespaces/inkscape"
   id="svg2"
   version="1.1"
   inkscape:version="0.91 r13725"
   xml:space="preserve"
   width="106.06884"
   height="58.2215"
   viewBox="0 0 106.06884 58.2215"
   sodipodi:docname="4.svg"><metadata
     id="metadata8"><rdf:RDF><cc:Work
         rdf:about=""><dc:format>image/svg+xml</dc:format><dc:type
           rdf:resource="http://purl.org/dc/dcmitype/StillImage" /><dc:title></dc:title></cc:Work></rdf:RDF></metadata><defs
     id="defs6" /><sodipodi:namedview
     pagecolor="#ffffff"
     bordercolor="#666666"
     borderopacity="1"
     objecttolerance="10"
     gridtolerance="10"
     guidetolerance="10"
     inkscape:pageopacity="0"
     inkscape:pageshadow="2"
     inkscape:window-width="1500"
     inkscape:window-height="937"
     id="namedview4"
     showgrid="false"
     inkscape:zoom="2.3733646"
     inkscape:cx="-76.060152"
     inkscape:cy="114.56662"
     inkscape:window-x="-8"
     inkscape:window-y="1192"
     inkscape:window-maximized="1"
     inkscape:current-layer="g10" /><g
     id="g10"
     inkscape:groupmode="layer"
     inkscape:label="ink_ext_XXXXXX"
     transform="matrix(1.25,0,0,-1.25,-202.74366,61.596499)"><path
       inkscape:connector-curvature="0"
       id="path90"
       style="fill:#000000;fill-opacity:1;fill-rule:nonzero;stroke:none"
       d="m 215,22.05 -0.5,-0.9 -21,0 -0.25,0.45 0.15,0.45" /><path
       inkscape:connector-curvature="0"
       id="path92"
       style="fill:#000000;fill-opacity:1;fill-rule:nonzero;stroke:none"
       d="M 225.9,3.15 225.15,2.7 214.5,21.15 215,22.05" /><path
       inkscape:connector-curvature="0"
       id="path94"
       style="fill:#000000;fill-opacity:1;fill-rule:nonzero;stroke:none"
       d="m 221.7,38.15 3.9,-2.25 -0.55,-0.75 -3.7,2.15" /><path
       inkscape:connector-curvature="0"
       id="path96"
       style="fill:#000000;fill-opacity:1;fill-rule:nonzero;stroke:none"
       d="m 220,34.05 2.9,-1.65 -0.55,-0.75 -2.7,1.6" /><path
       inkscape:connector-curvature="0"
       id="path98"
       style="fill:#000000;fill-opacity:1;fill-rule:nonzero;stroke:none"
       d="m 218.3,30 1.95,-1.15 -0.55,-0.7 -1.75,1" /><path
       inkscape:connector-curvature="0"
       id="path100"
       style="fill:#000000;fill-opacity:1;fill-rule:nonzero;stroke:none"
       d="m 216.6,25.9 0.95,-0.55 -0.55,-0.75 -0.75,0.45" /><path
       inkscape:connector-curvature="0"
       id="path102"
       style="fill:#000000;fill-opacity:1;fill-rule:nonzero;stroke:none"
       d="m 225.5,39.8 21.55,0 0,0.9 -21.55,0 0,-0.9 z" /><path
       inkscape:connector-curvature="0"
       id="path104"
       style="fill:#000000;fill-opacity:1;fill-rule:nonzero;stroke:none"
       d="m 182.85,2.7 -0.75,0.45 10.5,18.25 0.65,0.2 0.25,-0.45" /><path
       inkscape:connector-curvature="0"
       id="path4580"
       style="font-variant:normal;font-weight:normal;font-size:medium;font-family:Helvetica;-inkscape-font-specification:Helvetica;writing-mode:lr-tb;fill:#000000;fill-opacity:1;fill-rule:nonzero;stroke:none"
       d="m 189.13008,42.633595 q 0,2.138671 1.14844,3.345703 1.14844,1.21289 2.96484,1.21289 1.18946,0 2.14453,-0.568359 0.95508,-0.568359 1.45313,-1.587891 0.5039,-1.013672 0.5039,-2.302734 0,-1.306641 -0.52734,-2.337891 -0.52734,-1.03125 -1.49414,-1.564453 -0.9668,-0.527344 -2.08594,-0.527344 -1.21289,0 -2.16797,0.585938 -0.95507,0.585937 -1.44726,1.599609 -0.49219,1.013672 -0.49219,2.144532 z m 1.17188,-0.01758 q 0,-1.552734 0.83203,-2.449218 0.83789,-0.890625 2.09765,-0.890625 1.28321,0 2.10938,0.902343 0.83203,0.902344 0.83203,2.560547 0,1.048828 -0.35742,1.828125 -0.35156,0.785157 -1.03711,1.212891 -0.67969,0.433594 -1.5293,0.433594 -1.20703,0 -2.08008,-0.832032 -0.86718,-0.826171 -0.86718,-2.765625 z" /><path
       inkscape:connector-curvature="0"
       id="path4582"
       style="font-variant:normal;font-weight:normal;font-size:medium;font-family:Helvetica;-inkscape-font-specification:Helvetica;writing-mode:lr-tb;fill:#000000;fill-opacity:1;fill-rule:nonzero;stroke:none"
       d="m 198.84694,38.450001 0,8.589844 1.13672,0 0,-3.527344 4.46484,0 0,3.527344 1.13672,0 0,-8.589844 -1.13672,0 0,4.048828 -4.46484,0 0,-4.048828 -1.13672,0 z" /><path
       inkscape:connector-curvature="0"
       id="path116"
       style="fill:#000000;fill-opacity:1;fill-rule:nonzero;stroke:none"
       d="m 191,35.95 4.5,0 -0.15,-0.9 -4.2,0" /><path
       inkscape:connector-curvature="0"
       id="path118"
       style="fill:#000000;fill-opacity:1;fill-rule:nonzero;stroke:none"
       d="m 191.8,31.1 2.85,0 -0.15,-0.9 -2.55,0" /><path
       inkscape:connector-curvature="0"
       id="path120"
       style="fill:#000000;fill-opacity:1;fill-rule:nonzero;stroke:none"
       d="m 192.65,26.25 1.2,0 -0.15,-0.9 -0.9,0" /><path
       inkscape:connector-curvature="0"
       id="path4608"
       style="font-variant:normal;font-weight:normal;font-size:medium;font-family:Helvetica;-inkscape-font-specification:Helvetica;writing-mode:lr-tb;fill:#000000;fill-opacity:1;fill-rule:nonzero;stroke:none"
       d="m 162.19493,27.700001 0,8.589844 1.13672,0 0,-3.527344 4.46484,0 0,3.527344 1.13672,0 0,-8.589844 -1.13672,0 0,4.048828 -4.46484,0 0,-4.048828 -1.13672,0 z" /><path
       inkscape:connector-curvature="0"
       id="path4610"
       style="font-variant:normal;font-weight:normal;font-size:medium;font-family:Helvetica;-inkscape-font-specification:Helvetica;writing-mode:lr-tb;fill:#000000;fill-opacity:1;fill-rule:nonzero;stroke:none"
       d="m 170.47807,31.883595 q 0,2.138671 1.14844,3.345703 1.14844,1.21289 2.96484,1.21289 1.18946,0 2.14454,-0.568359 0.95507,-0.568359 1.45312,-1.587891 0.50391,-1.013672 0.50391,-2.302734 0,-1.306641 -0.52735,-2.337891 -0.52734,-1.03125 -1.49414,-1.564453 -0.96679,-0.527344 -2.08594,-0.527344 -1.21289,0 -2.16796,0.585938 -0.95508,0.585937 -1.44727,1.599609 -0.49219,1.013672 -0.49219,2.144532 z m 1.17188,-0.01758 q 0,-1.552734 0.83203,-2.449218 0.83789,-0.890625 2.09766,-0.890625 1.2832,0 2.10937,0.902343 0.83203,0.902344 0.83203,2.560547 0,1.048828 -0.35742,1.828125 -0.35156,0.785157 -1.03711,1.212891 -0.67969,0.433594 -1.5293,0.433594 -1.20703,0 -2.08007,-0.832032 -0.86719,-0.826171 -0.86719,-2.765625 z" /><path
       inkscape:connector-curvature="0"
       id="path158"
       style="fill:#000000;fill-opacity:1;fill-rule:nonzero;stroke:none"
       d="m 179.45,26.95 2.25,3.9 11.7,-8.8 -0.15,-0.45 -0.65,-0.2" /><path
       inkscape:connector-curvature="0"
       id="path4656"
       style="font-variant:normal;font-weight:normal;font-size:medium;font-family:Helvetica;-inkscape-font-specification:Helvetica;writing-mode:lr-tb;fill:#000000;fill-opacity:1;fill-rule:nonzero;stroke:none"
       d="m 185.82579,45.368996 -0.4779,0 0,3.045318 q -0.17258,-0.164612 -0.45401,-0.329223 -0.27878,-0.164612 -0.50181,-0.246918 l 0,0.461975 q 0.40091,0.188507 0.70093,0.456665 0.30002,0.268158 0.42481,0.520386 l 0.30798,0 0,-3.908203 z" /><path
       inkscape:connector-curvature="0"
       id="path4658"
       style="font-variant:normal;font-weight:normal;font-size:medium;font-family:Helvetica;-inkscape-font-specification:Helvetica;writing-mode:lr-tb;fill:#000000;fill-opacity:1;fill-rule:nonzero;stroke:none"
       d="m 187.78438,47.479744 q -0.29737,0.108856 -0.44074,0.310638 -0.14337,0.201783 -0.14337,0.483216 0,0.424804 0.30533,0.714203 0.30533,0.289398 0.81244,0.289398 0.50976,0 0.8204,-0.297363 0.31064,-0.294709 0.31064,-0.719513 0,-0.270813 -0.14337,-0.472596 -0.14072,-0.199127 -0.43011,-0.307983 0.35842,-0.116821 0.54428,-0.377014 0.1885,-0.260193 0.1885,-0.621277 0,-0.499146 -0.35312,-0.838989 -0.35311,-0.339844 -0.92926,-0.339844 -0.57614,0 -0.92926,0.339844 -0.35312,0.342498 -0.35312,0.852264 0,0.379669 0.19117,0.634552 0.19381,0.257538 0.54959,0.350464 z m -0.0956,0.809784 q 0,-0.276123 0.17788,-0.451355 0.17789,-0.175232 0.46198,-0.175232 0.27612,0 0.45135,0.172577 0.17789,0.175232 0.17789,0.42746 0,0.262848 -0.1832,0.440734 -0.18054,0.180542 -0.45135,0.180542 -0.27347,0 -0.45401,-0.175231 -0.18054,-0.175232 -0.18054,-0.419495 z m -0.15399,-1.797455 q 0,-0.204437 0.0956,-0.395599 0.0982,-0.191162 0.28939,-0.297364 0.19117,-0.103546 0.41153,-0.103546 0.3425,0 0.56553,0.220368 0.22302,0.220367 0.22302,0.560211 0,0.345154 -0.23099,0.570831 -0.22833,0.225678 -0.57349,0.225678 -0.33718,0 -0.56021,-0.223023 -0.22036,-0.223022 -0.22036,-0.557556 z" /></g></svg>