<?xml version="1.0" encoding="UTF-8" standalone="no"?>
<!-- Created with Inkscape (http://www.inkscape.org/) -->

<svg
   xmlns:dc="http://purl.org/dc/elements/1.1/"
   xmlns:cc="http://creativecommons.org/ns#"
   xmlns:rdf="http://www.w3.org/1999/02/22-rdf-syntax-ns#"
   xmlns:svg="http://www.w3.org/2000/svg"
   xmlns="http://www.w3.org/2000/svg"
   xmlns:sodipodi="http://sodipodi.sourceforge.net/DTD/sodipodi-0.dtd"
   xmlns:inkscape="http://www.inkscape.org/namespaces/inkscape"
   id="svg2"
   version="1.1"
   inkscape:version="0.91 r13725"
   xml:space="preserve"
   width="266.86404"
   height="31.526489"
   viewBox="0 0 266.86404 31.526489"
   sodipodi:docname="graphic.svg"><metadata
     id="metadata8"><rdf:RDF><cc:Work
         rdf:about=""><dc:format>image/svg+xml</dc:format><dc:type
           rdf:resource="http://purl.org/dc/dcmitype/StillImage" /><dc:title></dc:title></cc:Work></rdf:RDF></metadata><defs
     id="defs6" /><sodipodi:namedview
     pagecolor="#ffffff"
     bordercolor="#666666"
     borderopacity="1"
     objecttolerance="10"
     gridtolerance="10"
     guidetolerance="10"
     inkscape:pageopacity="0"
     inkscape:pageshadow="2"
     inkscape:window-width="1500"
     inkscape:window-height="937"
     id="namedview4"
     showgrid="false"
     inkscape:zoom="0.95837563"
     inkscape:cx="139.71383"
     inkscape:cy="-59.231319"
     inkscape:window-x="-8"
     inkscape:window-y="1192"
     inkscape:window-maximized="1"
     inkscape:current-layer="g10" /><g
     id="g10"
     inkscape:groupmode="layer"
     inkscape:label="ink_ext_XXXXXX"
     transform="matrix(1.25,0,0,-1.25,-20.911171,213.88281)"><path
       inkscape:connector-curvature="0"
       id="path28"
       style="fill:none;stroke:#000000;stroke-width:0.69999999;stroke-linecap:butt;stroke-linejoin:miter;stroke-miterlimit:4;stroke-dasharray:none;stroke-opacity:1"
       d="m 206.9,159.45 -136.6,0" /><path
       inkscape:connector-curvature="0"
       id="path30"
       style="fill:#000000;fill-opacity:1;fill-rule:nonzero;stroke:none"
       d="m 218.7,159.45 -13.5,3.45 c 0,0 1.65,-1.95 1.65,-3.45 0,-1.5 -1.65,-3.45 -1.65,-3.45 l 13.5,3.45 0,0" /><text
       transform="scale(1,-1)"
       style="font-variant:normal;font-weight:normal;font-size:12px;font-family:Helvetica;-inkscape-font-specification:Helvetica;writing-mode:lr-tb;fill:#000000;fill-opacity:1;fill-rule:nonzero;stroke:none"
       id="text56"
       x="15.768"
       y="-155.3"><tspan
         x="15.768 24.431999 46.00008 54.664082"
         y="-155.3"
         sodipodi:role="line"
         id="tspan58">HCCH</tspan></text>
<path
       inkscape:connector-curvature="0"
       id="path60"
       style="fill:#000000;fill-opacity:1;fill-rule:nonzero;stroke:none"
       d="m 34.95,163.45 9.35,0 0,0.9 -9.35,0 0,-0.9 z" /><path
       inkscape:connector-curvature="0"
       id="path62"
       style="fill:#000000;fill-opacity:1;fill-rule:nonzero;stroke:none"
       d="m 34.95,159.55 9.35,0 0,0.9 -9.35,0 0,-0.9 z" /><path
       inkscape:connector-curvature="0"
       id="path64"
       style="fill:#000000;fill-opacity:1;fill-rule:nonzero;stroke:none"
       d="m 34.95,155.65 9.35,0 0,0.9 -9.35,0 0,-0.9 z" /><text
       transform="scale(1,-1)"
       style="font-variant:normal;font-weight:normal;font-size:11px;font-family:Helvetica;-inkscape-font-specification:Helvetica;writing-mode:lr-tb;fill:#000000;fill-opacity:1;fill-rule:nonzero;stroke:none"
       id="text68"
       x="71.150002"
       y="-148.2"><tspan
         x="71.150002 77.265999 80.323997 83.382004 89.498001 93.161003 99.277 102.94 109.056 118.219 124.335 127.998 134.114 137.77699 146.94 153.056 156.114 162.23 167.73 170.172 176.28799 182.40399 185.46199 191.578 197.694"
         y="-148.2"
         sodipodi:role="line"
         id="tspan70">2. 2-bromo-3-methylbutane</tspan><tspan
         x="71.150002 77.265999 80.323997 83.382004 91.323997 97.440002 105.382"
         y="-163.2"
         sodipodi:role="line"
         id="tspan72">1. NaNH</tspan></text>
<text
       transform="scale(1,-1)"
       style="font-variant:normal;font-weight:normal;font-size:8.25px;font-family:Helvetica;-inkscape-font-specification:Helvetica;writing-mode:lr-tb;fill:#000000;fill-opacity:1;fill-rule:nonzero;stroke:none"
       id="text74"
       x="113.3242"
       y="-161.1375"><tspan
         x="113.3242"
         y="-161.1375"
         id="tspan76">2</tspan></text>
<text
       transform="scale(1,-1)"
       style="font-variant:normal;font-weight:normal;font-size:11px;font-family:Helvetica;-inkscape-font-specification:Helvetica;writing-mode:lr-tb;fill:#000000;fill-opacity:1;fill-rule:nonzero;stroke:none"
       id="text78"
       x="117.91131"
       y="-163.2"><tspan
         x="117.91131 120.96931 124.02731 131.96931"
         y="-163.2"
         sodipodi:role="line"
         id="tspan80">, NH</tspan></text>
<text
       transform="scale(1,-1)"
       style="font-variant:normal;font-weight:normal;font-size:8.25px;font-family:Helvetica;-inkscape-font-specification:Helvetica;writing-mode:lr-tb;fill:#000000;fill-opacity:1;fill-rule:nonzero;stroke:none"
       id="text82"
       x="139.91132"
       y="-161.1375"><tspan
         x="139.91132"
         y="-161.1375"
         id="tspan84">3</tspan></text>
<path
       inkscape:connector-curvature="0"
       id="path4516"
       style="font-variant:normal;font-weight:normal;font-size:medium;font-family:Helvetica;-inkscape-font-specification:Helvetica;writing-mode:lr-tb;fill:#000000;fill-opacity:1;fill-rule:nonzero;stroke:none"
       d="m 226.91563,156.66524 q -0.006,0.21093 -0.006,0.3164 0,0.6211 0.17579,1.07227 0.1289,0.33984 0.41601,0.68555 0.21094,0.25195 0.75586,0.73242 0.55078,0.48633 0.71484,0.77344 0.16407,0.2871 0.16407,0.62695 0,0.61523 -0.48047,1.07812 -0.48047,0.46875 -1.17774,0.46875 -0.67382,0 -1.125,-0.42187 -0.45117,-0.42188 -0.59179,-1.31836 l -1.08399,0.12891 q 0.14649,1.20117 0.86719,1.83984 0.72656,0.63867 1.91602,0.63867 1.25976,0 2.00976,-0.68555 0.75,-0.68554 0.75,-1.6582 0,-0.5625 -0.26367,-1.03711 -0.26367,-0.47461 -1.03125,-1.1543 -0.51563,-0.45703 -0.67383,-0.67382 -0.1582,-0.2168 -0.23437,-0.49805 -0.0762,-0.28125 -0.0879,-0.91406 l -1.01368,0 z m -0.0644,-2.11524 0,1.20117 1.20117,0 0,-1.20117 -1.20117,0 z" /></g></svg>