<?xml version="1.0" encoding="UTF-8" standalone="no"?>
<svg
   xmlns:dc="http://purl.org/dc/elements/1.1/"
   xmlns:cc="http://creativecommons.org/ns#"
   xmlns:rdf="http://www.w3.org/1999/02/22-rdf-syntax-ns#"
   xmlns:svg="http://www.w3.org/2000/svg"
   xmlns="http://www.w3.org/2000/svg"
   viewBox="0 0 398.75 107.5"
   height="107.5"
   width="398.75"
   xml:space="preserve"
   version="1.1"
   id="svg2"><metadata
     id="metadata8"><rdf:RDF><cc:Work
         rdf:about=""><dc:format>image/svg+xml</dc:format><dc:type
           rdf:resource="http://purl.org/dc/dcmitype/StillImage" /><dc:title></dc:title></cc:Work></rdf:RDF></metadata><defs
     id="defs6" /><g
     transform="matrix(1.25,0,0,-1.25,0,107.5)"
     id="g10"><g
       transform="scale(0.1,0.1)"
       id="g12"><g
         transform="scale(10,10)"
         id="g14"><text
           id="text16"
           style="font-variant:normal;font-weight:normal;font-size:12px;font-family:Helvetica;-inkscape-font-specification:Helvetica;writing-mode:lr-tb;fill:#000000;fill-opacity:1;fill-rule:nonzero;stroke:none"
           transform="matrix(1,0,0,-1,36.25,2.15)"><tspan
             id="tspan18"
             y="0"
             x="0 8.0039997">Br</tspan></text>
</g><path
         id="path20"
         style="fill:#000000;fill-opacity:1;fill-rule:nonzero;stroke:none"
         d="m 407,282 -4.5,2.5 0,5 184.5,107 4.5,-8" /><path
         id="path22"
         style="fill:#000000;fill-opacity:1;fill-rule:nonzero;stroke:none"
         d="m 215,387.5 0,5 7.5,1 180,-104 0,-5 -4.5,-2.5" /><path
         id="path24"
         style="fill:#000000;fill-opacity:1;fill-rule:nonzero;stroke:none"
         d="m 30.5,280.5 -4.5,8 184.5,106.5 4.5,-2.5 0,-5" /><path
         id="path26"
         style="fill:#000000;fill-opacity:1;fill-rule:nonzero;stroke:none"
         d="m 210.5,608.5 9,0 0,-205 -4.5,-11 -4.5,2.5" /><path
         id="path28"
         style="fill:#000000;fill-opacity:1;fill-rule:nonzero;stroke:none"
         d="m 407,130 -9,0 0,152 4.5,2.5 4.5,-2.5" /><g
         transform="scale(10,10)"
         id="g30"><text
           id="text32"
           style="font-variant:normal;font-weight:normal;font-size:12px;font-family:Helvetica;-inkscape-font-specification:Helvetica;writing-mode:lr-tb;fill:#000000;fill-opacity:1;fill-rule:nonzero;stroke:none"
           transform="matrix(1,0,0,-1,83.7,51.85)"><tspan
             id="tspan34"
             y="0"
             x="0 21.549959 30.213961">CCH</tspan></text>
</g><path
         id="path36"
         style="fill:#000000;fill-opacity:1;fill-rule:nonzero;stroke:none"
         d="m 942,600 93.5,0 0,9 -93.5,0 0,-9 z" /><path
         id="path38"
         style="fill:#000000;fill-opacity:1;fill-rule:nonzero;stroke:none"
         d="m 942,561 93.5,0 0,9 -93.5,0 0,-9 z" /><path
         id="path40"
         style="fill:#000000;fill-opacity:1;fill-rule:nonzero;stroke:none"
         d="m 942,522 93.5,0 0,9 -93.5,0 0,-9 z" /><path
         id="path42"
         style="fill:none;stroke:#000000;stroke-width:7;stroke-linecap:butt;stroke-linejoin:miter;stroke-miterlimit:4;stroke-dasharray:none;stroke-opacity:1"
         d="m 826,567 c 0,-22.09 -17.91,-40 -40,-40 -22.09,0 -40,17.91 -40,40 0,22.09 17.91,40 40,40 22.09,0 40,-17.91 40,-40 z" /><path
         id="path44"
         style="fill:none;stroke:#000000;stroke-width:7;stroke-linecap:butt;stroke-linejoin:miter;stroke-miterlimit:4;stroke-dasharray:none;stroke-opacity:1"
         d="m 766,567 40,0" /><g
         transform="scale(10,10)"
         id="g46"><text
           id="text48"
           style="font-variant:normal;font-weight:normal;font-size:12px;font-family:Helvetica;-inkscape-font-specification:Helvetica;writing-mode:lr-tb;fill:#000000;fill-opacity:1;fill-rule:nonzero;stroke:none"
           transform="matrix(1,0,0,-1,32.45,49.8)"><tspan
             id="tspan50"
             y="0"
             x="0">H</tspan></text>
</g><path
         id="path52"
         style="fill:#000000;fill-opacity:1;fill-rule:nonzero;stroke:none"
         d="m 308,491.5 6,-6.5 -91.5,-91.5 -7.5,-1 4.5,11" /><path
         id="path54"
         style="fill:none;stroke:#ff0000;stroke-width:8.99979973;stroke-linecap:butt;stroke-linejoin:miter;stroke-miterlimit:4;stroke-dasharray:none;stroke-opacity:1"
         d="M 360,670 C 335,885 771,887 778.5,641" /><path
         id="path56"
         style="fill:#ff0000;fill-opacity:1;fill-rule:nonzero;stroke:none"
         d="M 336.5,678.5 360,670 381,684 367,609.5" /><path
         id="path58"
         style="fill:none;stroke:#ff0000;stroke-width:8.99979973;stroke-linecap:butt;stroke-linejoin:miter;stroke-miterlimit:4;stroke-dasharray:none;stroke-opacity:1"
         d="m 372.5,380.5 c 67.5,105 -5,4.5 -92.5,52" /><path
         id="path60"
         style="fill:#ff0000;fill-opacity:1;fill-rule:nonzero;stroke:none"
         d="m 359.5,402.5 13,-22 25,-2.5 -58,-48.5" /><path
         id="path62"
         style="fill:none;stroke:#ff0000;stroke-width:8.99979973;stroke-linecap:butt;stroke-linejoin:miter;stroke-miterlimit:4;stroke-dasharray:none;stroke-opacity:1"
         d="M 582.5,58 C 764.5,65.5 815,219.5 425,198.5" /><path
         id="path64"
         style="fill:#ff0000;fill-opacity:1;fill-rule:nonzero;stroke:none"
         d="M 593,81 582.5,58 594.5,36 522,55.5" /><path
         id="path66"
         style="fill:none;stroke:#000000;stroke-width:7;stroke-linecap:butt;stroke-linejoin:miter;stroke-miterlimit:4;stroke-dasharray:none;stroke-opacity:1"
         d="m 1682.5,294.5 -643.5,0" /><path
         id="path68"
         style="fill:#000000;fill-opacity:1;fill-rule:nonzero;stroke:none"
         d="m 1761,294.5 -90,23.5 c 0,0 11,-13.5 11,-23.5 0,-10 -11,-23 -11,-23 l 90,23 0,0" /><path
         id="path70"
         style="fill:#000000;fill-opacity:1;fill-rule:nonzero;stroke:none"
         d="m 2120,279.5 -4.5,-2.5 -4.5,2.5 0,213.5 9,0" /><path
         id="path72"
         style="fill:#000000;fill-opacity:1;fill-rule:nonzero;stroke:none"
         d="m 1930.5,165 -4.5,8 185,106.5 4.5,-2.5 0,-5" /><path
         id="path74"
         style="fill:#000000;fill-opacity:1;fill-rule:nonzero;stroke:none"
         d="m 2302.5,174.5 0,-10.5 -187,108 0,5 4.5,2.5" /><path
         id="path76"
         style="fill:#000000;fill-opacity:1;fill-rule:nonzero;stroke:none"
         d="m 2304.5,218 -4.5,-8 -148,85.5 4.5,8" /><path
         id="path78"
         style="fill:#000000;fill-opacity:1;fill-rule:nonzero;stroke:none"
         d="m 2487,281 4.5,-8 -189,-109 0,10.5" /><g
         transform="scale(10,10)"
         id="g80"><text
           id="text82"
           style="font-variant:normal;font-weight:normal;font-size:12px;font-family:Helvetica;-inkscape-font-specification:Helvetica;writing-mode:lr-tb;fill:#000000;fill-opacity:1;fill-rule:nonzero;stroke:none"
           transform="matrix(1,0,0,-1,264.718,22.65)"><tspan
             id="tspan84"
             y="0"
             x="0 8.6639996 34.23204 42.896042">HCCH</tspan></text>
</g><path
         id="path86"
         style="fill:#000000;fill-opacity:1;fill-rule:nonzero;stroke:none"
         d="m 2839,300 133,0 0,9 -133,0 0,-9 z" /><path
         id="path88"
         style="fill:#000000;fill-opacity:1;fill-rule:nonzero;stroke:none"
         d="m 2839,269.5 133,0 0,8.5 -133,0 0,-8.5 z" /><path
         id="path90"
         style="fill:#000000;fill-opacity:1;fill-rule:nonzero;stroke:none"
         d="m 2839,238.5 133,0 0,9 -133,0 0,-9 z" /></g></g></svg>