<?xml version="1.0" encoding="UTF-8" standalone="no"?>
<svg
   xmlns:dc="http://purl.org/dc/elements/1.1/"
   xmlns:cc="http://creativecommons.org/ns#"
   xmlns:rdf="http://www.w3.org/1999/02/22-rdf-syntax-ns#"
   xmlns:svg="http://www.w3.org/2000/svg"
   xmlns="http://www.w3.org/2000/svg"
   version="1.1"
   id="svg4835"
   viewBox="0 0 88.582677 88.582677"
   height="25mm"
   width="25mm">
  <defs
     id="defs4837" />
  <metadata
     id="metadata4840">
    <rdf:RDF>
      <cc:Work
         rdf:about="">
        <dc:format>image/svg+xml</dc:format>
        <dc:type
           rdf:resource="http://purl.org/dc/dcmitype/StillImage" />
        <dc:title></dc:title>
      </cc:Work>
    </rdf:RDF>
  </metadata>
  <g
     transform="translate(0,-963.77953)"
     id="layer1">
    <path
       id="path5426"
       transform="translate(0,963.77953)"
       d="M 44.291016 16.259766 L 9.421875 41.589844 L 9.421875 84.539062 L 21.71875 84.539062 L 36.275391 84.539062 L 38.529297 84.539062 L 38.529297 62.597656 L 50.050781 62.597656 L 50.050781 84.539062 L 52.306641 84.539062 L 59.978516 84.539062 L 79.158203 84.539062 L 79.158203 41.589844 L 44.291016 16.259766 z "
       style="opacity:0.95200004;fill:#000000;fill-opacity:1;fill-rule:evenodd;stroke:none;stroke-width:1;stroke-linecap:square;stroke-linejoin:bevel;stroke-miterlimit:4;stroke-dasharray:none;stroke-opacity:1" />
    <path
       id="rect5385"
       transform="translate(0,963.77953)"
       d="M 44.291016 1.25 L 0 33.429688 L 2.5429688 41.255859 L 2.9863281 41.255859 L 44.291016 11.246094 L 60.972656 23.363281 L 60.972656 23.365234 L 60.974609 23.365234 L 63.066406 24.884766 L 85.595703 41.255859 L 86.039062 41.255859 L 88.582031 33.429688 L 75.158203 23.675781 L 75.158203 23.365234 L 75.158203 6.203125 L 63.066406 6.203125 L 60.972656 6.203125 L 60.972656 13.367188 L 44.291016 1.25 z "
       style="opacity:0.95200004;fill:#000000;fill-opacity:1;fill-rule:evenodd;stroke:none;stroke-width:1;stroke-linecap:square;stroke-linejoin:bevel;stroke-miterlimit:4;stroke-dasharray:none;stroke-opacity:1" />
  </g>
</svg>
