<?xml version="1.0" encoding="UTF-8" standalone="no"?>
<!-- Created with Inkscape (http://www.inkscape.org/) -->

<svg
   xmlns:dc="http://purl.org/dc/elements/1.1/"
   xmlns:cc="http://creativecommons.org/ns#"
   xmlns:rdf="http://www.w3.org/1999/02/22-rdf-syntax-ns#"
   xmlns:svg="http://www.w3.org/2000/svg"
   xmlns="http://www.w3.org/2000/svg"
   xmlns:sodipodi="http://sodipodi.sourceforge.net/DTD/sodipodi-0.dtd"
   xmlns:inkscape="http://www.inkscape.org/namespaces/inkscape"
   width="25mm"
   height="25mm"
   viewBox="0 0 88.582677 88.582677"
   id="svg5439"
   version="1.1"
   inkscape:version="0.91 r13725"
   sodipodi:docname="info_inkscape.svg">
  <defs
     id="defs5441" />
  <sodipodi:namedview
     id="base"
     pagecolor="#ffffff"
     bordercolor="#666666"
     borderopacity="1.0"
     inkscape:pageopacity="0.0"
     inkscape:pageshadow="2"
     inkscape:zoom="0.49497475"
     inkscape:cx="-164.36301"
     inkscape:cy="247.23524"
     inkscape:document-units="px"
     inkscape:current-layer="layer1"
     showgrid="false"
     inkscape:snap-bbox="true"
     inkscape:bbox-nodes="true"
     inkscape:snap-page="true"
     inkscape:snap-bbox-midpoints="true"
     inkscape:snap-bbox-edge-midpoints="true"
     inkscape:object-paths="true"
     inkscape:snap-intersection-paths="true"
     inkscape:bbox-paths="true"
     inkscape:object-nodes="true"
     inkscape:snap-smooth-nodes="true"
     inkscape:window-width="1500"
     inkscape:window-height="937"
     inkscape:window-x="-8"
     inkscape:window-y="1192"
     inkscape:window-maximized="1" />
  <metadata
     id="metadata5444">
    <rdf:RDF>
      <cc:Work
         rdf:about="">
        <dc:format>image/svg+xml</dc:format>
        <dc:type
           rdf:resource="http://purl.org/dc/dcmitype/StillImage" />
        <dc:title></dc:title>
      </cc:Work>
    </rdf:RDF>
  </metadata>
  <g
     inkscape:label="Layer 1"
     inkscape:groupmode="layer"
     id="layer1"
     transform="translate(0,-963.77953)">
    <path
       style="opacity:1;fill:#000000;fill-opacity:1;fill-rule:evenodd;stroke:none;stroke-width:1;stroke-linecap:square;stroke-linejoin:bevel;stroke-miterlimit:4;stroke-dasharray:none;stroke-opacity:1"
       d="M 44.291016 0 A 44.29134 44.29134 0 0 0 0 44.291016 A 44.29134 44.29134 0 0 0 44.291016 88.582031 A 44.29134 44.29134 0 0 0 88.582031 44.291016 A 44.29134 44.29134 0 0 0 44.291016 0 z M 37.017578 14.71875 L 51.5625 14.71875 L 51.5625 26.384766 L 37.017578 26.384766 L 37.017578 14.71875 z M 29.333984 33.929688 L 37.017578 33.929688 L 50.603516 33.929688 L 51.5625 33.929688 L 51.5625 62.199219 L 59.25 62.199219 L 59.25 73.863281 L 51.5625 73.863281 L 37.017578 73.863281 L 29.333984 73.863281 L 29.333984 62.199219 L 37.017578 62.199219 L 37.017578 45.59375 L 29.333984 45.59375 L 29.333984 33.929688 z "
       transform="translate(0,963.77953)"
       id="path6014" />
  </g>
</svg>
