<?xml version="1.0" encoding="UTF-8" standalone="no"?>
<svg
   xmlns:dc="http://purl.org/dc/elements/1.1/"
   xmlns:cc="http://creativecommons.org/ns#"
   xmlns:rdf="http://www.w3.org/1999/02/22-rdf-syntax-ns#"
   xmlns:svg="http://www.w3.org/2000/svg"
   xmlns="http://www.w3.org/2000/svg"
   version="1.1"
   id="svg5439"
   viewBox="0 0 88.582677 88.582677"
   height="25mm"
   width="25mm">
  <defs
     id="defs5441" />
  <metadata
     id="metadata5444">
    <rdf:RDF>
      <cc:Work
         rdf:about="">
        <dc:format>image/svg+xml</dc:format>
        <dc:type
           rdf:resource="http://purl.org/dc/dcmitype/StillImage" />
        <dc:title></dc:title>
      </cc:Work>
    </rdf:RDF>
  </metadata>
  <g
     transform="translate(0,-963.77953)"
     id="layer1">
    <path
       id="path6014"
       transform="translate(0,963.77953)"
       d="M 44.291016 0 A 44.29134 44.29134 0 0 0 0 44.291016 A 44.29134 44.29134 0 0 0 44.291016 88.582031 A 44.29134 44.29134 0 0 0 88.582031 44.291016 A 44.29134 44.29134 0 0 0 44.291016 0 z M 37.017578 14.71875 L 51.5625 14.71875 L 51.5625 26.384766 L 37.017578 26.384766 L 37.017578 14.71875 z M 29.333984 33.929688 L 37.017578 33.929688 L 50.603516 33.929688 L 51.5625 33.929688 L 51.5625 62.199219 L 59.25 62.199219 L 59.25 73.863281 L 51.5625 73.863281 L 37.017578 73.863281 L 29.333984 73.863281 L 29.333984 62.199219 L 37.017578 62.199219 L 37.017578 45.59375 L 29.333984 45.59375 L 29.333984 33.929688 z "
       style="opacity:1;fill:#000000;fill-opacity:1;fill-rule:evenodd;stroke:none;stroke-width:1;stroke-linecap:square;stroke-linejoin:bevel;stroke-miterlimit:4;stroke-dasharray:none;stroke-opacity:1" />
  </g>
</svg>
